<svg xmlns="http://www.w3.org/2000/svg" xmlns:xlink="http://www.w3.org/1999/xlink" width="500" zoomAndPan="magnify" viewBox="0 0 375 374.999991" height="500" preserveAspectRatio="xMidYMid meet" version="1.0"><defs><clipPath id="8bce27e367"><path d="M 57.0625 6 L 318 6 L 318 364 L 57.0625 364 Z M 57.0625 6 " clip-rule="nonzero"/></clipPath></defs><g clip-path="url(#8bce27e367)"><path fill="#000000" d="M 243.019531 166.816406 C 243.761719 154.90625 245.84375 151.839844 246 151.628906 C 246.132812 151.484375 246.261719 151.339844 246.382812 151.1875 C 251.238281 149.726562 256.164062 148.0625 261.152344 146.191406 L 277.078125 139.558594 C 294.441406 131.65625 305.925781 124.269531 306.402344 123.960938 L 317.929688 116.5 L 266.636719 88.9375 C 260.941406 85.882812 255.082031 83.1875 249.054688 80.851562 L 206.445312 64.339844 C 210.640625 58.128906 232.0625 36.660156 232.0625 36.660156 C 232.0625 36.660156 218.472656 15.695312 189.226562 9.09375 C 160.4375 2.605469 144.765625 11.746094 144.773438 11.789062 L 144.632812 19.285156 C 143.070312 40.316406 152.382812 61.546875 152.382812 61.546875 L 115.105469 83.945312 C 108.0625 88.054688 101.277344 92.554688 94.753906 97.453125 L 60.523438 123.101562 L 64.183594 129.347656 C 64.636719 130.117188 68.863281 137.097656 78.410156 144.277344 L 87 149.808594 C 87.253906 149.972656 87.511719 150.128906 87.78125 150.269531 C 94.253906 153.726562 101.0625 156.273438 108.214844 157.910156 L 114.019531 181.960938 C 114.4375 183.675781 115.042969 185.320312 115.84375 186.894531 C 116.644531 188.464844 117.617188 189.925781 118.761719 191.269531 C 119.90625 192.613281 121.1875 193.808594 122.613281 194.847656 C 124.039062 195.890625 125.5625 196.753906 127.191406 197.4375 L 146.269531 205.457031 L 131.046875 208.152344 C 129.332031 208.449219 127.6875 208.972656 126.117188 209.71875 C 124.546875 210.46875 123.105469 211.417969 121.796875 212.5625 C 120.484375 213.707031 119.351562 215.007812 118.398438 216.460938 C 117.445312 217.917969 116.707031 219.476562 116.179688 221.132812 C 110.867188 237.789062 91.714844 293.664062 68.226562 312.746094 L 57.082031 321.804688 L 81.953125 330.757812 L 79.828125 338.328125 L 119.132812 344.546875 L 121.25 339.273438 L 141.894531 337.050781 C 143.570312 342.304688 147.679688 353.6875 153.617188 360.378906 C 161.519531 369.308594 163.75 358.554688 163.75 354.097656 C 163.75 351.03125 164.421875 342.417969 166.878906 334.167969 L 180.367188 335.777344 C 181.242188 340.289062 181.796875 344.625 181.996094 346.597656 C 182.601562 352.476562 184.824219 372.425781 196.183594 355.722656 C 199.574219 350.722656 201.539062 344.59375 202.660156 338.433594 L 215.515625 339.964844 L 212.207031 330.390625 L 243.664062 325.75 L 243.332031 324.429688 L 254.921875 325.71875 L 279.589844 314.695312 L 239.242188 267.917969 L 227.730469 241.140625 L 224.984375 222.078125 C 224.835938 221.054688 224.605469 220.046875 224.292969 219.0625 C 223.984375 218.074219 223.59375 217.121094 223.125 216.199219 C 222.660156 215.273438 222.121094 214.394531 221.511719 213.558594 C 220.902344 212.722656 220.230469 211.941406 219.492188 211.214844 C 218.757812 210.488281 217.96875 209.828125 217.125 209.230469 C 216.28125 208.628906 215.394531 208.105469 214.464844 207.648438 C 213.535156 207.195312 212.574219 206.820312 211.585938 206.519531 C 210.59375 206.222656 209.585938 206.003906 208.5625 205.871094 L 193.269531 203.882812 C 204.402344 200.4375 217.195312 195.429688 229.742188 188.207031 C 231.648438 187.113281 233.390625 185.800781 234.96875 184.273438 C 236.550781 182.75 237.917969 181.050781 239.078125 179.1875 C 240.234375 177.320312 241.148438 175.339844 241.816406 173.246094 C 242.484375 171.152344 242.886719 169.011719 243.019531 166.816406 Z M 243.019531 166.816406 " fill-opacity="1" fill-rule="nonzero"/></g><path fill="#ffffff" d="M 236.613281 153.851562 C 235.660156 157.796875 235.183594 162.378906 234.925781 166.3125 C 234.828125 167.835938 234.546875 169.328125 234.082031 170.78125 C 233.617188 172.234375 232.984375 173.609375 232.179688 174.90625 C 231.375 176.203125 230.421875 177.382812 229.324219 178.445312 C 228.226562 179.503906 227.019531 180.417969 225.695312 181.179688 C 202.925781 194.304688 179.011719 199.785156 167.660156 201.796875 C 165.546875 202.167969 163.421875 202.238281 161.292969 201.996094 C 159.160156 201.757812 157.105469 201.222656 155.125 200.386719 L 130.332031 189.964844 C 129.289062 189.527344 128.3125 188.976562 127.402344 188.308594 C 126.488281 187.640625 125.667969 186.878906 124.933594 186.015625 C 124.203125 185.15625 123.582031 184.222656 123.066406 183.214844 C 122.554688 182.207031 122.167969 181.15625 121.902344 180.058594 L 116.984375 159.6875 L 117.25 159.726562 L 119.601562 160.175781 L 119.648438 160.054688 L 120.699219 160.199219 C 121.007812 161.910156 121.46875 164.328125 121.71875 165.25 C 122.125 166.734375 122.53125 171.597656 131.71875 173.21875 C 140.90625 174.839844 145.644531 172.070312 145.644531 167.148438 C 145.644531 165.316406 145.574219 163.621094 145.480469 162.230469 C 150.785156 162.125 155.984375 161.332031 161.078125 159.859375 L 162 159.589844 L 162 167.960938 C 162 171.339844 168.484375 178.238281 184.023438 177.019531 C 199.5625 175.800781 209.972656 170.257812 209.972656 164.449219 L 209.972656 158.671875 C 212.871094 158.269531 215.777344 157.835938 218.6875 157.367188 L 225.527344 156.265625 L 225.558594 156.335938 L 226.851562 156.054688 L 227.109375 156.015625 L 227.109375 156 L 232.027344 154.925781 C 233.539062 154.59375 235.074219 154.234375 236.613281 153.851562 Z M 236.613281 153.851562 " fill-opacity="1" fill-rule="nonzero"/><path fill="#ffffff" d="M 266.320312 311.742188 L 253.621094 317.410156 L 241.457031 316.0625 L 233.601562 293.355469 L 214.953125 269.03125 L 227.941406 296.34375 L 233.617188 319.050781 L 209.835938 322.5625 C 209.835938 322.5625 203.886719 298.230469 199.292969 287.417969 C 194.703125 276.605469 197.128906 249.570312 197.128906 249.570312 L 187.410156 278.222656 C 187.410156 278.222656 189.574219 295.523438 192.816406 302.011719 C 196.058594 308.5 203.625 330.390625 203.625 330.390625 L 162.808594 325.527344 C 164.59375 321.914062 164.742188 314.460938 164.195312 306.527344 L 170.1875 288.988281 L 198.730469 242.277344 L 196.140625 238.046875 C 195.320312 236.703125 188.941406 226.695312 178.644531 222.039062 C 178.964844 220.820312 179.589844 219.789062 180.523438 218.941406 L 183.839844 216.054688 L 183.234375 211.699219 C 183.183594 211.375 183.121094 211.050781 183.039062 210.734375 L 207.523438 213.910156 C 208.113281 213.988281 208.695312 214.109375 209.261719 214.28125 C 209.832031 214.453125 210.382812 214.667969 210.917969 214.929688 C 211.453125 215.191406 211.960938 215.492188 212.449219 215.835938 C 212.933594 216.179688 213.386719 216.5625 213.808594 216.976562 C 214.234375 217.394531 214.617188 217.84375 214.96875 218.324219 C 215.320312 218.804688 215.628906 219.3125 215.894531 219.84375 C 216.164062 220.375 216.386719 220.921875 216.566406 221.488281 C 216.742188 222.054688 216.875 222.632812 216.957031 223.222656 L 219.832031 243.359375 L 232.265625 272.28125 Z M 266.320312 311.742188 " fill-opacity="1" fill-rule="nonzero"/><path fill="#ffffff" d="M 189.226562 242.28125 L 162.804688 285.523438 L 148.210938 328.230469 L 125.507812 330.664062 L 133.34375 302.011719 L 147.128906 276.875 L 147.9375 252.550781 L 133.34375 277.957031 L 126.859375 303.632812 L 114.003906 335.527344 L 90.082031 331.742188 L 94.421875 316.339844 L 111.988281 299.582031 L 120.097656 266.878906 C 120.097656 266.878906 107.9375 294.445312 104.691406 297.148438 C 101.445312 299.851562 80.101562 321.476562 80.101562 321.476562 L 73.339844 319.042969 C 98.355469 298.71875 117.882812 242.488281 123.90625 223.582031 C 124.207031 222.632812 124.632812 221.738281 125.183594 220.902344 C 125.730469 220.066406 126.382812 219.320312 127.132812 218.664062 C 127.886719 218.003906 128.714844 217.460938 129.617188 217.03125 C 130.519531 216.597656 131.460938 216.296875 132.445312 216.125 L 154.699219 212.195312 L 154.699219 208.867188 C 159.414062 210.34375 164.207031 210.65625 169.074219 209.792969 C 170.203125 209.59375 171.421875 209.363281 172.730469 209.105469 C 174.945312 211 175.203125 212.832031 175.203125 212.832031 C 168.582031 218.585938 170.371094 227.96875 170.371094 227.96875 C 181.457031 229.574219 189.226562 242.28125 189.226562 242.28125 Z M 189.226562 242.28125 " fill-opacity="1" fill-rule="nonzero"/><path fill="#ffffff" d="M 83.292969 137.808594 C 74.769531 131.382812 71.175781 125.253906 71.175781 125.253906 L 99.601562 103.9375 C 105.878906 99.230469 112.40625 94.898438 119.1875 90.949219 L 152.734375 71.738281 C 152.734375 71.738281 158.480469 79.039062 175.230469 79.039062 C 191.980469 79.039062 203.078125 71.738281 203.078125 71.738281 L 246.128906 88.417969 C 251.847656 90.632812 257.402344 93.191406 262.800781 96.089844 L 302.003906 117.15625 C 302.003906 117.15625 290.742188 124.441406 273.722656 132.1875 L 230.105469 104.433594 L 258.289062 138.59375 C 249.160156 142.074219 239.828125 144.878906 230.296875 147.003906 L 204.425781 88.488281 L 217.402344 149.359375 C 203.933594 151.535156 190.390625 153.027344 176.773438 153.839844 L 180.507812 122.222656 C 180.78125 119.914062 180.851562 117.601562 180.71875 115.28125 L 179.023438 85.246094 L 175.8125 114.234375 C 175.613281 115.992188 175.304688 117.726562 174.878906 119.441406 L 167.414062 149.570312 L 158.84375 152.070312 C 153.195312 153.707031 147.433594 154.371094 141.5625 154.058594 C 135.132812 153.703125 128.976562 153.15625 123.167969 152.359375 L 133.882812 116.78125 C 134.621094 114.328125 135.585938 111.964844 136.773438 109.691406 L 147.152344 89.851562 L 134.175781 104.796875 C 130.933594 108.527344 128.460938 112.710938 126.753906 117.351562 L 114.394531 150.914062 C 113.503906 150.742188 112.609375 150.558594 111.746094 150.386719 C 104.5625 148.910156 97.746094 146.429688 91.292969 142.941406 L 106.613281 116.597656 L 96.042969 122.8125 Z M 83.292969 137.808594 " fill-opacity="1" fill-rule="nonzero"/><path fill="#ffffff" d="M 152.738281 19.433594 C 152.738281 19.433594 152.199219 47.832031 162.671875 63.417969 C 162.671875 63.417969 180.304688 69.488281 198.550781 61.59375 C 198.550781 61.59375 208.347656 44.164062 218.878906 37.109375 C 218.878906 37.109375 214.363281 31.59375 207.066406 31.59375 C 207.066406 31.59375 194.296875 47.003906 194.902344 57.339844 C 194.902344 57.339844 192.472656 40.515625 199.96875 29.769531 C 199.96875 29.769531 184.972656 30.785156 181.523438 27.945312 C 181.523438 27.945312 173.820312 49.636719 176.457031 56.730469 C 176.457031 56.730469 170.984375 38.285156 171.589844 26.527344 C 171.589844 26.527344 162.875 18.824219 152.738281 19.433594 Z M 152.738281 19.433594 " fill-opacity="1" fill-rule="nonzero"/><path fill="#141929" d="M 179.019531 247.820312 C 179.019531 248.265625 178.976562 248.703125 178.890625 249.136719 C 178.804688 249.574219 178.675781 249.996094 178.507812 250.40625 C 178.335938 250.816406 178.128906 251.203125 177.882812 251.574219 C 177.636719 251.941406 177.355469 252.285156 177.042969 252.597656 C 176.730469 252.910156 176.386719 253.191406 176.019531 253.4375 C 175.648438 253.683594 175.261719 253.890625 174.851562 254.0625 C 174.441406 254.230469 174.019531 254.359375 173.582031 254.445312 C 173.148438 254.53125 172.707031 254.578125 172.265625 254.578125 C 171.820312 254.578125 171.382812 254.53125 170.949219 254.445312 C 170.511719 254.359375 170.089844 254.230469 169.679688 254.0625 C 169.269531 253.890625 168.882812 253.683594 168.511719 253.4375 C 168.144531 253.191406 167.800781 252.910156 167.488281 252.597656 C 167.175781 252.285156 166.894531 251.941406 166.648438 251.574219 C 166.402344 251.203125 166.195312 250.816406 166.023438 250.40625 C 165.855469 249.996094 165.726562 249.574219 165.640625 249.136719 C 165.554688 248.703125 165.507812 248.265625 165.507812 247.820312 C 165.507812 247.378906 165.554688 246.9375 165.640625 246.503906 C 165.726562 246.066406 165.855469 245.644531 166.023438 245.234375 C 166.195312 244.824219 166.402344 244.4375 166.648438 244.066406 C 166.894531 243.699219 167.175781 243.355469 167.488281 243.042969 C 167.800781 242.730469 168.144531 242.449219 168.511719 242.203125 C 168.878906 241.957031 169.269531 241.75 169.679688 241.578125 C 170.089844 241.410156 170.511719 241.28125 170.949219 241.195312 C 171.382812 241.109375 171.820312 241.066406 172.265625 241.066406 C 172.707031 241.066406 173.148438 241.109375 173.582031 241.195312 C 174.019531 241.28125 174.441406 241.410156 174.851562 241.578125 C 175.261719 241.75 175.648438 241.957031 176.019531 242.203125 C 176.386719 242.449219 176.730469 242.730469 177.042969 243.042969 C 177.355469 243.355469 177.636719 243.699219 177.882812 244.066406 C 178.128906 244.4375 178.335938 244.824219 178.507812 245.234375 C 178.675781 245.644531 178.804688 246.066406 178.890625 246.503906 C 178.976562 246.9375 179.019531 247.378906 179.019531 247.820312 Z M 179.019531 247.820312 " fill-opacity="1" fill-rule="nonzero"/></svg>