<svg xmlns="http://www.w3.org/2000/svg" xmlns:xlink="http://www.w3.org/1999/xlink" width="1280" zoomAndPan="magnify" viewBox="0 0 960 540.000001" height="720" preserveAspectRatio="xMidYMid meet" version="1.0"><defs><filter x="0%" y="0%" width="100%" height="100%" id="8f9a5b7350"><feColorMatrix values="0 0 0 0 1 0 0 0 0 1 0 0 0 0 1 0 0 0 1 0" color-interpolation-filters="sRGB"/></filter><g/><clipPath id="42bb572414"><path d="M 0.886719 0 L 959.113281 0 L 959.113281 539 L 0.886719 539 Z M 0.886719 0 " clip-rule="nonzero"/></clipPath><clipPath id="50b29c7b86"><path d="M 0.886719 0 L 498 0 L 498 539 L 0.886719 539 Z M 0.886719 0 " clip-rule="nonzero"/></clipPath><mask id="1a68f7f96e"><g filter="url(#8f9a5b7350)"><rect x="-96" width="1152" fill="#000000" y="-54" height="648.000001" fill-opacity="0.13"/></g></mask><clipPath id="6d8de86c18"><path d="M 0.886719 0 L 496.65625 0 L 496.65625 539 L 0.886719 539 Z M 0.886719 0 " clip-rule="nonzero"/></clipPath><clipPath id="e5e98a9532"><path d="M 163 303 L 387 303 L 387 539 L 163 539 Z M 163 303 " clip-rule="nonzero"/></clipPath><clipPath id="1d31667da7"><path d="M 0.886719 299 L 221 299 L 221 539 L 0.886719 539 Z M 0.886719 299 " clip-rule="nonzero"/></clipPath><clipPath id="b149a042fb"><path d="M 0.886719 5 L 463 5 L 463 183 L 0.886719 183 Z M 0.886719 5 " clip-rule="nonzero"/></clipPath><clipPath id="79a5dc8652"><rect x="0" width="498" y="0" height="539"/></clipPath></defs><g clip-path="url(#42bb572414)"><path fill="#ffffff" d="M 0.886719 0 L 959.113281 0 L 959.113281 539 L 0.886719 539 Z M 0.886719 0 " fill-opacity="1" fill-rule="nonzero"/><path fill="#000000" d="M 0.886719 0 L 959.113281 0 L 959.113281 539 L 0.886719 539 Z M 0.886719 0 " fill-opacity="1" fill-rule="nonzero"/></g><g fill="#ff0000" fill-opacity="1"><g transform="translate(244.914167, 256.55581)"><g><path d="M 18.109375 0 L 18.109375 -4.203125 L 6.296875 -4.203125 L 6.296875 -7.078125 L 15.484375 -7.078125 L 15.484375 -11.28125 L 6.296875 -11.28125 L 6.296875 -14.171875 L 18.109375 -14.171875 L 18.109375 -18.359375 L 0.125 -18.359375 L 0.125 -14.171875 L 2.09375 -14.171875 L 2.09375 0 Z M 18.109375 0 "/></g></g></g><g fill="#ff0000" fill-opacity="1"><g transform="translate(267.127914, 256.55581)"><g><path d="M 9.125 -12.59375 C 7.65625 -14.5 6.25 -16.453125 4.78125 -18.359375 L -0.390625 -18.359375 L 6.5 -9.1875 L -0.390625 0 L 4.78125 0 L 9.078125 -5.75 L 13.515625 0 L 18.671875 0 L 11.75 -9.203125 C 14.03125 -12.28125 16.3125 -15.296875 18.625 -18.359375 L 13.4375 -18.359375 Z M 9.125 -12.59375 "/></g></g></g><g fill="#ff0000" fill-opacity="1"><g transform="translate(289.52524, 256.55581)"><g><path d="M 16 -4.453125 L 18.625 -7.078125 L 18.625 -15.734375 L 16 -18.359375 L 0.125 -18.359375 L 0.125 -14.171875 L 14.421875 -14.171875 L 14.421875 -8.65625 L 6.296875 -8.65625 L 6.296875 -12.859375 L 2.09375 -12.859375 L 2.09375 0 L 6.296875 0 L 6.296875 -4.453125 Z M 16 -4.453125 "/></g></g></g><g fill="#ff0000" fill-opacity="1"><g transform="translate(311.738988, 256.55581)"><g><path d="M 18.109375 0 L 18.109375 -4.203125 L 6.296875 -4.203125 L 6.296875 -18.359375 L 0.125 -18.359375 L 0.125 -14.171875 L 2.09375 -14.171875 L 2.09375 0 Z M 18.109375 0 "/></g></g></g><g fill="#ff0000" fill-opacity="1"><g transform="translate(332.903744, 256.55581)"><g><path d="M 17.84375 0 L 20.46875 -2.625 L 20.46875 -15.734375 L 17.84375 -18.359375 L 3.9375 -18.359375 L 1.3125 -15.734375 L 1.3125 -2.625 L 3.9375 0 Z M 16.265625 -4.203125 L 5.515625 -4.203125 L 5.515625 -14.171875 L 16.265625 -14.171875 Z M 16.265625 -4.203125 "/></g></g></g><g fill="#ff0000" fill-opacity="1"><g transform="translate(357.477739, 256.55581)"><g><path d="M 16 -4.453125 L 18.625 -7.078125 L 18.625 -15.734375 L 16 -18.359375 L 0.125 -18.359375 L 0.125 -14.171875 L 14.421875 -14.171875 L 14.421875 -8.65625 L 6.296875 -8.65625 L 6.296875 -12.859375 L 2.09375 -12.859375 L 2.09375 0 L 6.296875 0 L 6.296875 -4.453125 L 10.671875 -4.453125 C 11.984375 -2.96875 13.28125 -1.46875 14.609375 0 L 19.9375 0 C 18.59375 -1.46875 17.3125 -2.96875 16 -4.453125 Z M 16 -4.453125 "/></g></g></g><g fill="#ff0000" fill-opacity="1"><g transform="translate(380.478235, 256.55581)"><g><path d="M 19.15625 0 L 19.15625 -4.203125 L 5.515625 -4.203125 L 5.515625 -14.171875 L 15.609375 -14.171875 L 15.609375 -11.015625 L 6.828125 -11.015625 L 6.828125 -6.828125 L 17.1875 -6.828125 L 19.8125 -9.4375 L 19.8125 -15.734375 L 17.1875 -18.359375 L 3.9375 -18.359375 L 1.3125 -15.734375 L 1.3125 -2.625 L 3.9375 0 Z M 19.15625 0 "/></g></g></g><g fill="#ff0000" fill-opacity="1"><g transform="translate(404.39661, 256.55581)"><g/></g></g><g fill="#ff0000" fill-opacity="1"><g transform="translate(417.693892, 256.55581)"><g><path d="M 17.84375 0 L 20.46875 -2.625 L 20.46875 -15.734375 L 17.84375 -18.359375 L 3.9375 -18.359375 L 1.3125 -15.734375 L 1.3125 -2.625 L 3.9375 0 Z M 16.265625 -4.203125 L 5.515625 -4.203125 L 5.515625 -14.171875 L 16.265625 -14.171875 Z M 16.265625 -4.203125 "/></g></g></g><g fill="#ff0000" fill-opacity="1"><g transform="translate(442.267876, 256.55581)"><g/></g></g><g fill="#ff0000" fill-opacity="1"><g transform="translate(455.565158, 256.55581)"><g><path d="M 19.9375 -2.625 L 19.9375 -18.359375 L 15.734375 -18.359375 L 15.734375 -4.203125 L 6.296875 -4.203125 L 6.296875 -18.359375 L 0.125 -18.359375 L 0.125 -14.171875 L 2.09375 -14.171875 L 2.09375 -2.625 L 4.71875 0 L 17.3125 0 Z M 19.9375 -2.625 "/></g></g></g><g fill="#ff0000" fill-opacity="1"><g transform="translate(479.614645, 256.55581)"><g><path d="M 18.625 0 L 18.625 -18.359375 L 14.421875 -18.359375 L 14.421875 -7.078125 L 6.296875 -18.359375 L 0.125 -18.359375 L 0.125 -14.171875 L 2.09375 -14.171875 L 2.09375 0 L 6.296875 0 L 6.296875 -11.25 L 14.421875 0 Z M 18.625 0 "/></g></g></g><g fill="#ff0000" fill-opacity="1"><g transform="translate(502.352894, 256.55581)"><g><path d="M 5.515625 0 L 5.515625 -18.359375 L 1.3125 -18.359375 L 1.3125 0 Z M 5.515625 0 "/></g></g></g><g fill="#ff0000" fill-opacity="1"><g transform="translate(511.978684, 256.55581)"><g><path d="M 9.078125 0 L 13.796875 0 L 22.375 -18.359375 L 17.78125 -18.359375 L 14.109375 -10.515625 L 11.4375 -3.9375 L 8.765625 -10.515625 L 5.109375 -18.359375 L 0.265625 -18.359375 L 0.265625 -14.171875 L 2.46875 -14.171875 Z M 9.078125 0 "/></g></g></g><g fill="#ff0000" fill-opacity="1"><g transform="translate(537.418091, 256.55581)"><g><path d="M 19.15625 0 L 19.15625 -4.203125 L 5.515625 -4.203125 L 5.515625 -14.171875 L 15.609375 -14.171875 L 15.609375 -11.015625 L 6.828125 -11.015625 L 6.828125 -6.828125 L 17.1875 -6.828125 L 19.8125 -9.4375 L 19.8125 -15.734375 L 17.1875 -18.359375 L 3.9375 -18.359375 L 1.3125 -15.734375 L 1.3125 -2.625 L 3.9375 0 Z M 19.15625 0 "/></g></g></g><g fill="#ff0000" fill-opacity="1"><g transform="translate(561.336467, 256.55581)"><g><path d="M 16 -4.453125 L 18.625 -7.078125 L 18.625 -15.734375 L 16 -18.359375 L 0.125 -18.359375 L 0.125 -14.171875 L 14.421875 -14.171875 L 14.421875 -8.65625 L 6.296875 -8.65625 L 6.296875 -12.859375 L 2.09375 -12.859375 L 2.09375 0 L 6.296875 0 L 6.296875 -4.453125 L 10.671875 -4.453125 C 11.984375 -2.96875 13.28125 -1.46875 14.609375 0 L 19.9375 0 C 18.59375 -1.46875 17.3125 -2.96875 16 -4.453125 Z M 16 -4.453125 "/></g></g></g><g fill="#ff0000" fill-opacity="1"><g transform="translate(584.336963, 256.55581)"><g><path d="M 16.140625 0 L 18.75 -2.625 L 18.75 -8.65625 L 16.140625 -11.28125 L 5.515625 -11.28125 L 5.515625 -14.171875 L 18.75 -14.171875 L 18.75 -18.359375 L 3.9375 -18.359375 L 1.3125 -15.734375 L 1.3125 -9.703125 L 3.9375 -7.078125 L 14.5625 -7.078125 L 14.5625 -4.203125 L 1.3125 -4.203125 L 1.3125 0 Z M 16.140625 0 "/></g></g></g><g fill="#ff0000" fill-opacity="1"><g transform="translate(607.206347, 256.55581)"><g><path d="M 17.84375 0 L 20.46875 -2.625 L 20.46875 -15.734375 L 17.84375 -18.359375 L 3.9375 -18.359375 L 1.3125 -15.734375 L 1.3125 -2.625 L 3.9375 0 Z M 16.265625 -4.203125 L 5.515625 -4.203125 L 5.515625 -14.171875 L 16.265625 -14.171875 Z M 16.265625 -4.203125 "/></g></g></g><g fill="#ff0000" fill-opacity="1"><g transform="translate(631.780331, 256.55581)"><g/></g></g><g fill="#ff0000" fill-opacity="1"><g transform="translate(645.07759, 256.55581)"><g><path d="M 16 0 L 18.625 -2.625 L 18.625 -15.734375 L 16 -18.359375 L 0.125 -18.359375 L 0.125 -14.171875 L 14.421875 -14.171875 L 14.421875 -4.203125 L 6.296875 -4.203125 L 6.296875 -12.859375 L 2.09375 -12.859375 L 2.09375 0 Z M 16 0 "/></g></g></g><g fill="#ff0000" fill-opacity="1"><g transform="translate(667.815861, 256.55581)"><g><path d="M 17.84375 0 L 20.46875 -2.625 L 20.46875 -15.734375 L 17.84375 -18.359375 L 3.9375 -18.359375 L 1.3125 -15.734375 L 1.3125 -2.625 L 3.9375 0 Z M 16.265625 -4.203125 L 5.515625 -4.203125 L 5.515625 -14.171875 L 16.265625 -14.171875 Z M 16.265625 -4.203125 "/></g></g></g><g fill="#ff0000" fill-opacity="1"><g transform="translate(692.389844, 256.55581)"><g><path d="M 16.140625 0 L 18.75 -2.625 L 18.75 -8.65625 L 16.140625 -11.28125 L 5.515625 -11.28125 L 5.515625 -14.171875 L 18.75 -14.171875 L 18.75 -18.359375 L 3.9375 -18.359375 L 1.3125 -15.734375 L 1.3125 -9.703125 L 3.9375 -7.078125 L 14.5625 -7.078125 L 14.5625 -4.203125 L 1.3125 -4.203125 L 1.3125 0 Z M 16.140625 0 "/></g></g></g><g fill="#00ffff" fill-opacity="1"><g transform="translate(247.51826, 256.23607)"><g><path d="M 18.109375 0 L 18.109375 -4.203125 L 6.296875 -4.203125 L 6.296875 -7.078125 L 15.484375 -7.078125 L 15.484375 -11.28125 L 6.296875 -11.28125 L 6.296875 -14.171875 L 18.109375 -14.171875 L 18.109375 -18.359375 L 0.125 -18.359375 L 0.125 -14.171875 L 2.09375 -14.171875 L 2.09375 0 Z M 18.109375 0 "/></g></g></g><g fill="#00ffff" fill-opacity="1"><g transform="translate(269.732007, 256.23607)"><g><path d="M 9.125 -12.59375 C 7.65625 -14.5 6.25 -16.453125 4.78125 -18.359375 L -0.390625 -18.359375 L 6.5 -9.1875 L -0.390625 0 L 4.78125 0 L 9.078125 -5.75 L 13.515625 0 L 18.671875 0 L 11.75 -9.203125 C 14.03125 -12.28125 16.3125 -15.296875 18.625 -18.359375 L 13.4375 -18.359375 Z M 9.125 -12.59375 "/></g></g></g><g fill="#00ffff" fill-opacity="1"><g transform="translate(292.129333, 256.23607)"><g><path d="M 16 -4.453125 L 18.625 -7.078125 L 18.625 -15.734375 L 16 -18.359375 L 0.125 -18.359375 L 0.125 -14.171875 L 14.421875 -14.171875 L 14.421875 -8.65625 L 6.296875 -8.65625 L 6.296875 -12.859375 L 2.09375 -12.859375 L 2.09375 0 L 6.296875 0 L 6.296875 -4.453125 Z M 16 -4.453125 "/></g></g></g><g fill="#00ffff" fill-opacity="1"><g transform="translate(314.34308, 256.23607)"><g><path d="M 18.109375 0 L 18.109375 -4.203125 L 6.296875 -4.203125 L 6.296875 -18.359375 L 0.125 -18.359375 L 0.125 -14.171875 L 2.09375 -14.171875 L 2.09375 0 Z M 18.109375 0 "/></g></g></g><g fill="#00ffff" fill-opacity="1"><g transform="translate(335.507837, 256.23607)"><g><path d="M 17.84375 0 L 20.46875 -2.625 L 20.46875 -15.734375 L 17.84375 -18.359375 L 3.9375 -18.359375 L 1.3125 -15.734375 L 1.3125 -2.625 L 3.9375 0 Z M 16.265625 -4.203125 L 5.515625 -4.203125 L 5.515625 -14.171875 L 16.265625 -14.171875 Z M 16.265625 -4.203125 "/></g></g></g><g fill="#00ffff" fill-opacity="1"><g transform="translate(360.081831, 256.23607)"><g><path d="M 16 -4.453125 L 18.625 -7.078125 L 18.625 -15.734375 L 16 -18.359375 L 0.125 -18.359375 L 0.125 -14.171875 L 14.421875 -14.171875 L 14.421875 -8.65625 L 6.296875 -8.65625 L 6.296875 -12.859375 L 2.09375 -12.859375 L 2.09375 0 L 6.296875 0 L 6.296875 -4.453125 L 10.671875 -4.453125 C 11.984375 -2.96875 13.28125 -1.46875 14.609375 0 L 19.9375 0 C 18.59375 -1.46875 17.3125 -2.96875 16 -4.453125 Z M 16 -4.453125 "/></g></g></g><g fill="#00ffff" fill-opacity="1"><g transform="translate(383.082328, 256.23607)"><g><path d="M 19.15625 0 L 19.15625 -4.203125 L 5.515625 -4.203125 L 5.515625 -14.171875 L 15.609375 -14.171875 L 15.609375 -11.015625 L 6.828125 -11.015625 L 6.828125 -6.828125 L 17.1875 -6.828125 L 19.8125 -9.4375 L 19.8125 -15.734375 L 17.1875 -18.359375 L 3.9375 -18.359375 L 1.3125 -15.734375 L 1.3125 -2.625 L 3.9375 0 Z M 19.15625 0 "/></g></g></g><g fill="#00ffff" fill-opacity="1"><g transform="translate(420.297985, 256.23607)"><g><path d="M 17.84375 0 L 20.46875 -2.625 L 20.46875 -15.734375 L 17.84375 -18.359375 L 3.9375 -18.359375 L 1.3125 -15.734375 L 1.3125 -2.625 L 3.9375 0 Z M 16.265625 -4.203125 L 5.515625 -4.203125 L 5.515625 -14.171875 L 16.265625 -14.171875 Z M 16.265625 -4.203125 "/></g></g></g><g fill="#00ffff" fill-opacity="1"><g transform="translate(444.871968, 256.23607)"><g/></g></g><g fill="#00ffff" fill-opacity="1"><g transform="translate(458.16925, 256.23607)"><g><path d="M 19.9375 -2.625 L 19.9375 -18.359375 L 15.734375 -18.359375 L 15.734375 -4.203125 L 6.296875 -4.203125 L 6.296875 -18.359375 L 0.125 -18.359375 L 0.125 -14.171875 L 2.09375 -14.171875 L 2.09375 -2.625 L 4.71875 0 L 17.3125 0 Z M 19.9375 -2.625 "/></g></g></g><g fill="#00ffff" fill-opacity="1"><g transform="translate(482.218738, 256.23607)"><g><path d="M 18.625 0 L 18.625 -18.359375 L 14.421875 -18.359375 L 14.421875 -7.078125 L 6.296875 -18.359375 L 0.125 -18.359375 L 0.125 -14.171875 L 2.09375 -14.171875 L 2.09375 0 L 6.296875 0 L 6.296875 -11.25 L 14.421875 0 Z M 18.625 0 "/></g></g></g><g fill="#00ffff" fill-opacity="1"><g transform="translate(504.956987, 256.23607)"><g><path d="M 5.515625 0 L 5.515625 -18.359375 L 1.3125 -18.359375 L 1.3125 0 Z M 5.515625 0 "/></g></g></g><g fill="#00ffff" fill-opacity="1"><g transform="translate(514.582776, 256.23607)"><g><path d="M 9.078125 0 L 13.796875 0 L 22.375 -18.359375 L 17.78125 -18.359375 L 14.109375 -10.515625 L 11.4375 -3.9375 L 8.765625 -10.515625 L 5.109375 -18.359375 L 0.265625 -18.359375 L 0.265625 -14.171875 L 2.46875 -14.171875 Z M 9.078125 0 "/></g></g></g><g fill="#00ffff" fill-opacity="1"><g transform="translate(540.022184, 256.23607)"><g><path d="M 19.15625 0 L 19.15625 -4.203125 L 5.515625 -4.203125 L 5.515625 -14.171875 L 15.609375 -14.171875 L 15.609375 -11.015625 L 6.828125 -11.015625 L 6.828125 -6.828125 L 17.1875 -6.828125 L 19.8125 -9.4375 L 19.8125 -15.734375 L 17.1875 -18.359375 L 3.9375 -18.359375 L 1.3125 -15.734375 L 1.3125 -2.625 L 3.9375 0 Z M 19.15625 0 "/></g></g></g><g fill="#00ffff" fill-opacity="1"><g transform="translate(563.940559, 256.23607)"><g><path d="M 16 -4.453125 L 18.625 -7.078125 L 18.625 -15.734375 L 16 -18.359375 L 0.125 -18.359375 L 0.125 -14.171875 L 14.421875 -14.171875 L 14.421875 -8.65625 L 6.296875 -8.65625 L 6.296875 -12.859375 L 2.09375 -12.859375 L 2.09375 0 L 6.296875 0 L 6.296875 -4.453125 L 10.671875 -4.453125 C 11.984375 -2.96875 13.28125 -1.46875 14.609375 0 L 19.9375 0 C 18.59375 -1.46875 17.3125 -2.96875 16 -4.453125 Z M 16 -4.453125 "/></g></g></g><g fill="#00ffff" fill-opacity="1"><g transform="translate(586.941056, 256.23607)"><g><path d="M 16.140625 0 L 18.75 -2.625 L 18.75 -8.65625 L 16.140625 -11.28125 L 5.515625 -11.28125 L 5.515625 -14.171875 L 18.75 -14.171875 L 18.75 -18.359375 L 3.9375 -18.359375 L 1.3125 -15.734375 L 1.3125 -9.703125 L 3.9375 -7.078125 L 14.5625 -7.078125 L 14.5625 -4.203125 L 1.3125 -4.203125 L 1.3125 0 Z M 16.140625 0 "/></g></g></g><g fill="#00ffff" fill-opacity="1"><g transform="translate(609.81044, 256.23607)"><g><path d="M 17.84375 0 L 20.46875 -2.625 L 20.46875 -15.734375 L 17.84375 -18.359375 L 3.9375 -18.359375 L 1.3125 -15.734375 L 1.3125 -2.625 L 3.9375 0 Z M 16.265625 -4.203125 L 5.515625 -4.203125 L 5.515625 -14.171875 L 16.265625 -14.171875 Z M 16.265625 -4.203125 "/></g></g></g><g fill="#00ffff" fill-opacity="1"><g transform="translate(634.384423, 256.23607)"><g/></g></g><g fill="#00ffff" fill-opacity="1"><g transform="translate(647.681682, 256.23607)"><g><path d="M 16 0 L 18.625 -2.625 L 18.625 -15.734375 L 16 -18.359375 L 0.125 -18.359375 L 0.125 -14.171875 L 14.421875 -14.171875 L 14.421875 -4.203125 L 6.296875 -4.203125 L 6.296875 -12.859375 L 2.09375 -12.859375 L 2.09375 0 Z M 16 0 "/></g></g></g><g fill="#00ffff" fill-opacity="1"><g transform="translate(670.419953, 256.23607)"><g><path d="M 17.84375 0 L 20.46875 -2.625 L 20.46875 -15.734375 L 17.84375 -18.359375 L 3.9375 -18.359375 L 1.3125 -15.734375 L 1.3125 -2.625 L 3.9375 0 Z M 16.265625 -4.203125 L 5.515625 -4.203125 L 5.515625 -14.171875 L 16.265625 -14.171875 Z M 16.265625 -4.203125 "/></g></g></g><g fill="#00ffff" fill-opacity="1"><g transform="translate(694.993937, 256.23607)"><g><path d="M 16.140625 0 L 18.75 -2.625 L 18.75 -8.65625 L 16.140625 -11.28125 L 5.515625 -11.28125 L 5.515625 -14.171875 L 18.75 -14.171875 L 18.75 -18.359375 L 3.9375 -18.359375 L 1.3125 -15.734375 L 1.3125 -9.703125 L 3.9375 -7.078125 L 14.5625 -7.078125 L 14.5625 -4.203125 L 1.3125 -4.203125 L 1.3125 0 Z M 16.140625 0 "/></g></g></g><g fill="#ffffff" fill-opacity="1"><g transform="translate(246.216213, 256.39594)"><g><path d="M 18.109375 0 L 18.109375 -4.203125 L 6.296875 -4.203125 L 6.296875 -7.078125 L 15.484375 -7.078125 L 15.484375 -11.28125 L 6.296875 -11.28125 L 6.296875 -14.171875 L 18.109375 -14.171875 L 18.109375 -18.359375 L 0.125 -18.359375 L 0.125 -14.171875 L 2.09375 -14.171875 L 2.09375 0 Z M 18.109375 0 "/></g></g></g><g fill="#ffffff" fill-opacity="1"><g transform="translate(268.429961, 256.39594)"><g><path d="M 9.125 -12.59375 C 7.65625 -14.5 6.25 -16.453125 4.78125 -18.359375 L -0.390625 -18.359375 L 6.5 -9.1875 L -0.390625 0 L 4.78125 0 L 9.078125 -5.75 L 13.515625 0 L 18.671875 0 L 11.75 -9.203125 C 14.03125 -12.28125 16.3125 -15.296875 18.625 -18.359375 L 13.4375 -18.359375 Z M 9.125 -12.59375 "/></g></g></g><g fill="#ffffff" fill-opacity="1"><g transform="translate(290.827286, 256.39594)"><g><path d="M 16 -4.453125 L 18.625 -7.078125 L 18.625 -15.734375 L 16 -18.359375 L 0.125 -18.359375 L 0.125 -14.171875 L 14.421875 -14.171875 L 14.421875 -8.65625 L 6.296875 -8.65625 L 6.296875 -12.859375 L 2.09375 -12.859375 L 2.09375 0 L 6.296875 0 L 6.296875 -4.453125 Z M 16 -4.453125 "/></g></g></g><g fill="#ffffff" fill-opacity="1"><g transform="translate(313.041034, 256.39594)"><g><path d="M 18.109375 0 L 18.109375 -4.203125 L 6.296875 -4.203125 L 6.296875 -18.359375 L 0.125 -18.359375 L 0.125 -14.171875 L 2.09375 -14.171875 L 2.09375 0 Z M 18.109375 0 "/></g></g></g><g fill="#ffffff" fill-opacity="1"><g transform="translate(334.20579, 256.39594)"><g><path d="M 17.84375 0 L 20.46875 -2.625 L 20.46875 -15.734375 L 17.84375 -18.359375 L 3.9375 -18.359375 L 1.3125 -15.734375 L 1.3125 -2.625 L 3.9375 0 Z M 16.265625 -4.203125 L 5.515625 -4.203125 L 5.515625 -14.171875 L 16.265625 -14.171875 Z M 16.265625 -4.203125 "/></g></g></g><g fill="#ffffff" fill-opacity="1"><g transform="translate(358.779785, 256.39594)"><g><path d="M 16 -4.453125 L 18.625 -7.078125 L 18.625 -15.734375 L 16 -18.359375 L 0.125 -18.359375 L 0.125 -14.171875 L 14.421875 -14.171875 L 14.421875 -8.65625 L 6.296875 -8.65625 L 6.296875 -12.859375 L 2.09375 -12.859375 L 2.09375 0 L 6.296875 0 L 6.296875 -4.453125 L 10.671875 -4.453125 C 11.984375 -2.96875 13.28125 -1.46875 14.609375 0 L 19.9375 0 C 18.59375 -1.46875 17.3125 -2.96875 16 -4.453125 Z M 16 -4.453125 "/></g></g></g><g fill="#ffffff" fill-opacity="1"><g transform="translate(381.780281, 256.39594)"><g><path d="M 19.15625 0 L 19.15625 -4.203125 L 5.515625 -4.203125 L 5.515625 -14.171875 L 15.609375 -14.171875 L 15.609375 -11.015625 L 6.828125 -11.015625 L 6.828125 -6.828125 L 17.1875 -6.828125 L 19.8125 -9.4375 L 19.8125 -15.734375 L 17.1875 -18.359375 L 3.9375 -18.359375 L 1.3125 -15.734375 L 1.3125 -2.625 L 3.9375 0 Z M 19.15625 0 "/></g></g></g><g fill="#ffffff" fill-opacity="1"><g transform="translate(405.698656, 256.39594)"><g/></g></g><g fill="#ffffff" fill-opacity="1"><g transform="translate(418.995939, 256.39594)"><g><path d="M 17.84375 0 L 20.46875 -2.625 L 20.46875 -15.734375 L 17.84375 -18.359375 L 3.9375 -18.359375 L 1.3125 -15.734375 L 1.3125 -2.625 L 3.9375 0 Z M 16.265625 -4.203125 L 5.515625 -4.203125 L 5.515625 -14.171875 L 16.265625 -14.171875 Z M 16.265625 -4.203125 "/></g></g></g><g fill="#ffffff" fill-opacity="1"><g transform="translate(443.569922, 256.39594)"><g/></g></g><g fill="#ffffff" fill-opacity="1"><g transform="translate(456.867204, 256.39594)"><g><path d="M 19.9375 -2.625 L 19.9375 -18.359375 L 15.734375 -18.359375 L 15.734375 -4.203125 L 6.296875 -4.203125 L 6.296875 -18.359375 L 0.125 -18.359375 L 0.125 -14.171875 L 2.09375 -14.171875 L 2.09375 -2.625 L 4.71875 0 L 17.3125 0 Z M 19.9375 -2.625 "/></g></g></g><g fill="#ffffff" fill-opacity="1"><g transform="translate(480.916692, 256.39594)"><g><path d="M 18.625 0 L 18.625 -18.359375 L 14.421875 -18.359375 L 14.421875 -7.078125 L 6.296875 -18.359375 L 0.125 -18.359375 L 0.125 -14.171875 L 2.09375 -14.171875 L 2.09375 0 L 6.296875 0 L 6.296875 -11.25 L 14.421875 0 Z M 18.625 0 "/></g></g></g><g fill="#ffffff" fill-opacity="1"><g transform="translate(503.65494, 256.39594)"><g><path d="M 5.515625 0 L 5.515625 -18.359375 L 1.3125 -18.359375 L 1.3125 0 Z M 5.515625 0 "/></g></g></g><g fill="#ffffff" fill-opacity="1"><g transform="translate(513.28073, 256.39594)"><g><path d="M 9.078125 0 L 13.796875 0 L 22.375 -18.359375 L 17.78125 -18.359375 L 14.109375 -10.515625 L 11.4375 -3.9375 L 8.765625 -10.515625 L 5.109375 -18.359375 L 0.265625 -18.359375 L 0.265625 -14.171875 L 2.46875 -14.171875 Z M 9.078125 0 "/></g></g></g><g fill="#ffffff" fill-opacity="1"><g transform="translate(538.720138, 256.39594)"><g><path d="M 19.15625 0 L 19.15625 -4.203125 L 5.515625 -4.203125 L 5.515625 -14.171875 L 15.609375 -14.171875 L 15.609375 -11.015625 L 6.828125 -11.015625 L 6.828125 -6.828125 L 17.1875 -6.828125 L 19.8125 -9.4375 L 19.8125 -15.734375 L 17.1875 -18.359375 L 3.9375 -18.359375 L 1.3125 -15.734375 L 1.3125 -2.625 L 3.9375 0 Z M 19.15625 0 "/></g></g></g><g fill="#ffffff" fill-opacity="1"><g transform="translate(562.638513, 256.39594)"><g><path d="M 16 -4.453125 L 18.625 -7.078125 L 18.625 -15.734375 L 16 -18.359375 L 0.125 -18.359375 L 0.125 -14.171875 L 14.421875 -14.171875 L 14.421875 -8.65625 L 6.296875 -8.65625 L 6.296875 -12.859375 L 2.09375 -12.859375 L 2.09375 0 L 6.296875 0 L 6.296875 -4.453125 L 10.671875 -4.453125 C 11.984375 -2.96875 13.28125 -1.46875 14.609375 0 L 19.9375 0 C 18.59375 -1.46875 17.3125 -2.96875 16 -4.453125 Z M 16 -4.453125 "/></g></g></g><g fill="#ffffff" fill-opacity="1"><g transform="translate(585.639009, 256.39594)"><g><path d="M 16.140625 0 L 18.75 -2.625 L 18.75 -8.65625 L 16.140625 -11.28125 L 5.515625 -11.28125 L 5.515625 -14.171875 L 18.75 -14.171875 L 18.75 -18.359375 L 3.9375 -18.359375 L 1.3125 -15.734375 L 1.3125 -9.703125 L 3.9375 -7.078125 L 14.5625 -7.078125 L 14.5625 -4.203125 L 1.3125 -4.203125 L 1.3125 0 Z M 16.140625 0 "/></g></g></g><g fill="#ffffff" fill-opacity="1"><g transform="translate(608.508394, 256.39594)"><g><path d="M 17.84375 0 L 20.46875 -2.625 L 20.46875 -15.734375 L 17.84375 -18.359375 L 3.9375 -18.359375 L 1.3125 -15.734375 L 1.3125 -2.625 L 3.9375 0 Z M 16.265625 -4.203125 L 5.515625 -4.203125 L 5.515625 -14.171875 L 16.265625 -14.171875 Z M 16.265625 -4.203125 "/></g></g></g><g fill="#ffffff" fill-opacity="1"><g transform="translate(633.082377, 256.39594)"><g/></g></g><g fill="#ffffff" fill-opacity="1"><g transform="translate(646.379636, 256.39594)"><g><path d="M 16 0 L 18.625 -2.625 L 18.625 -15.734375 L 16 -18.359375 L 0.125 -18.359375 L 0.125 -14.171875 L 14.421875 -14.171875 L 14.421875 -4.203125 L 6.296875 -4.203125 L 6.296875 -12.859375 L 2.09375 -12.859375 L 2.09375 0 Z M 16 0 "/></g></g></g><g fill="#ffffff" fill-opacity="1"><g transform="translate(669.117907, 256.39594)"><g><path d="M 17.84375 0 L 20.46875 -2.625 L 20.46875 -15.734375 L 17.84375 -18.359375 L 3.9375 -18.359375 L 1.3125 -15.734375 L 1.3125 -2.625 L 3.9375 0 Z M 16.265625 -4.203125 L 5.515625 -4.203125 L 5.515625 -14.171875 L 16.265625 -14.171875 Z M 16.265625 -4.203125 "/></g></g></g><g fill="#ffffff" fill-opacity="1"><g transform="translate(693.69189, 256.39594)"><g><path d="M 16.140625 0 L 18.75 -2.625 L 18.75 -8.65625 L 16.140625 -11.28125 L 5.515625 -11.28125 L 5.515625 -14.171875 L 18.75 -14.171875 L 18.75 -18.359375 L 3.9375 -18.359375 L 1.3125 -15.734375 L 1.3125 -9.703125 L 3.9375 -7.078125 L 14.5625 -7.078125 L 14.5625 -4.203125 L 1.3125 -4.203125 L 1.3125 0 Z M 16.140625 0 "/></g></g></g><g fill="#ff0000" fill-opacity="1"><g transform="translate(229.590981, 283.505902)"><g><path d="M 17.1875 0 L 19.8125 -2.625 L 19.8125 -18.359375 L 6.5625 -18.359375 L 6.5625 -14.171875 L 15.609375 -14.171875 L 15.609375 -4.203125 L 5.515625 -4.203125 L 5.515625 -6.828125 L 1.3125 -6.828125 L 1.3125 -2.625 L 3.9375 0 Z M 17.1875 0 "/></g></g></g><g fill="#ff0000" fill-opacity="1"><g transform="translate(253.509351, 283.505902)"><g><path d="M 17.84375 0 L 20.46875 -2.625 L 20.46875 -15.734375 L 17.84375 -18.359375 L 3.9375 -18.359375 L 1.3125 -15.734375 L 1.3125 -2.625 L 3.9375 0 Z M 16.265625 -4.203125 L 5.515625 -4.203125 L 5.515625 -14.171875 L 16.265625 -14.171875 Z M 16.265625 -4.203125 "/></g></g></g><g fill="#ff0000" fill-opacity="1"><g transform="translate(278.083339, 283.505902)"><g><path d="M 17.1875 0 L 19.8125 -2.625 L 19.8125 -11.28125 L 11.15625 -11.28125 L 11.15625 -7.078125 L 15.609375 -7.078125 L 15.609375 -4.203125 L 5.515625 -4.203125 L 5.515625 -14.171875 L 17.84375 -14.171875 L 17.84375 -18.359375 L 3.9375 -18.359375 L 1.3125 -15.734375 L 1.3125 -2.625 L 3.9375 0 Z M 17.1875 0 "/></g></g></g><g fill="#ff0000" fill-opacity="1"><g transform="translate(302.001708, 283.505902)"><g><path d="M 17.84375 0 L 20.46875 -2.625 L 20.46875 -15.734375 L 17.84375 -18.359375 L 3.9375 -18.359375 L 1.3125 -15.734375 L 1.3125 -2.625 L 3.9375 0 Z M 16.265625 -4.203125 L 5.515625 -4.203125 L 5.515625 -14.171875 L 16.265625 -14.171875 Z M 16.265625 -4.203125 "/></g></g></g><g fill="#ff0000" fill-opacity="1"><g transform="translate(326.575697, 283.505902)"><g><path d="M 16.140625 0 L 18.75 -2.625 L 18.75 -8.65625 L 16.140625 -11.28125 L 5.515625 -11.28125 L 5.515625 -14.171875 L 18.75 -14.171875 L 18.75 -18.359375 L 3.9375 -18.359375 L 1.3125 -15.734375 L 1.3125 -9.703125 L 3.9375 -7.078125 L 14.5625 -7.078125 L 14.5625 -4.203125 L 1.3125 -4.203125 L 1.3125 0 Z M 16.140625 0 "/></g></g></g><g fill="#ff0000" fill-opacity="1"><g transform="translate(349.445081, 283.505902)"><g/></g></g><g fill="#ff0000" fill-opacity="1"><g transform="translate(362.742363, 283.505902)"><g><path d="M 19.15625 0 L 19.15625 -4.203125 L 5.515625 -4.203125 L 5.515625 -14.171875 L 15.609375 -14.171875 L 15.609375 -11.546875 L 19.8125 -11.546875 L 19.8125 -15.734375 L 17.1875 -18.359375 L 3.9375 -18.359375 L 1.3125 -15.734375 L 1.3125 -2.625 L 3.9375 0 Z M 19.15625 0 "/></g></g></g><g fill="#ff0000" fill-opacity="1"><g transform="translate(386.660739, 283.505902)"><g><path d="M 17.84375 0 L 20.46875 -2.625 L 20.46875 -15.734375 L 17.84375 -18.359375 L 3.9375 -18.359375 L 1.3125 -15.734375 L 1.3125 -2.625 L 3.9375 0 Z M 16.265625 -4.203125 L 5.515625 -4.203125 L 5.515625 -14.171875 L 16.265625 -14.171875 Z M 16.265625 -4.203125 "/></g></g></g><g fill="#ff0000" fill-opacity="1"><g transform="translate(411.234722, 283.505902)"><g><path d="M 6.171875 -18.359375 L 0.125 -18.359375 L 0.125 -14.171875 L 2.09375 -14.171875 L 2.09375 0 L 6.296875 0 L 6.296875 -11.203125 C 8.1875 -8.625 10.078125 -6.0625 11.984375 -3.484375 C 13.875 -6.0625 15.796875 -8.625 17.703125 -11.203125 L 17.703125 0 L 21.90625 0 L 21.90625 -18.359375 L 17.84375 -18.359375 C 15.875 -15.734375 13.9375 -13.09375 11.984375 -10.46875 Z M 6.171875 -18.359375 "/></g></g></g><g fill="#ff0000" fill-opacity="1"><g transform="translate(437.251079, 283.505902)"><g><path d="M 17.84375 0 L 20.46875 -2.625 L 20.46875 -15.734375 L 17.84375 -18.359375 L 3.9375 -18.359375 L 1.3125 -15.734375 L 1.3125 -2.625 L 3.9375 0 Z M 16.265625 -4.203125 L 5.515625 -4.203125 L 5.515625 -14.171875 L 16.265625 -14.171875 Z M 16.265625 -4.203125 "/></g></g></g><g fill="#ff0000" fill-opacity="1"><g transform="translate(461.825063, 283.505902)"><g/></g></g><g fill="#ff0000" fill-opacity="1"><g transform="translate(475.122345, 283.505902)"><g><path d="M 18.625 0 L 18.625 -18.359375 L 14.421875 -18.359375 L 14.421875 -7.078125 L 6.296875 -18.359375 L 0.125 -18.359375 L 0.125 -14.171875 L 2.09375 -14.171875 L 2.09375 0 L 6.296875 0 L 6.296875 -11.25 L 14.421875 0 Z M 18.625 0 "/></g></g></g><g fill="#ff0000" fill-opacity="1"><g transform="translate(497.860594, 283.505902)"><g><path d="M 19.9375 -2.625 L 19.9375 -18.359375 L 15.734375 -18.359375 L 15.734375 -4.203125 L 6.296875 -4.203125 L 6.296875 -18.359375 L 0.125 -18.359375 L 0.125 -14.171875 L 2.09375 -14.171875 L 2.09375 -2.625 L 4.71875 0 L 17.3125 0 Z M 19.9375 -2.625 "/></g></g></g><g fill="#ff0000" fill-opacity="1"><g transform="translate(521.910081, 283.505902)"><g><path d="M 18.625 0 L 18.625 -18.359375 L 14.421875 -18.359375 L 14.421875 -7.078125 L 6.296875 -18.359375 L 0.125 -18.359375 L 0.125 -14.171875 L 2.09375 -14.171875 L 2.09375 0 L 6.296875 0 L 6.296875 -11.25 L 14.421875 0 Z M 18.625 0 "/></g></g></g><g fill="#ff0000" fill-opacity="1"><g transform="translate(544.64833, 283.505902)"><g><path d="M 19.15625 0 L 19.15625 -4.203125 L 5.515625 -4.203125 L 5.515625 -14.171875 L 15.609375 -14.171875 L 15.609375 -11.546875 L 19.8125 -11.546875 L 19.8125 -15.734375 L 17.1875 -18.359375 L 3.9375 -18.359375 L 1.3125 -15.734375 L 1.3125 -2.625 L 3.9375 0 Z M 19.15625 0 "/></g></g></g><g fill="#ff0000" fill-opacity="1"><g transform="translate(568.566705, 283.505902)"><g><path d="M 19.8125 0 L 19.8125 -15.734375 L 17.1875 -18.359375 L 1.96875 -18.359375 L 1.96875 -14.171875 L 15.609375 -14.171875 L 15.609375 -11.28125 L 3.9375 -11.28125 L 1.3125 -8.65625 L 1.3125 -2.625 L 3.9375 0 L 14.296875 0 L 14.296875 -4.203125 L 5.515625 -4.203125 L 5.515625 -7.078125 L 15.609375 -7.078125 L 15.609375 -2.625 L 18.234375 0 Z M 19.8125 0 "/></g></g></g><g fill="#ff0000" fill-opacity="1"><g transform="translate(592.48508, 283.505902)"><g/></g></g><g fill="#ff0000" fill-opacity="1"><g transform="translate(605.782363, 283.505902)"><g><path d="M 19.8125 0 L 19.8125 -15.734375 L 17.1875 -18.359375 L 1.96875 -18.359375 L 1.96875 -14.171875 L 15.609375 -14.171875 L 15.609375 -11.28125 L 3.9375 -11.28125 L 1.3125 -8.65625 L 1.3125 -2.625 L 3.9375 0 L 14.296875 0 L 14.296875 -4.203125 L 5.515625 -4.203125 L 5.515625 -7.078125 L 15.609375 -7.078125 L 15.609375 -2.625 L 18.234375 0 Z M 19.8125 0 "/></g></g></g><g fill="#ff0000" fill-opacity="1"><g transform="translate(629.700715, 283.505902)"><g><path d="M 18.625 0 L 18.625 -18.359375 L 14.421875 -18.359375 L 14.421875 -7.078125 L 6.296875 -18.359375 L 0.125 -18.359375 L 0.125 -14.171875 L 2.09375 -14.171875 L 2.09375 0 L 6.296875 0 L 6.296875 -11.25 L 14.421875 0 Z M 18.625 0 "/></g></g></g><g fill="#ff0000" fill-opacity="1"><g transform="translate(652.438986, 283.505902)"><g><path d="M 11.5625 0 L 11.5625 -14.171875 L 18.8125 -14.171875 L 18.8125 -18.359375 L 0.125 -18.359375 L 0.125 -14.171875 L 7.375 -14.171875 L 7.375 0 Z M 11.5625 0 "/></g></g></g><g fill="#ff0000" fill-opacity="1"><g transform="translate(674.180675, 283.505902)"><g><path d="M 19.15625 0 L 19.15625 -4.203125 L 5.515625 -4.203125 L 5.515625 -14.171875 L 15.609375 -14.171875 L 15.609375 -11.015625 L 6.828125 -11.015625 L 6.828125 -6.828125 L 17.1875 -6.828125 L 19.8125 -9.4375 L 19.8125 -15.734375 L 17.1875 -18.359375 L 3.9375 -18.359375 L 1.3125 -15.734375 L 1.3125 -2.625 L 3.9375 0 Z M 19.15625 0 "/></g></g></g><g fill="#ff0000" fill-opacity="1"><g transform="translate(698.099027, 283.505902)"><g><path d="M 16.140625 0 L 18.75 -2.625 L 18.75 -8.65625 L 16.140625 -11.28125 L 5.515625 -11.28125 L 5.515625 -14.171875 L 18.75 -14.171875 L 18.75 -18.359375 L 3.9375 -18.359375 L 1.3125 -15.734375 L 1.3125 -9.703125 L 3.9375 -7.078125 L 14.5625 -7.078125 L 14.5625 -4.203125 L 1.3125 -4.203125 L 1.3125 0 Z M 16.140625 0 "/></g></g></g><g fill="#ff0000" fill-opacity="1"><g transform="translate(720.968388, 283.505902)"><g><path d="M 4.984375 -6.5625 L 5.765625 -18.359375 L 1.046875 -18.359375 L 1.84375 -6.5625 Z M 5.515625 0 L 5.515625 -4.71875 L 1.3125 -4.71875 L 1.3125 0 Z M 5.515625 0 "/></g></g></g><g fill="#00ffff" fill-opacity="1"><g transform="translate(232.195074, 283.186161)"><g><path d="M 17.1875 0 L 19.8125 -2.625 L 19.8125 -18.359375 L 6.5625 -18.359375 L 6.5625 -14.171875 L 15.609375 -14.171875 L 15.609375 -4.203125 L 5.515625 -4.203125 L 5.515625 -6.828125 L 1.3125 -6.828125 L 1.3125 -2.625 L 3.9375 0 Z M 17.1875 0 "/></g></g></g><g fill="#00ffff" fill-opacity="1"><g transform="translate(256.113443, 283.186161)"><g><path d="M 17.84375 0 L 20.46875 -2.625 L 20.46875 -15.734375 L 17.84375 -18.359375 L 3.9375 -18.359375 L 1.3125 -15.734375 L 1.3125 -2.625 L 3.9375 0 Z M 16.265625 -4.203125 L 5.515625 -4.203125 L 5.515625 -14.171875 L 16.265625 -14.171875 Z M 16.265625 -4.203125 "/></g></g></g><g fill="#00ffff" fill-opacity="1"><g transform="translate(280.687432, 283.186161)"><g><path d="M 17.1875 0 L 19.8125 -2.625 L 19.8125 -11.28125 L 11.15625 -11.28125 L 11.15625 -7.078125 L 15.609375 -7.078125 L 15.609375 -4.203125 L 5.515625 -4.203125 L 5.515625 -14.171875 L 17.84375 -14.171875 L 17.84375 -18.359375 L 3.9375 -18.359375 L 1.3125 -15.734375 L 1.3125 -2.625 L 3.9375 0 Z M 17.1875 0 "/></g></g></g><g fill="#00ffff" fill-opacity="1"><g transform="translate(304.605801, 283.186161)"><g><path d="M 17.84375 0 L 20.46875 -2.625 L 20.46875 -15.734375 L 17.84375 -18.359375 L 3.9375 -18.359375 L 1.3125 -15.734375 L 1.3125 -2.625 L 3.9375 0 Z M 16.265625 -4.203125 L 5.515625 -4.203125 L 5.515625 -14.171875 L 16.265625 -14.171875 Z M 16.265625 -4.203125 "/></g></g></g><g fill="#00ffff" fill-opacity="1"><g transform="translate(329.17979, 283.186161)"><g><path d="M 16.140625 0 L 18.75 -2.625 L 18.75 -8.65625 L 16.140625 -11.28125 L 5.515625 -11.28125 L 5.515625 -14.171875 L 18.75 -14.171875 L 18.75 -18.359375 L 3.9375 -18.359375 L 1.3125 -15.734375 L 1.3125 -9.703125 L 3.9375 -7.078125 L 14.5625 -7.078125 L 14.5625 -4.203125 L 1.3125 -4.203125 L 1.3125 0 Z M 16.140625 0 "/></g></g></g><g fill="#00ffff" fill-opacity="1"><g transform="translate(352.049174, 283.186161)"><g/></g></g><g fill="#00ffff" fill-opacity="1"><g transform="translate(365.346456, 283.186161)"><g><path d="M 19.15625 0 L 19.15625 -4.203125 L 5.515625 -4.203125 L 5.515625 -14.171875 L 15.609375 -14.171875 L 15.609375 -11.546875 L 19.8125 -11.546875 L 19.8125 -15.734375 L 17.1875 -18.359375 L 3.9375 -18.359375 L 1.3125 -15.734375 L 1.3125 -2.625 L 3.9375 0 Z M 19.15625 0 "/></g></g></g><g fill="#00ffff" fill-opacity="1"><g transform="translate(389.264831, 283.186161)"><g><path d="M 17.84375 0 L 20.46875 -2.625 L 20.46875 -15.734375 L 17.84375 -18.359375 L 3.9375 -18.359375 L 1.3125 -15.734375 L 1.3125 -2.625 L 3.9375 0 Z M 16.265625 -4.203125 L 5.515625 -4.203125 L 5.515625 -14.171875 L 16.265625 -14.171875 Z M 16.265625 -4.203125 "/></g></g></g><g fill="#00ffff" fill-opacity="1"><g transform="translate(413.838815, 283.186161)"><g><path d="M 6.171875 -18.359375 L 0.125 -18.359375 L 0.125 -14.171875 L 2.09375 -14.171875 L 2.09375 0 L 6.296875 0 L 6.296875 -11.203125 C 8.1875 -8.625 10.078125 -6.0625 11.984375 -3.484375 C 13.875 -6.0625 15.796875 -8.625 17.703125 -11.203125 L 17.703125 0 L 21.90625 0 L 21.90625 -18.359375 L 17.84375 -18.359375 C 15.875 -15.734375 13.9375 -13.09375 11.984375 -10.46875 Z M 6.171875 -18.359375 "/></g></g></g><g fill="#00ffff" fill-opacity="1"><g transform="translate(439.855172, 283.186161)"><g><path d="M 17.84375 0 L 20.46875 -2.625 L 20.46875 -15.734375 L 17.84375 -18.359375 L 3.9375 -18.359375 L 1.3125 -15.734375 L 1.3125 -2.625 L 3.9375 0 Z M 16.265625 -4.203125 L 5.515625 -4.203125 L 5.515625 -14.171875 L 16.265625 -14.171875 Z M 16.265625 -4.203125 "/></g></g></g><g fill="#00ffff" fill-opacity="1"><g transform="translate(464.429156, 283.186161)"><g/></g></g><g fill="#00ffff" fill-opacity="1"><g transform="translate(477.726438, 283.186161)"><g><path d="M 18.625 0 L 18.625 -18.359375 L 14.421875 -18.359375 L 14.421875 -7.078125 L 6.296875 -18.359375 L 0.125 -18.359375 L 0.125 -14.171875 L 2.09375 -14.171875 L 2.09375 0 L 6.296875 0 L 6.296875 -11.25 L 14.421875 0 Z M 18.625 0 "/></g></g></g><g fill="#00ffff" fill-opacity="1"><g transform="translate(500.464686, 283.186161)"><g><path d="M 19.9375 -2.625 L 19.9375 -18.359375 L 15.734375 -18.359375 L 15.734375 -4.203125 L 6.296875 -4.203125 L 6.296875 -18.359375 L 0.125 -18.359375 L 0.125 -14.171875 L 2.09375 -14.171875 L 2.09375 -2.625 L 4.71875 0 L 17.3125 0 Z M 19.9375 -2.625 "/></g></g></g><g fill="#00ffff" fill-opacity="1"><g transform="translate(524.514174, 283.186161)"><g><path d="M 18.625 0 L 18.625 -18.359375 L 14.421875 -18.359375 L 14.421875 -7.078125 L 6.296875 -18.359375 L 0.125 -18.359375 L 0.125 -14.171875 L 2.09375 -14.171875 L 2.09375 0 L 6.296875 0 L 6.296875 -11.25 L 14.421875 0 Z M 18.625 0 "/></g></g></g><g fill="#00ffff" fill-opacity="1"><g transform="translate(547.252423, 283.186161)"><g><path d="M 19.15625 0 L 19.15625 -4.203125 L 5.515625 -4.203125 L 5.515625 -14.171875 L 15.609375 -14.171875 L 15.609375 -11.546875 L 19.8125 -11.546875 L 19.8125 -15.734375 L 17.1875 -18.359375 L 3.9375 -18.359375 L 1.3125 -15.734375 L 1.3125 -2.625 L 3.9375 0 Z M 19.15625 0 "/></g></g></g><g fill="#00ffff" fill-opacity="1"><g transform="translate(571.170798, 283.186161)"><g><path d="M 19.8125 0 L 19.8125 -15.734375 L 17.1875 -18.359375 L 1.96875 -18.359375 L 1.96875 -14.171875 L 15.609375 -14.171875 L 15.609375 -11.28125 L 3.9375 -11.28125 L 1.3125 -8.65625 L 1.3125 -2.625 L 3.9375 0 L 14.296875 0 L 14.296875 -4.203125 L 5.515625 -4.203125 L 5.515625 -7.078125 L 15.609375 -7.078125 L 15.609375 -2.625 L 18.234375 0 Z M 19.8125 0 "/></g></g></g><g fill="#00ffff" fill-opacity="1"><g transform="translate(595.089173, 283.186161)"><g/></g></g><g fill="#00ffff" fill-opacity="1"><g transform="translate(608.386455, 283.186161)"><g><path d="M 19.8125 0 L 19.8125 -15.734375 L 17.1875 -18.359375 L 1.96875 -18.359375 L 1.96875 -14.171875 L 15.609375 -14.171875 L 15.609375 -11.28125 L 3.9375 -11.28125 L 1.3125 -8.65625 L 1.3125 -2.625 L 3.9375 0 L 14.296875 0 L 14.296875 -4.203125 L 5.515625 -4.203125 L 5.515625 -7.078125 L 15.609375 -7.078125 L 15.609375 -2.625 L 18.234375 0 Z M 19.8125 0 "/></g></g></g><g fill="#00ffff" fill-opacity="1"><g transform="translate(632.304807, 283.186161)"><g><path d="M 18.625 0 L 18.625 -18.359375 L 14.421875 -18.359375 L 14.421875 -7.078125 L 6.296875 -18.359375 L 0.125 -18.359375 L 0.125 -14.171875 L 2.09375 -14.171875 L 2.09375 0 L 6.296875 0 L 6.296875 -11.25 L 14.421875 0 Z M 18.625 0 "/></g></g></g><g fill="#00ffff" fill-opacity="1"><g transform="translate(655.043078, 283.186161)"><g><path d="M 11.5625 0 L 11.5625 -14.171875 L 18.8125 -14.171875 L 18.8125 -18.359375 L 0.125 -18.359375 L 0.125 -14.171875 L 7.375 -14.171875 L 7.375 0 Z M 11.5625 0 "/></g></g></g><g fill="#00ffff" fill-opacity="1"><g transform="translate(676.784767, 283.186161)"><g><path d="M 19.15625 0 L 19.15625 -4.203125 L 5.515625 -4.203125 L 5.515625 -14.171875 L 15.609375 -14.171875 L 15.609375 -11.015625 L 6.828125 -11.015625 L 6.828125 -6.828125 L 17.1875 -6.828125 L 19.8125 -9.4375 L 19.8125 -15.734375 L 17.1875 -18.359375 L 3.9375 -18.359375 L 1.3125 -15.734375 L 1.3125 -2.625 L 3.9375 0 Z M 19.15625 0 "/></g></g></g><g fill="#00ffff" fill-opacity="1"><g transform="translate(700.70312, 283.186161)"><g><path d="M 16.140625 0 L 18.75 -2.625 L 18.75 -8.65625 L 16.140625 -11.28125 L 5.515625 -11.28125 L 5.515625 -14.171875 L 18.75 -14.171875 L 18.75 -18.359375 L 3.9375 -18.359375 L 1.3125 -15.734375 L 1.3125 -9.703125 L 3.9375 -7.078125 L 14.5625 -7.078125 L 14.5625 -4.203125 L 1.3125 -4.203125 L 1.3125 0 Z M 16.140625 0 "/></g></g></g><g fill="#00ffff" fill-opacity="1"><g transform="translate(723.57248, 283.186161)"><g><path d="M 4.984375 -6.5625 L 5.765625 -18.359375 L 1.046875 -18.359375 L 1.84375 -6.5625 Z M 5.515625 0 L 5.515625 -4.71875 L 1.3125 -4.71875 L 1.3125 0 Z M 5.515625 0 "/></g></g></g><g fill="#ffffff" fill-opacity="1"><g transform="translate(230.893028, 283.346031)"><g><path d="M 17.1875 0 L 19.8125 -2.625 L 19.8125 -18.359375 L 6.5625 -18.359375 L 6.5625 -14.171875 L 15.609375 -14.171875 L 15.609375 -4.203125 L 5.515625 -4.203125 L 5.515625 -6.828125 L 1.3125 -6.828125 L 1.3125 -2.625 L 3.9375 0 Z M 17.1875 0 "/></g></g></g><g fill="#ffffff" fill-opacity="1"><g transform="translate(254.811397, 283.346031)"><g><path d="M 17.84375 0 L 20.46875 -2.625 L 20.46875 -15.734375 L 17.84375 -18.359375 L 3.9375 -18.359375 L 1.3125 -15.734375 L 1.3125 -2.625 L 3.9375 0 Z M 16.265625 -4.203125 L 5.515625 -4.203125 L 5.515625 -14.171875 L 16.265625 -14.171875 Z M 16.265625 -4.203125 "/></g></g></g><g fill="#ffffff" fill-opacity="1"><g transform="translate(279.385385, 283.346031)"><g><path d="M 17.1875 0 L 19.8125 -2.625 L 19.8125 -11.28125 L 11.15625 -11.28125 L 11.15625 -7.078125 L 15.609375 -7.078125 L 15.609375 -4.203125 L 5.515625 -4.203125 L 5.515625 -14.171875 L 17.84375 -14.171875 L 17.84375 -18.359375 L 3.9375 -18.359375 L 1.3125 -15.734375 L 1.3125 -2.625 L 3.9375 0 Z M 17.1875 0 "/></g></g></g><g fill="#ffffff" fill-opacity="1"><g transform="translate(303.303755, 283.346031)"><g><path d="M 17.84375 0 L 20.46875 -2.625 L 20.46875 -15.734375 L 17.84375 -18.359375 L 3.9375 -18.359375 L 1.3125 -15.734375 L 1.3125 -2.625 L 3.9375 0 Z M 16.265625 -4.203125 L 5.515625 -4.203125 L 5.515625 -14.171875 L 16.265625 -14.171875 Z M 16.265625 -4.203125 "/></g></g></g><g fill="#ffffff" fill-opacity="1"><g transform="translate(327.877743, 283.346031)"><g><path d="M 16.140625 0 L 18.75 -2.625 L 18.75 -8.65625 L 16.140625 -11.28125 L 5.515625 -11.28125 L 5.515625 -14.171875 L 18.75 -14.171875 L 18.75 -18.359375 L 3.9375 -18.359375 L 1.3125 -15.734375 L 1.3125 -9.703125 L 3.9375 -7.078125 L 14.5625 -7.078125 L 14.5625 -4.203125 L 1.3125 -4.203125 L 1.3125 0 Z M 16.140625 0 "/></g></g></g><g fill="#ffffff" fill-opacity="1"><g transform="translate(350.747128, 283.346031)"><g/></g></g><g fill="#ffffff" fill-opacity="1"><g transform="translate(364.04441, 283.346031)"><g><path d="M 19.15625 0 L 19.15625 -4.203125 L 5.515625 -4.203125 L 5.515625 -14.171875 L 15.609375 -14.171875 L 15.609375 -11.546875 L 19.8125 -11.546875 L 19.8125 -15.734375 L 17.1875 -18.359375 L 3.9375 -18.359375 L 1.3125 -15.734375 L 1.3125 -2.625 L 3.9375 0 Z M 19.15625 0 "/></g></g></g><g fill="#ffffff" fill-opacity="1"><g transform="translate(387.962785, 283.346031)"><g><path d="M 17.84375 0 L 20.46875 -2.625 L 20.46875 -15.734375 L 17.84375 -18.359375 L 3.9375 -18.359375 L 1.3125 -15.734375 L 1.3125 -2.625 L 3.9375 0 Z M 16.265625 -4.203125 L 5.515625 -4.203125 L 5.515625 -14.171875 L 16.265625 -14.171875 Z M 16.265625 -4.203125 "/></g></g></g><g fill="#ffffff" fill-opacity="1"><g transform="translate(412.536768, 283.346031)"><g><path d="M 6.171875 -18.359375 L 0.125 -18.359375 L 0.125 -14.171875 L 2.09375 -14.171875 L 2.09375 0 L 6.296875 0 L 6.296875 -11.203125 C 8.1875 -8.625 10.078125 -6.0625 11.984375 -3.484375 C 13.875 -6.0625 15.796875 -8.625 17.703125 -11.203125 L 17.703125 0 L 21.90625 0 L 21.90625 -18.359375 L 17.84375 -18.359375 C 15.875 -15.734375 13.9375 -13.09375 11.984375 -10.46875 Z M 6.171875 -18.359375 "/></g></g></g><g fill="#ffffff" fill-opacity="1"><g transform="translate(438.553126, 283.346031)"><g><path d="M 17.84375 0 L 20.46875 -2.625 L 20.46875 -15.734375 L 17.84375 -18.359375 L 3.9375 -18.359375 L 1.3125 -15.734375 L 1.3125 -2.625 L 3.9375 0 Z M 16.265625 -4.203125 L 5.515625 -4.203125 L 5.515625 -14.171875 L 16.265625 -14.171875 Z M 16.265625 -4.203125 "/></g></g></g><g fill="#ffffff" fill-opacity="1"><g transform="translate(463.127109, 283.346031)"><g/></g></g><g fill="#ffffff" fill-opacity="1"><g transform="translate(476.424391, 283.346031)"><g><path d="M 18.625 0 L 18.625 -18.359375 L 14.421875 -18.359375 L 14.421875 -7.078125 L 6.296875 -18.359375 L 0.125 -18.359375 L 0.125 -14.171875 L 2.09375 -14.171875 L 2.09375 0 L 6.296875 0 L 6.296875 -11.25 L 14.421875 0 Z M 18.625 0 "/></g></g></g><g fill="#ffffff" fill-opacity="1"><g transform="translate(499.16264, 283.346031)"><g><path d="M 19.9375 -2.625 L 19.9375 -18.359375 L 15.734375 -18.359375 L 15.734375 -4.203125 L 6.296875 -4.203125 L 6.296875 -18.359375 L 0.125 -18.359375 L 0.125 -14.171875 L 2.09375 -14.171875 L 2.09375 -2.625 L 4.71875 0 L 17.3125 0 Z M 19.9375 -2.625 "/></g></g></g><g fill="#ffffff" fill-opacity="1"><g transform="translate(523.212128, 283.346031)"><g><path d="M 18.625 0 L 18.625 -18.359375 L 14.421875 -18.359375 L 14.421875 -7.078125 L 6.296875 -18.359375 L 0.125 -18.359375 L 0.125 -14.171875 L 2.09375 -14.171875 L 2.09375 0 L 6.296875 0 L 6.296875 -11.25 L 14.421875 0 Z M 18.625 0 "/></g></g></g><g fill="#ffffff" fill-opacity="1"><g transform="translate(545.950376, 283.346031)"><g><path d="M 19.15625 0 L 19.15625 -4.203125 L 5.515625 -4.203125 L 5.515625 -14.171875 L 15.609375 -14.171875 L 15.609375 -11.546875 L 19.8125 -11.546875 L 19.8125 -15.734375 L 17.1875 -18.359375 L 3.9375 -18.359375 L 1.3125 -15.734375 L 1.3125 -2.625 L 3.9375 0 Z M 19.15625 0 "/></g></g></g><g fill="#ffffff" fill-opacity="1"><g transform="translate(569.868752, 283.346031)"><g><path d="M 19.8125 0 L 19.8125 -15.734375 L 17.1875 -18.359375 L 1.96875 -18.359375 L 1.96875 -14.171875 L 15.609375 -14.171875 L 15.609375 -11.28125 L 3.9375 -11.28125 L 1.3125 -8.65625 L 1.3125 -2.625 L 3.9375 0 L 14.296875 0 L 14.296875 -4.203125 L 5.515625 -4.203125 L 5.515625 -7.078125 L 15.609375 -7.078125 L 15.609375 -2.625 L 18.234375 0 Z M 19.8125 0 "/></g></g></g><g fill="#ffffff" fill-opacity="1"><g transform="translate(593.787127, 283.346031)"><g/></g></g><g fill="#ffffff" fill-opacity="1"><g transform="translate(607.084409, 283.346031)"><g><path d="M 19.8125 0 L 19.8125 -15.734375 L 17.1875 -18.359375 L 1.96875 -18.359375 L 1.96875 -14.171875 L 15.609375 -14.171875 L 15.609375 -11.28125 L 3.9375 -11.28125 L 1.3125 -8.65625 L 1.3125 -2.625 L 3.9375 0 L 14.296875 0 L 14.296875 -4.203125 L 5.515625 -4.203125 L 5.515625 -7.078125 L 15.609375 -7.078125 L 15.609375 -2.625 L 18.234375 0 Z M 19.8125 0 "/></g></g></g><g fill="#ffffff" fill-opacity="1"><g transform="translate(631.002761, 283.346031)"><g><path d="M 18.625 0 L 18.625 -18.359375 L 14.421875 -18.359375 L 14.421875 -7.078125 L 6.296875 -18.359375 L 0.125 -18.359375 L 0.125 -14.171875 L 2.09375 -14.171875 L 2.09375 0 L 6.296875 0 L 6.296875 -11.25 L 14.421875 0 Z M 18.625 0 "/></g></g></g><g fill="#ffffff" fill-opacity="1"><g transform="translate(653.741032, 283.346031)"><g><path d="M 11.5625 0 L 11.5625 -14.171875 L 18.8125 -14.171875 L 18.8125 -18.359375 L 0.125 -18.359375 L 0.125 -14.171875 L 7.375 -14.171875 L 7.375 0 Z M 11.5625 0 "/></g></g></g><g fill="#ffffff" fill-opacity="1"><g transform="translate(675.482721, 283.346031)"><g><path d="M 19.15625 0 L 19.15625 -4.203125 L 5.515625 -4.203125 L 5.515625 -14.171875 L 15.609375 -14.171875 L 15.609375 -11.015625 L 6.828125 -11.015625 L 6.828125 -6.828125 L 17.1875 -6.828125 L 19.8125 -9.4375 L 19.8125 -15.734375 L 17.1875 -18.359375 L 3.9375 -18.359375 L 1.3125 -15.734375 L 1.3125 -2.625 L 3.9375 0 Z M 19.15625 0 "/></g></g></g><g fill="#ffffff" fill-opacity="1"><g transform="translate(699.401073, 283.346031)"><g><path d="M 16.140625 0 L 18.75 -2.625 L 18.75 -8.65625 L 16.140625 -11.28125 L 5.515625 -11.28125 L 5.515625 -14.171875 L 18.75 -14.171875 L 18.75 -18.359375 L 3.9375 -18.359375 L 1.3125 -15.734375 L 1.3125 -9.703125 L 3.9375 -7.078125 L 14.5625 -7.078125 L 14.5625 -4.203125 L 1.3125 -4.203125 L 1.3125 0 Z M 16.140625 0 "/></g></g></g><g fill="#ffffff" fill-opacity="1"><g transform="translate(722.270434, 283.346031)"><g><path d="M 4.984375 -6.5625 L 5.765625 -18.359375 L 1.046875 -18.359375 L 1.84375 -6.5625 Z M 5.515625 0 L 5.515625 -4.71875 L 1.3125 -4.71875 L 1.3125 0 Z M 5.515625 0 "/></g></g></g><g fill="#ff0000" fill-opacity="1"><g transform="translate(418.296761, 299.986381)"><g><path d="M 6.265625 -1.75 L 7.28125 -2.765625 L 7.28125 -6.15625 L 6.265625 -7.1875 L 0.046875 -7.1875 L 0.046875 -5.546875 L 5.640625 -5.546875 L 5.640625 -3.390625 L 2.46875 -3.390625 L 2.46875 -5.03125 L 0.828125 -5.03125 L 0.828125 0 L 2.46875 0 L 2.46875 -1.75 Z M 6.265625 -1.75 "/></g></g></g><g fill="#ff0000" fill-opacity="1"><g transform="translate(426.986445, 299.986381)"><g><path d="M 7.75 0 L 7.75 -6.15625 L 6.71875 -7.1875 L 0.765625 -7.1875 L 0.765625 -5.546875 L 6.109375 -5.546875 L 6.109375 -4.421875 L 1.546875 -4.421875 L 0.515625 -3.390625 L 0.515625 -1.03125 L 1.546875 0 L 5.59375 0 L 5.59375 -1.640625 L 2.15625 -1.640625 L 2.15625 -2.765625 L 6.109375 -2.765625 L 6.109375 -1.03125 L 7.140625 0 Z M 7.75 0 "/></g></g></g><g fill="#ff0000" fill-opacity="1"><g transform="translate(436.342921, 299.986381)"><g><path d="M 6.265625 -1.75 L 7.28125 -2.765625 L 7.28125 -6.15625 L 6.265625 -7.1875 L 0.046875 -7.1875 L 0.046875 -5.546875 L 5.640625 -5.546875 L 5.640625 -3.390625 L 2.46875 -3.390625 L 2.46875 -5.03125 L 0.828125 -5.03125 L 0.828125 0 L 2.46875 0 L 2.46875 -1.75 L 4.171875 -1.75 C 4.6875 -1.15625 5.1875 -0.578125 5.71875 0 L 7.796875 0 C 7.28125 -0.578125 6.78125 -1.15625 6.265625 -1.75 Z M 6.265625 -1.75 "/></g></g></g><g fill="#ff0000" fill-opacity="1"><g transform="translate(445.340349, 299.986381)"><g><path d="M 7.75 0 L 7.75 -6.15625 L 6.71875 -7.1875 L 0.765625 -7.1875 L 0.765625 -5.546875 L 6.109375 -5.546875 L 6.109375 -4.421875 L 1.546875 -4.421875 L 0.515625 -3.390625 L 0.515625 -1.03125 L 1.546875 0 L 5.59375 0 L 5.59375 -1.640625 L 2.15625 -1.640625 L 2.15625 -2.765625 L 6.109375 -2.765625 L 6.109375 -1.03125 L 7.140625 0 Z M 7.75 0 "/></g></g></g><g fill="#ff0000" fill-opacity="1"><g transform="translate(454.696826, 299.986381)"><g><path d="M 7.078125 0 L 7.078125 -1.640625 L 2.46875 -1.640625 L 2.46875 -7.1875 L 0.046875 -7.1875 L 0.046875 -5.546875 L 0.828125 -5.546875 L 0.828125 0 Z M 7.078125 0 "/></g></g></g><g fill="#ff0000" fill-opacity="1"><g transform="translate(462.976177, 299.986381)"><g><path d="M 7.078125 0 L 7.078125 -1.640625 L 2.46875 -1.640625 L 2.46875 -7.1875 L 0.046875 -7.1875 L 0.046875 -5.546875 L 0.828125 -5.546875 L 0.828125 0 Z M 7.078125 0 "/></g></g></g><g fill="#ff0000" fill-opacity="1"><g transform="translate(471.255528, 299.986381)"><g><path d="M 7.75 0 L 7.75 -6.15625 L 6.71875 -7.1875 L 0.765625 -7.1875 L 0.765625 -5.546875 L 6.109375 -5.546875 L 6.109375 -4.421875 L 1.546875 -4.421875 L 0.515625 -3.390625 L 0.515625 -1.03125 L 1.546875 0 L 5.59375 0 L 5.59375 -1.640625 L 2.15625 -1.640625 L 2.15625 -2.765625 L 6.109375 -2.765625 L 6.109375 -1.03125 L 7.140625 0 Z M 7.75 0 "/></g></g></g><g fill="#ff0000" fill-opacity="1"><g transform="translate(480.612005, 299.986381)"><g><path d="M 3.578125 -4.921875 C 3 -5.671875 2.4375 -6.4375 1.875 -7.1875 L -0.15625 -7.1875 L 2.546875 -3.59375 L -0.15625 0 L 1.875 0 L 3.546875 -2.25 L 5.28125 0 L 7.3125 0 L 4.59375 -3.609375 C 5.484375 -4.796875 6.390625 -5.984375 7.28125 -7.1875 L 5.25 -7.1875 Z M 3.578125 -4.921875 "/></g></g></g><g fill="#ff0000" fill-opacity="1"><g transform="translate(489.373495, 299.986381)"><g/></g></g><g fill="#ff0000" fill-opacity="1"><g transform="translate(494.575347, 299.986381)"><g><path d="M 6.71875 0 L 7.75 -1.03125 L 7.75 -4.421875 L 4.359375 -4.421875 L 4.359375 -2.765625 L 6.109375 -2.765625 L 6.109375 -1.640625 L 2.15625 -1.640625 L 2.15625 -5.546875 L 6.984375 -5.546875 L 6.984375 -7.1875 L 1.546875 -7.1875 L 0.515625 -6.15625 L 0.515625 -1.03125 L 1.546875 0 Z M 6.71875 0 "/></g></g></g><g fill="#ff0000" fill-opacity="1"><g transform="translate(503.931824, 299.986381)"><g><path d="M 7.75 0 L 7.75 -6.15625 L 6.71875 -7.1875 L 0.765625 -7.1875 L 0.765625 -5.546875 L 6.109375 -5.546875 L 6.109375 -4.421875 L 1.546875 -4.421875 L 0.515625 -3.390625 L 0.515625 -1.03125 L 1.546875 0 L 5.59375 0 L 5.59375 -1.640625 L 2.15625 -1.640625 L 2.15625 -2.765625 L 6.109375 -2.765625 L 6.109375 -1.03125 L 7.140625 0 Z M 7.75 0 "/></g></g></g><g fill="#ff0000" fill-opacity="1"><g transform="translate(513.288301, 299.986381)"><g><path d="M 2.40625 -7.1875 L 0.046875 -7.1875 L 0.046875 -5.546875 L 0.828125 -5.546875 L 0.828125 0 L 2.46875 0 L 2.46875 -4.390625 C 3.203125 -3.375 3.9375 -2.375 4.6875 -1.359375 C 5.4375 -2.375 6.1875 -3.375 6.921875 -4.390625 L 6.921875 0 L 8.578125 0 L 8.578125 -7.1875 L 6.984375 -7.1875 C 6.203125 -6.15625 5.453125 -5.125 4.6875 -4.09375 Z M 2.40625 -7.1875 "/></g></g></g><g fill="#ff0000" fill-opacity="1"><g transform="translate(523.46543, 299.986381)"><g><path d="M 7.5 0 L 7.5 -1.640625 L 2.15625 -1.640625 L 2.15625 -5.546875 L 6.109375 -5.546875 L 6.109375 -4.3125 L 2.671875 -4.3125 L 2.671875 -2.671875 L 6.71875 -2.671875 L 7.75 -3.703125 L 7.75 -6.15625 L 6.71875 -7.1875 L 1.546875 -7.1875 L 0.515625 -6.15625 L 0.515625 -1.03125 L 1.546875 0 Z M 7.5 0 "/></g></g></g><g fill="#ff0000" fill-opacity="1"><g transform="translate(532.821901, 299.986381)"><g><path d="M 6.3125 0 L 7.34375 -1.03125 L 7.34375 -3.390625 L 6.3125 -4.421875 L 2.15625 -4.421875 L 2.15625 -5.546875 L 7.34375 -5.546875 L 7.34375 -7.1875 L 1.546875 -7.1875 L 0.515625 -6.15625 L 0.515625 -3.796875 L 1.546875 -2.765625 L 5.703125 -2.765625 L 5.703125 -1.640625 L 0.515625 -1.640625 L 0.515625 0 Z M 6.3125 0 "/></g></g></g><g fill="#00ffff" fill-opacity="1"><g transform="translate(419.315752, 299.861282)"><g><path d="M 6.265625 -1.75 L 7.28125 -2.765625 L 7.28125 -6.15625 L 6.265625 -7.1875 L 0.046875 -7.1875 L 0.046875 -5.546875 L 5.640625 -5.546875 L 5.640625 -3.390625 L 2.46875 -3.390625 L 2.46875 -5.03125 L 0.828125 -5.03125 L 0.828125 0 L 2.46875 0 L 2.46875 -1.75 Z M 6.265625 -1.75 "/></g></g></g><g fill="#00ffff" fill-opacity="1"><g transform="translate(428.005437, 299.861282)"><g><path d="M 7.75 0 L 7.75 -6.15625 L 6.71875 -7.1875 L 0.765625 -7.1875 L 0.765625 -5.546875 L 6.109375 -5.546875 L 6.109375 -4.421875 L 1.546875 -4.421875 L 0.515625 -3.390625 L 0.515625 -1.03125 L 1.546875 0 L 5.59375 0 L 5.59375 -1.640625 L 2.15625 -1.640625 L 2.15625 -2.765625 L 6.109375 -2.765625 L 6.109375 -1.03125 L 7.140625 0 Z M 7.75 0 "/></g></g></g><g fill="#00ffff" fill-opacity="1"><g transform="translate(437.361912, 299.861282)"><g><path d="M 6.265625 -1.75 L 7.28125 -2.765625 L 7.28125 -6.15625 L 6.265625 -7.1875 L 0.046875 -7.1875 L 0.046875 -5.546875 L 5.640625 -5.546875 L 5.640625 -3.390625 L 2.46875 -3.390625 L 2.46875 -5.03125 L 0.828125 -5.03125 L 0.828125 0 L 2.46875 0 L 2.46875 -1.75 L 4.171875 -1.75 C 4.6875 -1.15625 5.1875 -0.578125 5.71875 0 L 7.796875 0 C 7.28125 -0.578125 6.78125 -1.15625 6.265625 -1.75 Z M 6.265625 -1.75 "/></g></g></g><g fill="#00ffff" fill-opacity="1"><g transform="translate(446.35934, 299.861282)"><g><path d="M 7.75 0 L 7.75 -6.15625 L 6.71875 -7.1875 L 0.765625 -7.1875 L 0.765625 -5.546875 L 6.109375 -5.546875 L 6.109375 -4.421875 L 1.546875 -4.421875 L 0.515625 -3.390625 L 0.515625 -1.03125 L 1.546875 0 L 5.59375 0 L 5.59375 -1.640625 L 2.15625 -1.640625 L 2.15625 -2.765625 L 6.109375 -2.765625 L 6.109375 -1.03125 L 7.140625 0 Z M 7.75 0 "/></g></g></g><g fill="#00ffff" fill-opacity="1"><g transform="translate(455.715817, 299.861282)"><g><path d="M 7.078125 0 L 7.078125 -1.640625 L 2.46875 -1.640625 L 2.46875 -7.1875 L 0.046875 -7.1875 L 0.046875 -5.546875 L 0.828125 -5.546875 L 0.828125 0 Z M 7.078125 0 "/></g></g></g><g fill="#00ffff" fill-opacity="1"><g transform="translate(463.995168, 299.861282)"><g><path d="M 7.078125 0 L 7.078125 -1.640625 L 2.46875 -1.640625 L 2.46875 -7.1875 L 0.046875 -7.1875 L 0.046875 -5.546875 L 0.828125 -5.546875 L 0.828125 0 Z M 7.078125 0 "/></g></g></g><g fill="#00ffff" fill-opacity="1"><g transform="translate(472.274519, 299.861282)"><g><path d="M 7.75 0 L 7.75 -6.15625 L 6.71875 -7.1875 L 0.765625 -7.1875 L 0.765625 -5.546875 L 6.109375 -5.546875 L 6.109375 -4.421875 L 1.546875 -4.421875 L 0.515625 -3.390625 L 0.515625 -1.03125 L 1.546875 0 L 5.59375 0 L 5.59375 -1.640625 L 2.15625 -1.640625 L 2.15625 -2.765625 L 6.109375 -2.765625 L 6.109375 -1.03125 L 7.140625 0 Z M 7.75 0 "/></g></g></g><g fill="#00ffff" fill-opacity="1"><g transform="translate(481.630996, 299.861282)"><g><path d="M 3.578125 -4.921875 C 3 -5.671875 2.4375 -6.4375 1.875 -7.1875 L -0.15625 -7.1875 L 2.546875 -3.59375 L -0.15625 0 L 1.875 0 L 3.546875 -2.25 L 5.28125 0 L 7.3125 0 L 4.59375 -3.609375 C 5.484375 -4.796875 6.390625 -5.984375 7.28125 -7.1875 L 5.25 -7.1875 Z M 3.578125 -4.921875 "/></g></g></g><g fill="#00ffff" fill-opacity="1"><g transform="translate(490.392487, 299.861282)"><g/></g></g><g fill="#00ffff" fill-opacity="1"><g transform="translate(495.594338, 299.861282)"><g><path d="M 6.71875 0 L 7.75 -1.03125 L 7.75 -4.421875 L 4.359375 -4.421875 L 4.359375 -2.765625 L 6.109375 -2.765625 L 6.109375 -1.640625 L 2.15625 -1.640625 L 2.15625 -5.546875 L 6.984375 -5.546875 L 6.984375 -7.1875 L 1.546875 -7.1875 L 0.515625 -6.15625 L 0.515625 -1.03125 L 1.546875 0 Z M 6.71875 0 "/></g></g></g><g fill="#00ffff" fill-opacity="1"><g transform="translate(504.950815, 299.861282)"><g><path d="M 7.75 0 L 7.75 -6.15625 L 6.71875 -7.1875 L 0.765625 -7.1875 L 0.765625 -5.546875 L 6.109375 -5.546875 L 6.109375 -4.421875 L 1.546875 -4.421875 L 0.515625 -3.390625 L 0.515625 -1.03125 L 1.546875 0 L 5.59375 0 L 5.59375 -1.640625 L 2.15625 -1.640625 L 2.15625 -2.765625 L 6.109375 -2.765625 L 6.109375 -1.03125 L 7.140625 0 Z M 7.75 0 "/></g></g></g><g fill="#00ffff" fill-opacity="1"><g transform="translate(514.307292, 299.861282)"><g><path d="M 2.40625 -7.1875 L 0.046875 -7.1875 L 0.046875 -5.546875 L 0.828125 -5.546875 L 0.828125 0 L 2.46875 0 L 2.46875 -4.390625 C 3.203125 -3.375 3.9375 -2.375 4.6875 -1.359375 C 5.4375 -2.375 6.1875 -3.375 6.921875 -4.390625 L 6.921875 0 L 8.578125 0 L 8.578125 -7.1875 L 6.984375 -7.1875 C 6.203125 -6.15625 5.453125 -5.125 4.6875 -4.09375 Z M 2.40625 -7.1875 "/></g></g></g><g fill="#00ffff" fill-opacity="1"><g transform="translate(524.484421, 299.861282)"><g><path d="M 7.5 0 L 7.5 -1.640625 L 2.15625 -1.640625 L 2.15625 -5.546875 L 6.109375 -5.546875 L 6.109375 -4.3125 L 2.671875 -4.3125 L 2.671875 -2.671875 L 6.71875 -2.671875 L 7.75 -3.703125 L 7.75 -6.15625 L 6.71875 -7.1875 L 1.546875 -7.1875 L 0.515625 -6.15625 L 0.515625 -1.03125 L 1.546875 0 Z M 7.5 0 "/></g></g></g><g fill="#00ffff" fill-opacity="1"><g transform="translate(533.840893, 299.861282)"><g><path d="M 6.3125 0 L 7.34375 -1.03125 L 7.34375 -3.390625 L 6.3125 -4.421875 L 2.15625 -4.421875 L 2.15625 -5.546875 L 7.34375 -5.546875 L 7.34375 -7.1875 L 1.546875 -7.1875 L 0.515625 -6.15625 L 0.515625 -3.796875 L 1.546875 -2.765625 L 5.703125 -2.765625 L 5.703125 -1.640625 L 0.515625 -1.640625 L 0.515625 0 Z M 6.3125 0 "/></g></g></g><g fill="#ffffff" fill-opacity="1"><g transform="translate(418.806257, 299.923833)"><g><path d="M 6.265625 -1.75 L 7.28125 -2.765625 L 7.28125 -6.15625 L 6.265625 -7.1875 L 0.046875 -7.1875 L 0.046875 -5.546875 L 5.640625 -5.546875 L 5.640625 -3.390625 L 2.46875 -3.390625 L 2.46875 -5.03125 L 0.828125 -5.03125 L 0.828125 0 L 2.46875 0 L 2.46875 -1.75 Z M 6.265625 -1.75 "/></g></g></g><g fill="#ffffff" fill-opacity="1"><g transform="translate(427.495941, 299.923833)"><g><path d="M 7.75 0 L 7.75 -6.15625 L 6.71875 -7.1875 L 0.765625 -7.1875 L 0.765625 -5.546875 L 6.109375 -5.546875 L 6.109375 -4.421875 L 1.546875 -4.421875 L 0.515625 -3.390625 L 0.515625 -1.03125 L 1.546875 0 L 5.59375 0 L 5.59375 -1.640625 L 2.15625 -1.640625 L 2.15625 -2.765625 L 6.109375 -2.765625 L 6.109375 -1.03125 L 7.140625 0 Z M 7.75 0 "/></g></g></g><g fill="#ffffff" fill-opacity="1"><g transform="translate(436.852417, 299.923833)"><g><path d="M 6.265625 -1.75 L 7.28125 -2.765625 L 7.28125 -6.15625 L 6.265625 -7.1875 L 0.046875 -7.1875 L 0.046875 -5.546875 L 5.640625 -5.546875 L 5.640625 -3.390625 L 2.46875 -3.390625 L 2.46875 -5.03125 L 0.828125 -5.03125 L 0.828125 0 L 2.46875 0 L 2.46875 -1.75 L 4.171875 -1.75 C 4.6875 -1.15625 5.1875 -0.578125 5.71875 0 L 7.796875 0 C 7.28125 -0.578125 6.78125 -1.15625 6.265625 -1.75 Z M 6.265625 -1.75 "/></g></g></g><g fill="#ffffff" fill-opacity="1"><g transform="translate(445.849845, 299.923833)"><g><path d="M 7.75 0 L 7.75 -6.15625 L 6.71875 -7.1875 L 0.765625 -7.1875 L 0.765625 -5.546875 L 6.109375 -5.546875 L 6.109375 -4.421875 L 1.546875 -4.421875 L 0.515625 -3.390625 L 0.515625 -1.03125 L 1.546875 0 L 5.59375 0 L 5.59375 -1.640625 L 2.15625 -1.640625 L 2.15625 -2.765625 L 6.109375 -2.765625 L 6.109375 -1.03125 L 7.140625 0 Z M 7.75 0 "/></g></g></g><g fill="#ffffff" fill-opacity="1"><g transform="translate(455.206322, 299.923833)"><g><path d="M 7.078125 0 L 7.078125 -1.640625 L 2.46875 -1.640625 L 2.46875 -7.1875 L 0.046875 -7.1875 L 0.046875 -5.546875 L 0.828125 -5.546875 L 0.828125 0 Z M 7.078125 0 "/></g></g></g><g fill="#ffffff" fill-opacity="1"><g transform="translate(463.485673, 299.923833)"><g><path d="M 7.078125 0 L 7.078125 -1.640625 L 2.46875 -1.640625 L 2.46875 -7.1875 L 0.046875 -7.1875 L 0.046875 -5.546875 L 0.828125 -5.546875 L 0.828125 0 Z M 7.078125 0 "/></g></g></g><g fill="#ffffff" fill-opacity="1"><g transform="translate(471.765024, 299.923833)"><g><path d="M 7.75 0 L 7.75 -6.15625 L 6.71875 -7.1875 L 0.765625 -7.1875 L 0.765625 -5.546875 L 6.109375 -5.546875 L 6.109375 -4.421875 L 1.546875 -4.421875 L 0.515625 -3.390625 L 0.515625 -1.03125 L 1.546875 0 L 5.59375 0 L 5.59375 -1.640625 L 2.15625 -1.640625 L 2.15625 -2.765625 L 6.109375 -2.765625 L 6.109375 -1.03125 L 7.140625 0 Z M 7.75 0 "/></g></g></g><g fill="#ffffff" fill-opacity="1"><g transform="translate(481.121501, 299.923833)"><g><path d="M 3.578125 -4.921875 C 3 -5.671875 2.4375 -6.4375 1.875 -7.1875 L -0.15625 -7.1875 L 2.546875 -3.59375 L -0.15625 0 L 1.875 0 L 3.546875 -2.25 L 5.28125 0 L 7.3125 0 L 4.59375 -3.609375 C 5.484375 -4.796875 6.390625 -5.984375 7.28125 -7.1875 L 5.25 -7.1875 Z M 3.578125 -4.921875 "/></g></g></g><g fill="#ffffff" fill-opacity="1"><g transform="translate(489.882991, 299.923833)"><g/></g></g><g fill="#ffffff" fill-opacity="1"><g transform="translate(495.084843, 299.923833)"><g><path d="M 6.71875 0 L 7.75 -1.03125 L 7.75 -4.421875 L 4.359375 -4.421875 L 4.359375 -2.765625 L 6.109375 -2.765625 L 6.109375 -1.640625 L 2.15625 -1.640625 L 2.15625 -5.546875 L 6.984375 -5.546875 L 6.984375 -7.1875 L 1.546875 -7.1875 L 0.515625 -6.15625 L 0.515625 -1.03125 L 1.546875 0 Z M 6.71875 0 "/></g></g></g><g fill="#ffffff" fill-opacity="1"><g transform="translate(504.441319, 299.923833)"><g><path d="M 7.75 0 L 7.75 -6.15625 L 6.71875 -7.1875 L 0.765625 -7.1875 L 0.765625 -5.546875 L 6.109375 -5.546875 L 6.109375 -4.421875 L 1.546875 -4.421875 L 0.515625 -3.390625 L 0.515625 -1.03125 L 1.546875 0 L 5.59375 0 L 5.59375 -1.640625 L 2.15625 -1.640625 L 2.15625 -2.765625 L 6.109375 -2.765625 L 6.109375 -1.03125 L 7.140625 0 Z M 7.75 0 "/></g></g></g><g fill="#ffffff" fill-opacity="1"><g transform="translate(513.797796, 299.923833)"><g><path d="M 2.40625 -7.1875 L 0.046875 -7.1875 L 0.046875 -5.546875 L 0.828125 -5.546875 L 0.828125 0 L 2.46875 0 L 2.46875 -4.390625 C 3.203125 -3.375 3.9375 -2.375 4.6875 -1.359375 C 5.4375 -2.375 6.1875 -3.375 6.921875 -4.390625 L 6.921875 0 L 8.578125 0 L 8.578125 -7.1875 L 6.984375 -7.1875 C 6.203125 -6.15625 5.453125 -5.125 4.6875 -4.09375 Z M 2.40625 -7.1875 "/></g></g></g><g fill="#ffffff" fill-opacity="1"><g transform="translate(523.974926, 299.923833)"><g><path d="M 7.5 0 L 7.5 -1.640625 L 2.15625 -1.640625 L 2.15625 -5.546875 L 6.109375 -5.546875 L 6.109375 -4.3125 L 2.671875 -4.3125 L 2.671875 -2.671875 L 6.71875 -2.671875 L 7.75 -3.703125 L 7.75 -6.15625 L 6.71875 -7.1875 L 1.546875 -7.1875 L 0.515625 -6.15625 L 0.515625 -1.03125 L 1.546875 0 Z M 7.5 0 "/></g></g></g><g fill="#ffffff" fill-opacity="1"><g transform="translate(533.331397, 299.923833)"><g><path d="M 6.3125 0 L 7.34375 -1.03125 L 7.34375 -3.390625 L 6.3125 -4.421875 L 2.15625 -4.421875 L 2.15625 -5.546875 L 7.34375 -5.546875 L 7.34375 -7.1875 L 1.546875 -7.1875 L 0.515625 -6.15625 L 0.515625 -3.796875 L 1.546875 -2.765625 L 5.703125 -2.765625 L 5.703125 -1.640625 L 0.515625 -1.640625 L 0.515625 0 Z M 6.3125 0 "/></g></g></g><g clip-path="url(#50b29c7b86)"><g mask="url(#1a68f7f96e)"><g transform="matrix(1, 0, 0, 1, 0.000000000000000222, 0.000000000000017795)"><g clip-path="url(#79a5dc8652)"><g clip-path="url(#6d8de86c18)"><path fill="#000000" d="M 335.996094 209.320312 C 337.589844 183.742188 342.0625 177.15625 342.390625 176.707031 C 342.683594 176.398438 342.957031 176.085938 343.21875 175.761719 C 353.644531 172.625 364.214844 169.046875 374.929688 165.027344 L 409.125 150.789062 C 446.410156 133.824219 471.066406 117.960938 472.09375 117.292969 L 496.84375 101.277344 L 386.707031 42.09375 C 374.476562 35.53125 361.894531 29.742188 348.953125 24.726562 L 257.460938 -10.722656 C 266.464844 -24.066406 312.464844 -70.160156 312.464844 -70.160156 C 312.464844 -70.160156 283.285156 -115.179688 220.484375 -129.355469 C 158.671875 -143.289062 125.011719 -123.660156 125.035156 -123.570312 L 124.730469 -107.46875 C 121.378906 -62.308594 141.375 -16.71875 141.375 -16.71875 L 61.332031 31.367188 C 46.203125 40.191406 31.636719 49.859375 17.628906 60.371094 L -55.875 115.453125 L -48.019531 128.863281 C -47.042969 130.519531 -37.964844 145.5 -17.464844 160.917969 L 0.976562 172.796875 C 1.519531 173.148438 2.078125 173.484375 2.652344 173.792969 C 16.550781 181.210938 31.175781 186.679688 46.53125 190.191406 L 59 241.835938 C 59.441406 243.671875 59.992188 245.476562 60.648438 247.246094 C 61.300781 249.019531 62.058594 250.746094 62.914062 252.429688 C 63.769531 254.113281 64.722656 255.738281 65.769531 257.308594 C 66.816406 258.882812 67.953125 260.386719 69.175781 261.824219 C 70.402344 263.261719 71.703125 264.625 73.085938 265.910156 C 74.472656 267.195312 75.925781 268.398438 77.449219 269.511719 C 78.972656 270.628906 80.554688 271.652344 82.199219 272.582031 C 83.84375 273.511719 85.535156 274.34375 87.277344 275.074219 L 128.242188 292.285156 L 95.554688 298.074219 C 93.722656 298.394531 91.921875 298.835938 90.148438 299.398438 C 88.378906 299.960938 86.652344 300.644531 84.972656 301.445312 C 83.296875 302.246094 81.679688 303.15625 80.125 304.175781 C 78.570312 305.199219 77.09375 306.320312 75.695312 307.542969 C 74.292969 308.769531 72.980469 310.082031 71.761719 311.484375 C 70.539062 312.886719 69.421875 314.363281 68.402344 315.921875 C 67.382812 317.476562 66.472656 319.09375 65.675781 320.773438 C 64.878906 322.453125 64.199219 324.179688 63.636719 325.953125 C 52.230469 361.710938 11.101562 481.695312 -39.332031 522.667969 L -63.265625 542.117188 L -9.859375 561.347656 L -14.421875 577.601562 L 69.972656 590.957031 L 74.527344 579.632812 L 118.847656 574.855469 C 122.453125 586.144531 131.277344 610.578125 144.019531 624.953125 C 160.996094 644.121094 165.777344 621.035156 165.777344 611.460938 C 165.777344 604.882812 167.21875 586.378906 172.503906 568.667969 L 201.460938 572.121094 C 203.339844 581.8125 204.527344 591.117188 204.957031 595.359375 C 206.261719 607.980469 211.03125 650.816406 235.425781 614.949219 C 242.703125 604.214844 246.925781 591.058594 249.335938 577.824219 L 276.9375 581.113281 L 269.828125 560.558594 L 337.375 550.589844 L 336.664062 547.753906 L 361.550781 550.523438 L 414.523438 526.851562 L 327.882812 426.414062 L 303.164062 368.910156 L 297.269531 327.976562 C 297.109375 326.878906 296.90625 325.789062 296.660156 324.710938 C 296.410156 323.628906 296.121094 322.558594 295.785156 321.503906 C 295.453125 320.445312 295.074219 319.402344 294.65625 318.378906 C 294.238281 317.351562 293.777344 316.34375 293.277344 315.351562 C 292.777344 314.363281 292.238281 313.394531 291.660156 312.449219 C 291.082031 311.503906 290.464844 310.585938 289.8125 309.6875 C 289.15625 308.792969 288.46875 307.925781 287.746094 307.085938 C 287.023438 306.246094 286.265625 305.433594 285.476562 304.65625 C 284.6875 303.878906 283.867188 303.132812 283.019531 302.417969 C 282.167969 301.707031 281.292969 301.03125 280.386719 300.390625 C 279.484375 299.746094 278.554688 299.144531 277.601562 298.578125 C 276.648438 298.011719 275.671875 297.484375 274.675781 297 C 273.679688 296.511719 272.667969 296.066406 271.632812 295.660156 C 270.601562 295.253906 269.554688 294.894531 268.492188 294.574219 C 267.433594 294.253906 266.359375 293.976562 265.277344 293.742188 C 264.191406 293.507812 263.101562 293.320312 262 293.175781 L 229.171875 288.914062 C 253.070312 281.515625 280.539062 270.757812 307.480469 255.246094 C 309.519531 254.078125 311.476562 252.785156 313.355469 251.375 C 315.234375 249.960938 317.019531 248.441406 318.707031 246.808594 C 320.398438 245.175781 321.980469 243.445312 323.457031 241.617188 C 324.933594 239.789062 326.289062 237.875 327.527344 235.878906 C 328.769531 233.882812 329.878906 231.816406 330.863281 229.683594 C 331.847656 227.550781 332.699219 225.363281 333.410156 223.125 C 334.125 220.886719 334.699219 218.613281 335.128906 216.304688 C 335.5625 213.992188 335.851562 211.667969 335.996094 209.320312 Z M 335.996094 209.320312 " fill-opacity="1" fill-rule="nonzero"/></g><path fill="#ffffff" d="M 322.234375 181.480469 C 320.195312 189.953125 319.167969 199.789062 318.613281 208.238281 C 318.511719 209.871094 318.308594 211.484375 318.007812 213.089844 C 317.703125 214.695312 317.304688 216.273438 316.804688 217.828125 C 316.308594 219.382812 315.71875 220.902344 315.035156 222.386719 C 314.347656 223.867188 313.578125 225.300781 312.714844 226.6875 C 311.855469 228.074219 310.910156 229.40625 309.886719 230.675781 C 308.859375 231.945312 307.761719 233.148438 306.589844 234.285156 C 305.414062 235.421875 304.175781 236.480469 302.871094 237.460938 C 301.570312 238.445312 300.210938 239.34375 298.796875 240.15625 C 249.902344 268.34375 198.546875 280.109375 174.175781 284.429688 C 169.636719 285.230469 165.078125 285.375 160.5 284.859375 C 155.921875 284.347656 151.507812 283.195312 147.261719 281.40625 L 94.023438 259.027344 C 91.785156 258.085938 89.6875 256.902344 87.730469 255.46875 C 85.773438 254.035156 84.007812 252.394531 82.433594 250.546875 C 80.863281 248.699219 79.527344 246.695312 78.425781 244.53125 C 77.324219 242.371094 76.488281 240.109375 75.921875 237.75 L 65.363281 194.011719 L 65.929688 194.09375 L 70.984375 195.058594 L 71.082031 194.800781 L 73.335938 195.105469 C 74.003906 198.785156 74.992188 203.976562 75.53125 205.957031 C 76.402344 209.144531 77.269531 219.585938 96.996094 223.066406 C 116.726562 226.550781 126.898438 220.597656 126.898438 210.035156 C 126.898438 206.09375 126.753906 202.457031 126.554688 199.46875 C 137.941406 199.242188 149.105469 197.542969 160.042969 194.378906 L 162.023438 193.804688 L 162.023438 211.773438 C 162.023438 219.035156 175.945312 233.839844 209.3125 231.226562 C 242.679688 228.613281 265.03125 216.710938 265.03125 204.238281 L 265.03125 191.832031 C 271.261719 190.96875 277.5 190.03125 283.746094 189.027344 L 298.433594 186.664062 L 298.503906 186.808594 L 301.28125 186.210938 L 301.832031 186.128906 L 301.832031 186.089844 L 312.390625 183.789062 C 315.640625 183.070312 318.929688 182.300781 322.234375 181.480469 Z M 322.234375 181.480469 " fill-opacity="1" fill-rule="nonzero"/><g clip-path="url(#e5e98a9532)"><path fill="#ffffff" d="M 386.023438 520.511719 L 358.757812 532.6875 L 332.636719 529.789062 L 315.769531 481.035156 L 275.726562 428.800781 L 303.617188 487.453125 L 315.800781 536.207031 L 264.738281 543.75 C 264.738281 543.75 251.964844 491.5 242.105469 468.285156 C 232.246094 445.070312 237.449219 387.011719 237.449219 387.011719 L 216.582031 448.542969 C 216.582031 448.542969 221.234375 485.6875 228.195312 499.621094 C 235.160156 513.550781 251.40625 560.558594 251.40625 560.558594 L 163.753906 550.117188 C 167.589844 542.355469 167.910156 526.347656 166.738281 509.320312 L 179.601562 471.65625 L 240.894531 371.347656 L 235.335938 362.273438 C 233.570312 359.382812 219.871094 337.898438 197.765625 327.898438 C 198.449219 325.28125 199.792969 323.0625 201.800781 321.246094 L 208.921875 315.042969 L 207.617188 305.695312 C 207.511719 304.996094 207.371094 304.304688 207.195312 303.617188 L 259.777344 310.441406 C 261.042969 310.605469 262.289062 310.871094 263.511719 311.238281 C 264.734375 311.605469 265.917969 312.070312 267.066406 312.628906 C 268.210938 313.191406 269.304688 313.839844 270.347656 314.578125 C 271.386719 315.316406 272.363281 316.132812 273.273438 317.03125 C 274.179688 317.925781 275.011719 318.890625 275.761719 319.921875 C 276.511719 320.953125 277.175781 322.039062 277.75 323.179688 C 278.324219 324.320312 278.804688 325.5 279.1875 326.714844 C 279.570312 327.933594 279.851562 329.175781 280.035156 330.4375 L 286.207031 373.679688 L 312.902344 435.785156 Z M 386.023438 520.511719 " fill-opacity="1" fill-rule="nonzero"/></g><g clip-path="url(#1d31667da7)"><path fill="#ffffff" d="M 220.484375 371.363281 L 163.746094 464.214844 L 132.410156 555.917969 L 83.664062 561.140625 L 100.484375 499.621094 L 130.089844 445.644531 L 131.828125 393.414062 L 100.484375 447.964844 L 86.5625 503.101562 L 58.960938 571.589844 L 7.589844 563.457031 L 16.914062 530.386719 L 54.636719 494.40625 L 72.050781 424.175781 C 72.050781 424.175781 45.933594 483.375 38.964844 489.175781 C 31.996094 494.980469 -13.835938 541.414062 -13.835938 541.414062 L -28.351562 536.191406 C 25.363281 492.550781 67.289062 371.808594 80.222656 331.210938 C 80.546875 330.195312 80.9375 329.203125 81.398438 328.238281 C 81.859375 327.277344 82.378906 326.347656 82.964844 325.453125 C 83.550781 324.5625 84.195312 323.710938 84.898438 322.90625 C 85.601562 322.101562 86.351562 321.347656 87.15625 320.644531 C 87.960938 319.941406 88.808594 319.296875 89.703125 318.710938 C 90.59375 318.125 91.523438 317.601562 92.488281 317.140625 C 93.449219 316.679688 94.441406 316.285156 95.457031 315.960938 C 96.476562 315.636719 97.511719 315.378906 98.5625 315.195312 L 146.34375 306.761719 L 146.34375 299.609375 C 151.332031 301.175781 156.4375 302.125 161.65625 302.464844 C 166.875 302.800781 172.0625 302.511719 177.210938 301.601562 C 179.632812 301.171875 182.25 300.679688 185.0625 300.121094 C 189.824219 304.195312 190.375 308.125 190.375 308.125 C 176.160156 320.476562 179.992188 340.628906 179.992188 340.628906 C 203.800781 344.078125 220.484375 371.363281 220.484375 371.363281 Z M 220.484375 371.363281 " fill-opacity="1" fill-rule="nonzero"/></g><g clip-path="url(#b149a042fb)"><path fill="#ffffff" d="M -6.984375 147.035156 C -25.285156 133.234375 -32.996094 120.074219 -32.996094 120.074219 L 28.03125 74.304688 C 41.511719 64.191406 55.53125 54.894531 70.09375 46.410156 L 142.125 5.160156 C 142.125 5.160156 154.460938 20.832031 190.429688 20.832031 C 226.394531 20.832031 250.230469 5.160156 250.230469 5.160156 L 342.675781 40.976562 C 354.945312 45.730469 366.878906 51.222656 378.472656 57.453125 L 462.648438 102.6875 C 462.648438 102.6875 438.464844 118.328125 401.917969 134.957031 L 308.265625 75.371094 L 368.78125 148.710938 C 349.179688 156.1875 329.144531 162.210938 308.671875 166.777344 L 253.121094 41.128906 L 280.984375 171.835938 C 252.066406 176.507812 222.988281 179.710938 193.75 181.449219 L 201.761719 113.566406 C 202.351562 108.609375 202.503906 103.636719 202.222656 98.652344 L 198.578125 34.167969 L 191.679688 96.40625 C 191.257812 100.179688 190.589844 103.910156 189.675781 107.59375 L 173.644531 172.289062 L 155.246094 177.65625 C 143.117188 181.167969 130.746094 182.59375 118.136719 181.925781 C 104.335938 181.160156 91.109375 179.988281 78.644531 178.277344 L 101.644531 101.882812 C 103.234375 96.609375 105.304688 91.535156 107.855469 86.65625 L 130.140625 44.058594 L 102.273438 76.144531 C 95.316406 84.15625 90.003906 93.140625 86.339844 103.101562 L 59.804688 175.171875 C 57.886719 174.804688 55.972656 174.40625 54.117188 174.035156 C 38.691406 170.871094 24.050781 165.542969 10.199219 158.050781 L 43.089844 101.484375 L 20.394531 114.832031 Z M -6.984375 147.035156 " fill-opacity="1" fill-rule="nonzero"/></g><path fill="#141929" d="M 198.570312 383.257812 C 198.570312 384.210938 198.476562 385.152344 198.292969 386.085938 C 198.105469 387.019531 197.832031 387.925781 197.46875 388.808594 C 197.101562 389.6875 196.65625 390.523438 196.125 391.316406 C 195.597656 392.109375 194.996094 392.839844 194.324219 393.515625 C 193.648438 394.1875 192.917969 394.789062 192.125 395.316406 C 191.332031 395.847656 190.496094 396.292969 189.617188 396.660156 C 188.738281 397.023438 187.828125 397.296875 186.894531 397.484375 C 185.960938 397.667969 185.015625 397.761719 184.066406 397.761719 C 183.113281 397.761719 182.167969 397.667969 181.234375 397.484375 C 180.300781 397.296875 179.394531 397.023438 178.515625 396.660156 C 177.632812 396.292969 176.796875 395.847656 176.007812 395.316406 C 175.214844 394.789062 174.480469 394.1875 173.808594 393.515625 C 173.132812 392.839844 172.53125 392.109375 172.003906 391.316406 C 171.472656 390.523438 171.027344 389.6875 170.664062 388.808594 C 170.296875 387.925781 170.023438 387.019531 169.835938 386.085938 C 169.652344 385.152344 169.558594 384.210938 169.558594 383.257812 C 169.558594 382.304688 169.652344 381.359375 169.835938 380.425781 C 170.023438 379.492188 170.296875 378.585938 170.664062 377.707031 C 171.027344 376.824219 171.472656 375.988281 172.003906 375.199219 C 172.53125 374.40625 173.132812 373.671875 173.808594 373 C 174.480469 372.324219 175.214844 371.722656 176.007812 371.195312 C 176.796875 370.664062 177.632812 370.21875 178.515625 369.855469 C 179.394531 369.488281 180.300781 369.214844 181.234375 369.027344 C 182.167969 368.84375 183.113281 368.75 184.066406 368.75 C 185.015625 368.75 185.960938 368.84375 186.894531 369.027344 C 187.828125 369.214844 188.738281 369.488281 189.617188 369.855469 C 190.496094 370.21875 191.332031 370.664062 192.125 371.195312 C 192.917969 371.722656 193.648438 372.324219 194.324219 373 C 194.996094 373.671875 195.597656 374.40625 196.125 375.199219 C 196.65625 375.988281 197.101562 376.824219 197.46875 377.707031 C 197.832031 378.585938 198.105469 379.492188 198.292969 380.425781 C 198.476562 381.359375 198.570312 382.304688 198.570312 383.257812 Z M 198.570312 383.257812 " fill-opacity="1" fill-rule="nonzero"/></g></g></g></g></svg>