<svg xmlns="http://www.w3.org/2000/svg" xmlns:xlink="http://www.w3.org/1999/xlink" width="1280" zoomAndPan="magnify" viewBox="0 0 960 540.000001" height="720" preserveAspectRatio="xMidYMid meet" version="1.0"><defs><filter x="0%" y="0%" width="100%" height="100%" id="c59569a036"><feColorMatrix values="0 0 0 0 1 0 0 0 0 1 0 0 0 0 1 0 0 0 1 0" color-interpolation-filters="sRGB"/></filter><g/><clipPath id="d433beef80"><path d="M 0.886719 0 L 959.113281 0 L 959.113281 539 L 0.886719 539 Z M 0.886719 0 " clip-rule="nonzero"/></clipPath><mask id="9ec2ef4514"><g filter="url(#c59569a036)"><rect x="-96" width="1152" fill="#000000" y="-54" height="648.000001" fill-opacity="0.13"/></g></mask><clipPath id="f591a9c7ab"><path d="M 0.789062 0 L 410.28125 0 L 410.28125 539 L 0.789062 539 Z M 0.789062 0 " clip-rule="nonzero"/></clipPath><clipPath id="2432a182c5"><rect x="0" width="411" y="0" height="539"/></clipPath></defs><g clip-path="url(#d433beef80)"><path fill="#ffffff" d="M 0.886719 0 L 959.113281 0 L 959.113281 539 L 0.886719 539 Z M 0.886719 0 " fill-opacity="1" fill-rule="nonzero"/><path fill="#000000" d="M 0.886719 0 L 959.113281 0 L 959.113281 539 L 0.886719 539 Z M 0.886719 0 " fill-opacity="1" fill-rule="nonzero"/></g><g fill="#ff0000" fill-opacity="1"><g transform="translate(340.157224, 272.77106)"><g><path d="M 20.203125 0 L 20.203125 -4.421875 L 5.8125 -4.421875 L 5.8125 -14.9375 L 16.46875 -14.9375 L 16.46875 -12.171875 L 20.890625 -12.171875 L 20.890625 -16.609375 L 18.125 -19.375 L 4.15625 -19.375 L 1.390625 -16.609375 L 1.390625 -2.765625 L 4.15625 0 Z M 20.203125 0 "/></g></g></g><g fill="#ff0000" fill-opacity="1"><g transform="translate(365.387638, 272.77106)"><g><path d="M 23.328125 0 L 14.28125 -19.375 L 5.140625 -19.375 L 5.140625 -14.9375 L 7.21875 -14.9375 L 0.28125 0 L 5.125 0 L 6.671875 -3.328125 L 16.90625 -3.328125 L 18.484375 0 Z M 14.828125 -7.75 L 8.71875 -7.75 L 11.671875 -15.03125 L 11.875 -15.03125 Z M 14.828125 -7.75 "/></g></g></g><g fill="#ff0000" fill-opacity="1"><g transform="translate(391.945911, 272.77106)"><g><path d="M 16.875 -4.703125 L 19.640625 -7.46875 L 19.640625 -16.609375 L 16.875 -19.375 L 0.140625 -19.375 L 0.140625 -14.9375 L 15.21875 -14.9375 L 15.21875 -9.125 L 6.640625 -9.125 L 6.640625 -13.5625 L 2.21875 -13.5625 L 2.21875 0 L 6.640625 0 L 6.640625 -4.703125 L 11.265625 -4.703125 C 12.640625 -3.125 14 -1.546875 15.40625 0 L 21.03125 0 C 19.625 -1.546875 18.265625 -3.125 16.875 -4.703125 Z M 16.875 -4.703125 "/></g></g></g><g fill="#ff0000" fill-opacity="1"><g transform="translate(416.208105, 272.77106)"><g><path d="M 16.875 -4.703125 L 19.640625 -7.46875 L 19.640625 -16.609375 L 16.875 -19.375 L 0.140625 -19.375 L 0.140625 -14.9375 L 15.21875 -14.9375 L 15.21875 -9.125 L 6.640625 -9.125 L 6.640625 -13.5625 L 2.21875 -13.5625 L 2.21875 0 L 6.640625 0 L 6.640625 -4.703125 L 11.265625 -4.703125 C 12.640625 -3.125 14 -1.546875 15.40625 0 L 21.03125 0 C 19.625 -1.546875 18.265625 -3.125 16.875 -4.703125 Z M 16.875 -4.703125 "/></g></g></g><g fill="#ff0000" fill-opacity="1"><g transform="translate(440.470299, 272.77106)"><g><path d="M 19.09375 0 L 19.09375 -4.421875 L 6.640625 -4.421875 L 6.640625 -7.46875 L 16.328125 -7.46875 L 16.328125 -11.90625 L 6.640625 -11.90625 L 6.640625 -14.9375 L 19.09375 -14.9375 L 19.09375 -19.375 L 0.140625 -19.375 L 0.140625 -14.9375 L 2.21875 -14.9375 L 2.21875 0 Z M 19.09375 0 "/></g></g></g><g fill="#ff0000" fill-opacity="1"><g transform="translate(463.902582, 272.77106)"><g><path d="M 18.125 0 L 20.890625 -2.765625 L 20.890625 -11.90625 L 11.765625 -11.90625 L 11.765625 -7.46875 L 16.46875 -7.46875 L 16.46875 -4.421875 L 5.8125 -4.421875 L 5.8125 -14.9375 L 18.8125 -14.9375 L 18.8125 -19.375 L 4.15625 -19.375 L 1.390625 -16.609375 L 1.390625 -2.765625 L 4.15625 0 Z M 18.125 0 "/></g></g></g><g fill="#ff0000" fill-opacity="1"><g transform="translate(489.132996, 272.77106)"><g><path d="M 23.328125 0 L 14.28125 -19.375 L 5.140625 -19.375 L 5.140625 -14.9375 L 7.21875 -14.9375 L 0.28125 0 L 5.125 0 L 6.671875 -3.328125 L 16.90625 -3.328125 L 18.484375 0 Z M 14.828125 -7.75 L 8.71875 -7.75 L 11.671875 -15.03125 L 11.875 -15.03125 Z M 14.828125 -7.75 "/></g></g></g><g fill="#ff0000" fill-opacity="1"><g transform="translate(515.691269, 272.77106)"><g><path d="M 19.640625 0 L 19.640625 -19.375 L 15.21875 -19.375 L 15.21875 -7.46875 L 6.640625 -19.375 L 0.140625 -19.375 L 0.140625 -14.9375 L 2.21875 -14.9375 L 2.21875 0 L 6.640625 0 L 6.640625 -11.875 L 15.21875 0 Z M 19.640625 0 "/></g></g></g><g fill="#ff0000" fill-opacity="1"><g transform="translate(539.676833, 272.77106)"><g><path d="M 16.875 0 L 19.640625 -2.765625 L 19.640625 -16.609375 L 16.875 -19.375 L 0.140625 -19.375 L 0.140625 -14.9375 L 15.21875 -14.9375 L 15.21875 -4.421875 L 6.640625 -4.421875 L 6.640625 -13.5625 L 2.21875 -13.5625 L 2.21875 0 Z M 16.875 0 "/></g></g></g><g fill="#ff0000" fill-opacity="1"><g transform="translate(563.662398, 272.77106)"><g><path d="M 18.8125 0 L 21.578125 -2.765625 L 21.578125 -16.609375 L 18.8125 -19.375 L 4.15625 -19.375 L 1.390625 -16.609375 L 1.390625 -2.765625 L 4.15625 0 Z M 17.15625 -4.421875 L 5.8125 -4.421875 L 5.8125 -14.9375 L 17.15625 -14.9375 Z M 17.15625 -4.421875 "/></g></g></g><g fill="#ff0000" fill-opacity="1"><g transform="translate(589.584402, 272.77106)"><g><path d="M 5.8125 0 L 5.8125 -4.984375 L 1.390625 -4.984375 L 1.390625 0 Z M 5.8125 0 "/></g></g></g><g fill="#ff0000" fill-opacity="1"><g transform="translate(599.738114, 272.77106)"><g><path d="M 5.8125 0 L 5.8125 -4.984375 L 1.390625 -4.984375 L 1.390625 0 Z M 5.8125 0 "/></g></g></g><g fill="#ff0000" fill-opacity="1"><g transform="translate(609.891827, 272.77106)"><g><path d="M 5.8125 0 L 5.8125 -4.984375 L 1.390625 -4.984375 L 1.390625 0 Z M 5.8125 0 "/></g></g></g><g fill="#00ffff" fill-opacity="1"><g transform="translate(342.904052, 272.433774)"><g><path d="M 20.203125 0 L 20.203125 -4.421875 L 5.8125 -4.421875 L 5.8125 -14.9375 L 16.46875 -14.9375 L 16.46875 -12.171875 L 20.890625 -12.171875 L 20.890625 -16.609375 L 18.125 -19.375 L 4.15625 -19.375 L 1.390625 -16.609375 L 1.390625 -2.765625 L 4.15625 0 Z M 20.203125 0 "/></g></g></g><g fill="#00ffff" fill-opacity="1"><g transform="translate(368.134465, 272.433774)"><g><path d="M 23.328125 0 L 14.28125 -19.375 L 5.140625 -19.375 L 5.140625 -14.9375 L 7.21875 -14.9375 L 0.28125 0 L 5.125 0 L 6.671875 -3.328125 L 16.90625 -3.328125 L 18.484375 0 Z M 14.828125 -7.75 L 8.71875 -7.75 L 11.671875 -15.03125 L 11.875 -15.03125 Z M 14.828125 -7.75 "/></g></g></g><g fill="#00ffff" fill-opacity="1"><g transform="translate(394.692738, 272.433774)"><g><path d="M 16.875 -4.703125 L 19.640625 -7.46875 L 19.640625 -16.609375 L 16.875 -19.375 L 0.140625 -19.375 L 0.140625 -14.9375 L 15.21875 -14.9375 L 15.21875 -9.125 L 6.640625 -9.125 L 6.640625 -13.5625 L 2.21875 -13.5625 L 2.21875 0 L 6.640625 0 L 6.640625 -4.703125 L 11.265625 -4.703125 C 12.640625 -3.125 14 -1.546875 15.40625 0 L 21.03125 0 C 19.625 -1.546875 18.265625 -3.125 16.875 -4.703125 Z M 16.875 -4.703125 "/></g></g></g><g fill="#00ffff" fill-opacity="1"><g transform="translate(418.954932, 272.433774)"><g><path d="M 16.875 -4.703125 L 19.640625 -7.46875 L 19.640625 -16.609375 L 16.875 -19.375 L 0.140625 -19.375 L 0.140625 -14.9375 L 15.21875 -14.9375 L 15.21875 -9.125 L 6.640625 -9.125 L 6.640625 -13.5625 L 2.21875 -13.5625 L 2.21875 0 L 6.640625 0 L 6.640625 -4.703125 L 11.265625 -4.703125 C 12.640625 -3.125 14 -1.546875 15.40625 0 L 21.03125 0 C 19.625 -1.546875 18.265625 -3.125 16.875 -4.703125 Z M 16.875 -4.703125 "/></g></g></g><g fill="#00ffff" fill-opacity="1"><g transform="translate(443.217126, 272.433774)"><g><path d="M 19.09375 0 L 19.09375 -4.421875 L 6.640625 -4.421875 L 6.640625 -7.46875 L 16.328125 -7.46875 L 16.328125 -11.90625 L 6.640625 -11.90625 L 6.640625 -14.9375 L 19.09375 -14.9375 L 19.09375 -19.375 L 0.140625 -19.375 L 0.140625 -14.9375 L 2.21875 -14.9375 L 2.21875 0 Z M 19.09375 0 "/></g></g></g><g fill="#00ffff" fill-opacity="1"><g transform="translate(466.64941, 272.433774)"><g><path d="M 18.125 0 L 20.890625 -2.765625 L 20.890625 -11.90625 L 11.765625 -11.90625 L 11.765625 -7.46875 L 16.46875 -7.46875 L 16.46875 -4.421875 L 5.8125 -4.421875 L 5.8125 -14.9375 L 18.8125 -14.9375 L 18.8125 -19.375 L 4.15625 -19.375 L 1.390625 -16.609375 L 1.390625 -2.765625 L 4.15625 0 Z M 18.125 0 "/></g></g></g><g fill="#00ffff" fill-opacity="1"><g transform="translate(491.879823, 272.433774)"><g><path d="M 23.328125 0 L 14.28125 -19.375 L 5.140625 -19.375 L 5.140625 -14.9375 L 7.21875 -14.9375 L 0.28125 0 L 5.125 0 L 6.671875 -3.328125 L 16.90625 -3.328125 L 18.484375 0 Z M 14.828125 -7.75 L 8.71875 -7.75 L 11.671875 -15.03125 L 11.875 -15.03125 Z M 14.828125 -7.75 "/></g></g></g><g fill="#00ffff" fill-opacity="1"><g transform="translate(518.438096, 272.433774)"><g><path d="M 19.640625 0 L 19.640625 -19.375 L 15.21875 -19.375 L 15.21875 -7.46875 L 6.640625 -19.375 L 0.140625 -19.375 L 0.140625 -14.9375 L 2.21875 -14.9375 L 2.21875 0 L 6.640625 0 L 6.640625 -11.875 L 15.21875 0 Z M 19.640625 0 "/></g></g></g><g fill="#00ffff" fill-opacity="1"><g transform="translate(542.423661, 272.433774)"><g><path d="M 16.875 0 L 19.640625 -2.765625 L 19.640625 -16.609375 L 16.875 -19.375 L 0.140625 -19.375 L 0.140625 -14.9375 L 15.21875 -14.9375 L 15.21875 -4.421875 L 6.640625 -4.421875 L 6.640625 -13.5625 L 2.21875 -13.5625 L 2.21875 0 Z M 16.875 0 "/></g></g></g><g fill="#00ffff" fill-opacity="1"><g transform="translate(566.409226, 272.433774)"><g><path d="M 18.8125 0 L 21.578125 -2.765625 L 21.578125 -16.609375 L 18.8125 -19.375 L 4.15625 -19.375 L 1.390625 -16.609375 L 1.390625 -2.765625 L 4.15625 0 Z M 17.15625 -4.421875 L 5.8125 -4.421875 L 5.8125 -14.9375 L 17.15625 -14.9375 Z M 17.15625 -4.421875 "/></g></g></g><g fill="#00ffff" fill-opacity="1"><g transform="translate(592.33123, 272.433774)"><g><path d="M 5.8125 0 L 5.8125 -4.984375 L 1.390625 -4.984375 L 1.390625 0 Z M 5.8125 0 "/></g></g></g><g fill="#00ffff" fill-opacity="1"><g transform="translate(602.484942, 272.433774)"><g><path d="M 5.8125 0 L 5.8125 -4.984375 L 1.390625 -4.984375 L 1.390625 0 Z M 5.8125 0 "/></g></g></g><g fill="#00ffff" fill-opacity="1"><g transform="translate(612.638654, 272.433774)"><g><path d="M 5.8125 0 L 5.8125 -4.984375 L 1.390625 -4.984375 L 1.390625 0 Z M 5.8125 0 "/></g></g></g><g fill="#ffffff" fill-opacity="1"><g transform="translate(341.530639, 272.602417)"><g><path d="M 20.203125 0 L 20.203125 -4.421875 L 5.8125 -4.421875 L 5.8125 -14.9375 L 16.46875 -14.9375 L 16.46875 -12.171875 L 20.890625 -12.171875 L 20.890625 -16.609375 L 18.125 -19.375 L 4.15625 -19.375 L 1.390625 -16.609375 L 1.390625 -2.765625 L 4.15625 0 Z M 20.203125 0 "/></g></g></g><g fill="#ffffff" fill-opacity="1"><g transform="translate(366.761053, 272.602417)"><g><path d="M 23.328125 0 L 14.28125 -19.375 L 5.140625 -19.375 L 5.140625 -14.9375 L 7.21875 -14.9375 L 0.28125 0 L 5.125 0 L 6.671875 -3.328125 L 16.90625 -3.328125 L 18.484375 0 Z M 14.828125 -7.75 L 8.71875 -7.75 L 11.671875 -15.03125 L 11.875 -15.03125 Z M 14.828125 -7.75 "/></g></g></g><g fill="#ffffff" fill-opacity="1"><g transform="translate(393.319326, 272.602417)"><g><path d="M 16.875 -4.703125 L 19.640625 -7.46875 L 19.640625 -16.609375 L 16.875 -19.375 L 0.140625 -19.375 L 0.140625 -14.9375 L 15.21875 -14.9375 L 15.21875 -9.125 L 6.640625 -9.125 L 6.640625 -13.5625 L 2.21875 -13.5625 L 2.21875 0 L 6.640625 0 L 6.640625 -4.703125 L 11.265625 -4.703125 C 12.640625 -3.125 14 -1.546875 15.40625 0 L 21.03125 0 C 19.625 -1.546875 18.265625 -3.125 16.875 -4.703125 Z M 16.875 -4.703125 "/></g></g></g><g fill="#ffffff" fill-opacity="1"><g transform="translate(417.58152, 272.602417)"><g><path d="M 16.875 -4.703125 L 19.640625 -7.46875 L 19.640625 -16.609375 L 16.875 -19.375 L 0.140625 -19.375 L 0.140625 -14.9375 L 15.21875 -14.9375 L 15.21875 -9.125 L 6.640625 -9.125 L 6.640625 -13.5625 L 2.21875 -13.5625 L 2.21875 0 L 6.640625 0 L 6.640625 -4.703125 L 11.265625 -4.703125 C 12.640625 -3.125 14 -1.546875 15.40625 0 L 21.03125 0 C 19.625 -1.546875 18.265625 -3.125 16.875 -4.703125 Z M 16.875 -4.703125 "/></g></g></g><g fill="#ffffff" fill-opacity="1"><g transform="translate(441.843714, 272.602417)"><g><path d="M 19.09375 0 L 19.09375 -4.421875 L 6.640625 -4.421875 L 6.640625 -7.46875 L 16.328125 -7.46875 L 16.328125 -11.90625 L 6.640625 -11.90625 L 6.640625 -14.9375 L 19.09375 -14.9375 L 19.09375 -19.375 L 0.140625 -19.375 L 0.140625 -14.9375 L 2.21875 -14.9375 L 2.21875 0 Z M 19.09375 0 "/></g></g></g><g fill="#ffffff" fill-opacity="1"><g transform="translate(465.275997, 272.602417)"><g><path d="M 18.125 0 L 20.890625 -2.765625 L 20.890625 -11.90625 L 11.765625 -11.90625 L 11.765625 -7.46875 L 16.46875 -7.46875 L 16.46875 -4.421875 L 5.8125 -4.421875 L 5.8125 -14.9375 L 18.8125 -14.9375 L 18.8125 -19.375 L 4.15625 -19.375 L 1.390625 -16.609375 L 1.390625 -2.765625 L 4.15625 0 Z M 18.125 0 "/></g></g></g><g fill="#ffffff" fill-opacity="1"><g transform="translate(490.506411, 272.602417)"><g><path d="M 23.328125 0 L 14.28125 -19.375 L 5.140625 -19.375 L 5.140625 -14.9375 L 7.21875 -14.9375 L 0.28125 0 L 5.125 0 L 6.671875 -3.328125 L 16.90625 -3.328125 L 18.484375 0 Z M 14.828125 -7.75 L 8.71875 -7.75 L 11.671875 -15.03125 L 11.875 -15.03125 Z M 14.828125 -7.75 "/></g></g></g><g fill="#ffffff" fill-opacity="1"><g transform="translate(517.064684, 272.602417)"><g><path d="M 19.640625 0 L 19.640625 -19.375 L 15.21875 -19.375 L 15.21875 -7.46875 L 6.640625 -19.375 L 0.140625 -19.375 L 0.140625 -14.9375 L 2.21875 -14.9375 L 2.21875 0 L 6.640625 0 L 6.640625 -11.875 L 15.21875 0 Z M 19.640625 0 "/></g></g></g><g fill="#ffffff" fill-opacity="1"><g transform="translate(541.050248, 272.602417)"><g><path d="M 16.875 0 L 19.640625 -2.765625 L 19.640625 -16.609375 L 16.875 -19.375 L 0.140625 -19.375 L 0.140625 -14.9375 L 15.21875 -14.9375 L 15.21875 -4.421875 L 6.640625 -4.421875 L 6.640625 -13.5625 L 2.21875 -13.5625 L 2.21875 0 Z M 16.875 0 "/></g></g></g><g fill="#ffffff" fill-opacity="1"><g transform="translate(565.035813, 272.602417)"><g><path d="M 18.8125 0 L 21.578125 -2.765625 L 21.578125 -16.609375 L 18.8125 -19.375 L 4.15625 -19.375 L 1.390625 -16.609375 L 1.390625 -2.765625 L 4.15625 0 Z M 17.15625 -4.421875 L 5.8125 -4.421875 L 5.8125 -14.9375 L 17.15625 -14.9375 Z M 17.15625 -4.421875 "/></g></g></g><g fill="#ffffff" fill-opacity="1"><g transform="translate(590.957817, 272.602417)"><g><path d="M 5.8125 0 L 5.8125 -4.984375 L 1.390625 -4.984375 L 1.390625 0 Z M 5.8125 0 "/></g></g></g><g fill="#ffffff" fill-opacity="1"><g transform="translate(601.111529, 272.602417)"><g><path d="M 5.8125 0 L 5.8125 -4.984375 L 1.390625 -4.984375 L 1.390625 0 Z M 5.8125 0 "/></g></g></g><g fill="#ffffff" fill-opacity="1"><g transform="translate(611.265242, 272.602417)"><g><path d="M 5.8125 0 L 5.8125 -4.984375 L 1.390625 -4.984375 L 1.390625 0 Z M 5.8125 0 "/></g></g></g><g fill="#ff0000" fill-opacity="1"><g transform="translate(416.753502, 293.37273)"><g><path d="M 6.421875 -1.78125 L 7.46875 -2.84375 L 7.46875 -6.3125 L 6.421875 -7.359375 L 0.046875 -7.359375 L 0.046875 -5.671875 L 5.78125 -5.671875 L 5.78125 -3.46875 L 2.53125 -3.46875 L 2.53125 -5.15625 L 0.84375 -5.15625 L 0.84375 0 L 2.53125 0 L 2.53125 -1.78125 Z M 6.421875 -1.78125 "/></g></g></g><g fill="#ff0000" fill-opacity="1"><g transform="translate(425.661349, 293.37273)"><g><path d="M 7.9375 0 L 7.9375 -6.3125 L 6.890625 -7.359375 L 0.78125 -7.359375 L 0.78125 -5.671875 L 6.25 -5.671875 L 6.25 -4.515625 L 1.578125 -4.515625 L 0.53125 -3.46875 L 0.53125 -1.046875 L 1.578125 0 L 5.734375 0 L 5.734375 -1.6875 L 2.203125 -1.6875 L 2.203125 -2.84375 L 6.25 -2.84375 L 6.25 -1.046875 L 7.3125 0 Z M 7.9375 0 "/></g></g></g><g fill="#ff0000" fill-opacity="1"><g transform="translate(435.25271, 293.37273)"><g><path d="M 6.421875 -1.78125 L 7.46875 -2.84375 L 7.46875 -6.3125 L 6.421875 -7.359375 L 0.046875 -7.359375 L 0.046875 -5.671875 L 5.78125 -5.671875 L 5.78125 -3.46875 L 2.53125 -3.46875 L 2.53125 -5.15625 L 0.84375 -5.15625 L 0.84375 0 L 2.53125 0 L 2.53125 -1.78125 L 4.28125 -1.78125 C 4.8125 -1.1875 5.328125 -0.59375 5.859375 0 L 7.984375 0 C 7.453125 -0.59375 6.9375 -1.1875 6.421875 -1.78125 Z M 6.421875 -1.78125 "/></g></g></g><g fill="#ff0000" fill-opacity="1"><g transform="translate(444.476024, 293.37273)"><g><path d="M 7.9375 0 L 7.9375 -6.3125 L 6.890625 -7.359375 L 0.78125 -7.359375 L 0.78125 -5.671875 L 6.25 -5.671875 L 6.25 -4.515625 L 1.578125 -4.515625 L 0.53125 -3.46875 L 0.53125 -1.046875 L 1.578125 0 L 5.734375 0 L 5.734375 -1.6875 L 2.203125 -1.6875 L 2.203125 -2.84375 L 6.25 -2.84375 L 6.25 -1.046875 L 7.3125 0 Z M 7.9375 0 "/></g></g></g><g fill="#ff0000" fill-opacity="1"><g transform="translate(454.067385, 293.37273)"><g><path d="M 7.25 0 L 7.25 -1.6875 L 2.53125 -1.6875 L 2.53125 -7.359375 L 0.046875 -7.359375 L 0.046875 -5.671875 L 0.84375 -5.671875 L 0.84375 0 Z M 7.25 0 "/></g></g></g><g fill="#ff0000" fill-opacity="1"><g transform="translate(462.554605, 293.37273)"><g><path d="M 7.25 0 L 7.25 -1.6875 L 2.53125 -1.6875 L 2.53125 -7.359375 L 0.046875 -7.359375 L 0.046875 -5.671875 L 0.84375 -5.671875 L 0.84375 0 Z M 7.25 0 "/></g></g></g><g fill="#ff0000" fill-opacity="1"><g transform="translate(471.041825, 293.37273)"><g><path d="M 7.9375 0 L 7.9375 -6.3125 L 6.890625 -7.359375 L 0.78125 -7.359375 L 0.78125 -5.671875 L 6.25 -5.671875 L 6.25 -4.515625 L 1.578125 -4.515625 L 0.53125 -3.46875 L 0.53125 -1.046875 L 1.578125 0 L 5.734375 0 L 5.734375 -1.6875 L 2.203125 -1.6875 L 2.203125 -2.84375 L 6.25 -2.84375 L 6.25 -1.046875 L 7.3125 0 Z M 7.9375 0 "/></g></g></g><g fill="#ff0000" fill-opacity="1"><g transform="translate(480.633186, 293.37273)"><g><path d="M 3.65625 -5.046875 C 3.078125 -5.8125 2.5 -6.59375 1.90625 -7.359375 L -0.15625 -7.359375 L 2.609375 -3.6875 L -0.15625 0 L 1.90625 0 L 3.640625 -2.296875 L 5.421875 0 L 7.484375 0 L 4.71875 -3.6875 C 5.625 -4.921875 6.546875 -6.125 7.46875 -7.359375 L 5.390625 -7.359375 Z M 3.65625 -5.046875 "/></g></g></g><g fill="#ff0000" fill-opacity="1"><g transform="translate(489.614642, 293.37273)"><g/></g></g><g fill="#ff0000" fill-opacity="1"><g transform="translate(494.947144, 293.37273)"><g><path d="M 6.890625 0 L 7.9375 -1.046875 L 7.9375 -4.515625 L 4.46875 -4.515625 L 4.46875 -2.84375 L 6.25 -2.84375 L 6.25 -1.6875 L 2.203125 -1.6875 L 2.203125 -5.671875 L 7.15625 -5.671875 L 7.15625 -7.359375 L 1.578125 -7.359375 L 0.53125 -6.3125 L 0.53125 -1.046875 L 1.578125 0 Z M 6.890625 0 "/></g></g></g><g fill="#ff0000" fill-opacity="1"><g transform="translate(504.538505, 293.37273)"><g><path d="M 7.9375 0 L 7.9375 -6.3125 L 6.890625 -7.359375 L 0.78125 -7.359375 L 0.78125 -5.671875 L 6.25 -5.671875 L 6.25 -4.515625 L 1.578125 -4.515625 L 0.53125 -3.46875 L 0.53125 -1.046875 L 1.578125 0 L 5.734375 0 L 5.734375 -1.6875 L 2.203125 -1.6875 L 2.203125 -2.84375 L 6.25 -2.84375 L 6.25 -1.046875 L 7.3125 0 Z M 7.9375 0 "/></g></g></g><g fill="#ff0000" fill-opacity="1"><g transform="translate(514.129866, 293.37273)"><g><path d="M 2.46875 -7.359375 L 0.046875 -7.359375 L 0.046875 -5.671875 L 0.84375 -5.671875 L 0.84375 0 L 2.53125 0 L 2.53125 -4.484375 C 3.28125 -3.453125 4.03125 -2.421875 4.8125 -1.40625 C 5.5625 -2.421875 6.328125 -3.453125 7.09375 -4.484375 L 7.09375 0 L 8.78125 0 L 8.78125 -7.359375 L 7.15625 -7.359375 C 6.359375 -6.3125 5.578125 -5.25 4.8125 -4.203125 Z M 2.46875 -7.359375 "/></g></g></g><g fill="#ff0000" fill-opacity="1"><g transform="translate(524.562492, 293.37273)"><g><path d="M 7.671875 0 L 7.671875 -1.6875 L 2.203125 -1.6875 L 2.203125 -5.671875 L 6.25 -5.671875 L 6.25 -4.421875 L 2.734375 -4.421875 L 2.734375 -2.734375 L 6.890625 -2.734375 L 7.9375 -3.78125 L 7.9375 -6.3125 L 6.890625 -7.359375 L 1.578125 -7.359375 L 0.53125 -6.3125 L 0.53125 -1.046875 L 1.578125 0 Z M 7.671875 0 "/></g></g></g><g fill="#ff0000" fill-opacity="1"><g transform="translate(534.153853, 293.37273)"><g><path d="M 6.46875 0 L 7.515625 -1.046875 L 7.515625 -3.46875 L 6.46875 -4.515625 L 2.203125 -4.515625 L 2.203125 -5.671875 L 7.515625 -5.671875 L 7.515625 -7.359375 L 1.578125 -7.359375 L 0.53125 -6.3125 L 0.53125 -3.890625 L 1.578125 -2.84375 L 5.84375 -2.84375 L 5.84375 -1.6875 L 0.53125 -1.6875 L 0.53125 0 Z M 6.46875 0 "/></g></g></g><g fill="#00ffff" fill-opacity="1"><g transform="translate(417.798227, 293.244472)"><g><path d="M 6.421875 -1.78125 L 7.46875 -2.84375 L 7.46875 -6.3125 L 6.421875 -7.359375 L 0.046875 -7.359375 L 0.046875 -5.671875 L 5.78125 -5.671875 L 5.78125 -3.46875 L 2.53125 -3.46875 L 2.53125 -5.15625 L 0.84375 -5.15625 L 0.84375 0 L 2.53125 0 L 2.53125 -1.78125 Z M 6.421875 -1.78125 "/></g></g></g><g fill="#00ffff" fill-opacity="1"><g transform="translate(426.706073, 293.244472)"><g><path d="M 7.9375 0 L 7.9375 -6.3125 L 6.890625 -7.359375 L 0.78125 -7.359375 L 0.78125 -5.671875 L 6.25 -5.671875 L 6.25 -4.515625 L 1.578125 -4.515625 L 0.53125 -3.46875 L 0.53125 -1.046875 L 1.578125 0 L 5.734375 0 L 5.734375 -1.6875 L 2.203125 -1.6875 L 2.203125 -2.84375 L 6.25 -2.84375 L 6.25 -1.046875 L 7.3125 0 Z M 7.9375 0 "/></g></g></g><g fill="#00ffff" fill-opacity="1"><g transform="translate(436.297434, 293.244472)"><g><path d="M 6.421875 -1.78125 L 7.46875 -2.84375 L 7.46875 -6.3125 L 6.421875 -7.359375 L 0.046875 -7.359375 L 0.046875 -5.671875 L 5.78125 -5.671875 L 5.78125 -3.46875 L 2.53125 -3.46875 L 2.53125 -5.15625 L 0.84375 -5.15625 L 0.84375 0 L 2.53125 0 L 2.53125 -1.78125 L 4.28125 -1.78125 C 4.8125 -1.1875 5.328125 -0.59375 5.859375 0 L 7.984375 0 C 7.453125 -0.59375 6.9375 -1.1875 6.421875 -1.78125 Z M 6.421875 -1.78125 "/></g></g></g><g fill="#00ffff" fill-opacity="1"><g transform="translate(445.520748, 293.244472)"><g><path d="M 7.9375 0 L 7.9375 -6.3125 L 6.890625 -7.359375 L 0.78125 -7.359375 L 0.78125 -5.671875 L 6.25 -5.671875 L 6.25 -4.515625 L 1.578125 -4.515625 L 0.53125 -3.46875 L 0.53125 -1.046875 L 1.578125 0 L 5.734375 0 L 5.734375 -1.6875 L 2.203125 -1.6875 L 2.203125 -2.84375 L 6.25 -2.84375 L 6.25 -1.046875 L 7.3125 0 Z M 7.9375 0 "/></g></g></g><g fill="#00ffff" fill-opacity="1"><g transform="translate(455.11211, 293.244472)"><g><path d="M 7.25 0 L 7.25 -1.6875 L 2.53125 -1.6875 L 2.53125 -7.359375 L 0.046875 -7.359375 L 0.046875 -5.671875 L 0.84375 -5.671875 L 0.84375 0 Z M 7.25 0 "/></g></g></g><g fill="#00ffff" fill-opacity="1"><g transform="translate(463.599329, 293.244472)"><g><path d="M 7.25 0 L 7.25 -1.6875 L 2.53125 -1.6875 L 2.53125 -7.359375 L 0.046875 -7.359375 L 0.046875 -5.671875 L 0.84375 -5.671875 L 0.84375 0 Z M 7.25 0 "/></g></g></g><g fill="#00ffff" fill-opacity="1"><g transform="translate(472.086549, 293.244472)"><g><path d="M 7.9375 0 L 7.9375 -6.3125 L 6.890625 -7.359375 L 0.78125 -7.359375 L 0.78125 -5.671875 L 6.25 -5.671875 L 6.25 -4.515625 L 1.578125 -4.515625 L 0.53125 -3.46875 L 0.53125 -1.046875 L 1.578125 0 L 5.734375 0 L 5.734375 -1.6875 L 2.203125 -1.6875 L 2.203125 -2.84375 L 6.25 -2.84375 L 6.25 -1.046875 L 7.3125 0 Z M 7.9375 0 "/></g></g></g><g fill="#00ffff" fill-opacity="1"><g transform="translate(481.67791, 293.244472)"><g><path d="M 3.65625 -5.046875 C 3.078125 -5.8125 2.5 -6.59375 1.90625 -7.359375 L -0.15625 -7.359375 L 2.609375 -3.6875 L -0.15625 0 L 1.90625 0 L 3.640625 -2.296875 L 5.421875 0 L 7.484375 0 L 4.71875 -3.6875 C 5.625 -4.921875 6.546875 -6.125 7.46875 -7.359375 L 5.390625 -7.359375 Z M 3.65625 -5.046875 "/></g></g></g><g fill="#00ffff" fill-opacity="1"><g transform="translate(490.659367, 293.244472)"><g/></g></g><g fill="#00ffff" fill-opacity="1"><g transform="translate(495.991868, 293.244472)"><g><path d="M 6.890625 0 L 7.9375 -1.046875 L 7.9375 -4.515625 L 4.46875 -4.515625 L 4.46875 -2.84375 L 6.25 -2.84375 L 6.25 -1.6875 L 2.203125 -1.6875 L 2.203125 -5.671875 L 7.15625 -5.671875 L 7.15625 -7.359375 L 1.578125 -7.359375 L 0.53125 -6.3125 L 0.53125 -1.046875 L 1.578125 0 Z M 6.890625 0 "/></g></g></g><g fill="#00ffff" fill-opacity="1"><g transform="translate(505.583229, 293.244472)"><g><path d="M 7.9375 0 L 7.9375 -6.3125 L 6.890625 -7.359375 L 0.78125 -7.359375 L 0.78125 -5.671875 L 6.25 -5.671875 L 6.25 -4.515625 L 1.578125 -4.515625 L 0.53125 -3.46875 L 0.53125 -1.046875 L 1.578125 0 L 5.734375 0 L 5.734375 -1.6875 L 2.203125 -1.6875 L 2.203125 -2.84375 L 6.25 -2.84375 L 6.25 -1.046875 L 7.3125 0 Z M 7.9375 0 "/></g></g></g><g fill="#00ffff" fill-opacity="1"><g transform="translate(515.17459, 293.244472)"><g><path d="M 2.46875 -7.359375 L 0.046875 -7.359375 L 0.046875 -5.671875 L 0.84375 -5.671875 L 0.84375 0 L 2.53125 0 L 2.53125 -4.484375 C 3.28125 -3.453125 4.03125 -2.421875 4.8125 -1.40625 C 5.5625 -2.421875 6.328125 -3.453125 7.09375 -4.484375 L 7.09375 0 L 8.78125 0 L 8.78125 -7.359375 L 7.15625 -7.359375 C 6.359375 -6.3125 5.578125 -5.25 4.8125 -4.203125 Z M 2.46875 -7.359375 "/></g></g></g><g fill="#00ffff" fill-opacity="1"><g transform="translate(525.607216, 293.244472)"><g><path d="M 7.671875 0 L 7.671875 -1.6875 L 2.203125 -1.6875 L 2.203125 -5.671875 L 6.25 -5.671875 L 6.25 -4.421875 L 2.734375 -4.421875 L 2.734375 -2.734375 L 6.890625 -2.734375 L 7.9375 -3.78125 L 7.9375 -6.3125 L 6.890625 -7.359375 L 1.578125 -7.359375 L 0.53125 -6.3125 L 0.53125 -1.046875 L 1.578125 0 Z M 7.671875 0 "/></g></g></g><g fill="#00ffff" fill-opacity="1"><g transform="translate(535.198577, 293.244472)"><g><path d="M 6.46875 0 L 7.515625 -1.046875 L 7.515625 -3.46875 L 6.46875 -4.515625 L 2.203125 -4.515625 L 2.203125 -5.671875 L 7.515625 -5.671875 L 7.515625 -7.359375 L 1.578125 -7.359375 L 0.53125 -6.3125 L 0.53125 -3.890625 L 1.578125 -2.84375 L 5.84375 -2.84375 L 5.84375 -1.6875 L 0.53125 -1.6875 L 0.53125 0 Z M 6.46875 0 "/></g></g></g><g fill="#ffffff" fill-opacity="1"><g transform="translate(417.275864, 293.308601)"><g><path d="M 6.421875 -1.78125 L 7.46875 -2.84375 L 7.46875 -6.3125 L 6.421875 -7.359375 L 0.046875 -7.359375 L 0.046875 -5.671875 L 5.78125 -5.671875 L 5.78125 -3.46875 L 2.53125 -3.46875 L 2.53125 -5.15625 L 0.84375 -5.15625 L 0.84375 0 L 2.53125 0 L 2.53125 -1.78125 Z M 6.421875 -1.78125 "/></g></g></g><g fill="#ffffff" fill-opacity="1"><g transform="translate(426.183711, 293.308601)"><g><path d="M 7.9375 0 L 7.9375 -6.3125 L 6.890625 -7.359375 L 0.78125 -7.359375 L 0.78125 -5.671875 L 6.25 -5.671875 L 6.25 -4.515625 L 1.578125 -4.515625 L 0.53125 -3.46875 L 0.53125 -1.046875 L 1.578125 0 L 5.734375 0 L 5.734375 -1.6875 L 2.203125 -1.6875 L 2.203125 -2.84375 L 6.25 -2.84375 L 6.25 -1.046875 L 7.3125 0 Z M 7.9375 0 "/></g></g></g><g fill="#ffffff" fill-opacity="1"><g transform="translate(435.775072, 293.308601)"><g><path d="M 6.421875 -1.78125 L 7.46875 -2.84375 L 7.46875 -6.3125 L 6.421875 -7.359375 L 0.046875 -7.359375 L 0.046875 -5.671875 L 5.78125 -5.671875 L 5.78125 -3.46875 L 2.53125 -3.46875 L 2.53125 -5.15625 L 0.84375 -5.15625 L 0.84375 0 L 2.53125 0 L 2.53125 -1.78125 L 4.28125 -1.78125 C 4.8125 -1.1875 5.328125 -0.59375 5.859375 0 L 7.984375 0 C 7.453125 -0.59375 6.9375 -1.1875 6.421875 -1.78125 Z M 6.421875 -1.78125 "/></g></g></g><g fill="#ffffff" fill-opacity="1"><g transform="translate(444.998386, 293.308601)"><g><path d="M 7.9375 0 L 7.9375 -6.3125 L 6.890625 -7.359375 L 0.78125 -7.359375 L 0.78125 -5.671875 L 6.25 -5.671875 L 6.25 -4.515625 L 1.578125 -4.515625 L 0.53125 -3.46875 L 0.53125 -1.046875 L 1.578125 0 L 5.734375 0 L 5.734375 -1.6875 L 2.203125 -1.6875 L 2.203125 -2.84375 L 6.25 -2.84375 L 6.25 -1.046875 L 7.3125 0 Z M 7.9375 0 "/></g></g></g><g fill="#ffffff" fill-opacity="1"><g transform="translate(454.589747, 293.308601)"><g><path d="M 7.25 0 L 7.25 -1.6875 L 2.53125 -1.6875 L 2.53125 -7.359375 L 0.046875 -7.359375 L 0.046875 -5.671875 L 0.84375 -5.671875 L 0.84375 0 Z M 7.25 0 "/></g></g></g><g fill="#ffffff" fill-opacity="1"><g transform="translate(463.076967, 293.308601)"><g><path d="M 7.25 0 L 7.25 -1.6875 L 2.53125 -1.6875 L 2.53125 -7.359375 L 0.046875 -7.359375 L 0.046875 -5.671875 L 0.84375 -5.671875 L 0.84375 0 Z M 7.25 0 "/></g></g></g><g fill="#ffffff" fill-opacity="1"><g transform="translate(471.564187, 293.308601)"><g><path d="M 7.9375 0 L 7.9375 -6.3125 L 6.890625 -7.359375 L 0.78125 -7.359375 L 0.78125 -5.671875 L 6.25 -5.671875 L 6.25 -4.515625 L 1.578125 -4.515625 L 0.53125 -3.46875 L 0.53125 -1.046875 L 1.578125 0 L 5.734375 0 L 5.734375 -1.6875 L 2.203125 -1.6875 L 2.203125 -2.84375 L 6.25 -2.84375 L 6.25 -1.046875 L 7.3125 0 Z M 7.9375 0 "/></g></g></g><g fill="#ffffff" fill-opacity="1"><g transform="translate(481.155548, 293.308601)"><g><path d="M 3.65625 -5.046875 C 3.078125 -5.8125 2.5 -6.59375 1.90625 -7.359375 L -0.15625 -7.359375 L 2.609375 -3.6875 L -0.15625 0 L 1.90625 0 L 3.640625 -2.296875 L 5.421875 0 L 7.484375 0 L 4.71875 -3.6875 C 5.625 -4.921875 6.546875 -6.125 7.46875 -7.359375 L 5.390625 -7.359375 Z M 3.65625 -5.046875 "/></g></g></g><g fill="#ffffff" fill-opacity="1"><g transform="translate(490.137004, 293.308601)"><g/></g></g><g fill="#ffffff" fill-opacity="1"><g transform="translate(495.469506, 293.308601)"><g><path d="M 6.890625 0 L 7.9375 -1.046875 L 7.9375 -4.515625 L 4.46875 -4.515625 L 4.46875 -2.84375 L 6.25 -2.84375 L 6.25 -1.6875 L 2.203125 -1.6875 L 2.203125 -5.671875 L 7.15625 -5.671875 L 7.15625 -7.359375 L 1.578125 -7.359375 L 0.53125 -6.3125 L 0.53125 -1.046875 L 1.578125 0 Z M 6.890625 0 "/></g></g></g><g fill="#ffffff" fill-opacity="1"><g transform="translate(505.060867, 293.308601)"><g><path d="M 7.9375 0 L 7.9375 -6.3125 L 6.890625 -7.359375 L 0.78125 -7.359375 L 0.78125 -5.671875 L 6.25 -5.671875 L 6.25 -4.515625 L 1.578125 -4.515625 L 0.53125 -3.46875 L 0.53125 -1.046875 L 1.578125 0 L 5.734375 0 L 5.734375 -1.6875 L 2.203125 -1.6875 L 2.203125 -2.84375 L 6.25 -2.84375 L 6.25 -1.046875 L 7.3125 0 Z M 7.9375 0 "/></g></g></g><g fill="#ffffff" fill-opacity="1"><g transform="translate(514.652228, 293.308601)"><g><path d="M 2.46875 -7.359375 L 0.046875 -7.359375 L 0.046875 -5.671875 L 0.84375 -5.671875 L 0.84375 0 L 2.53125 0 L 2.53125 -4.484375 C 3.28125 -3.453125 4.03125 -2.421875 4.8125 -1.40625 C 5.5625 -2.421875 6.328125 -3.453125 7.09375 -4.484375 L 7.09375 0 L 8.78125 0 L 8.78125 -7.359375 L 7.15625 -7.359375 C 6.359375 -6.3125 5.578125 -5.25 4.8125 -4.203125 Z M 2.46875 -7.359375 "/></g></g></g><g fill="#ffffff" fill-opacity="1"><g transform="translate(525.084854, 293.308601)"><g><path d="M 7.671875 0 L 7.671875 -1.6875 L 2.203125 -1.6875 L 2.203125 -5.671875 L 6.25 -5.671875 L 6.25 -4.421875 L 2.734375 -4.421875 L 2.734375 -2.734375 L 6.890625 -2.734375 L 7.9375 -3.78125 L 7.9375 -6.3125 L 6.890625 -7.359375 L 1.578125 -7.359375 L 0.53125 -6.3125 L 0.53125 -1.046875 L 1.578125 0 Z M 7.671875 0 "/></g></g></g><g fill="#ffffff" fill-opacity="1"><g transform="translate(534.676215, 293.308601)"><g><path d="M 6.46875 0 L 7.515625 -1.046875 L 7.515625 -3.46875 L 6.46875 -4.515625 L 2.203125 -4.515625 L 2.203125 -5.671875 L 7.515625 -5.671875 L 7.515625 -7.359375 L 1.578125 -7.359375 L 0.53125 -6.3125 L 0.53125 -3.890625 L 1.578125 -2.84375 L 5.84375 -2.84375 L 5.84375 -1.6875 L 0.53125 -1.6875 L 0.53125 0 Z M 6.46875 0 "/></g></g></g><g mask="url(#9ec2ef4514)"><g transform="matrix(1, 0, 0, 1, 35, 0.000000000000017795)"><g clip-path="url(#2432a182c5)"><g clip-path="url(#f591a9c7ab)"><path fill="#000000" d="M 292.566406 251.730469 C 293.734375 233.042969 297 228.230469 297.242188 227.898438 C 297.453125 227.675781 297.65625 227.445312 297.847656 227.210938 C 305.464844 224.917969 313.191406 222.300781 321.019531 219.367188 L 346.003906 208.960938 C 373.25 196.5625 391.269531 184.972656 392.019531 184.484375 L 410.105469 172.78125 L 329.625 129.535156 C 320.6875 124.738281 311.492188 120.507812 302.035156 116.84375 L 235.179688 90.9375 C 241.757812 81.191406 275.375 47.507812 275.375 47.507812 C 275.375 47.507812 254.050781 14.609375 208.160156 4.25 C 162.992188 -5.929688 138.398438 8.414062 138.414062 8.480469 L 138.191406 20.246094 C 135.742188 53.246094 150.351562 86.558594 150.351562 86.558594 L 91.863281 121.695312 C 80.808594 128.144531 70.164062 135.210938 59.925781 142.890625 L 6.214844 183.140625 L 11.957031 192.9375 C 12.667969 194.148438 19.304688 205.097656 34.285156 216.363281 L 47.757812 225.042969 C 48.15625 225.300781 48.566406 225.546875 48.984375 225.769531 C 59.140625 231.191406 69.828125 235.1875 81.050781 237.753906 L 90.160156 275.492188 C 90.808594 278.183594 91.761719 280.765625 93.019531 283.230469 C 94.277344 285.699219 95.800781 287.988281 97.597656 290.097656 C 99.390625 292.207031 101.40625 294.078125 103.640625 295.714844 C 105.875 297.351562 108.269531 298.707031 110.820312 299.78125 L 140.753906 312.355469 L 116.871094 316.585938 C 115.53125 316.820312 114.214844 317.140625 112.921875 317.554688 C 111.625 317.964844 110.367188 318.464844 109.140625 319.050781 C 107.914062 319.636719 106.730469 320.300781 105.597656 321.046875 C 104.460938 321.792969 103.382812 322.613281 102.359375 323.507812 C 101.335938 324.402344 100.375 325.359375 99.484375 326.386719 C 98.59375 327.410156 97.773438 328.492188 97.027344 329.628906 C 96.285156 330.765625 95.621094 331.945312 95.039062 333.175781 C 94.457031 334.402344 93.957031 335.664062 93.546875 336.957031 C 85.210938 363.089844 55.160156 450.761719 18.304688 480.703125 L 0.816406 494.917969 L 39.84375 508.96875 L 36.507812 520.84375 L 98.175781 530.605469 L 101.503906 522.332031 L 133.890625 518.839844 C 136.527344 527.085938 142.972656 544.941406 152.285156 555.445312 C 164.691406 569.453125 168.1875 552.585938 168.1875 545.585938 C 168.1875 540.78125 169.238281 527.261719 173.097656 514.320312 L 194.261719 516.839844 C 195.632812 523.921875 196.5 530.722656 196.816406 533.820312 C 197.765625 543.042969 201.253906 574.34375 219.078125 548.136719 C 224.394531 540.292969 227.484375 530.679688 229.242188 521.007812 L 249.410156 523.410156 L 244.21875 508.390625 L 293.578125 501.109375 L 293.054688 499.035156 L 311.242188 501.058594 L 349.949219 483.761719 L 286.640625 410.367188 L 268.578125 368.347656 L 264.269531 338.4375 C 264.035156 336.832031 263.675781 335.253906 263.1875 333.707031 C 262.695312 332.160156 262.085938 330.660156 261.351562 329.214844 C 260.621094 327.765625 259.777344 326.386719 258.820312 325.074219 C 257.863281 323.761719 256.808594 322.535156 255.652344 321.398438 C 254.496094 320.257812 253.257812 319.21875 251.933594 318.277344 C 250.609375 317.339844 249.21875 316.515625 247.761719 315.800781 C 246.300781 315.085938 244.796875 314.496094 243.242188 314.027344 C 241.6875 313.558594 240.105469 313.21875 238.496094 313.007812 L 214.507812 309.890625 C 231.972656 304.484375 252.046875 296.625 271.730469 285.292969 C 273.222656 284.4375 274.652344 283.492188 276.023438 282.460938 C 277.398438 281.429688 278.699219 280.316406 279.933594 279.125 C 281.171875 277.929688 282.328125 276.667969 283.40625 275.332031 C 284.484375 273.996094 285.476562 272.597656 286.382812 271.136719 C 287.285156 269.679688 288.097656 268.171875 288.820312 266.613281 C 289.539062 265.050781 290.15625 263.457031 290.679688 261.820312 C 291.199219 260.183594 291.621094 258.523438 291.9375 256.835938 C 292.25 255.144531 292.460938 253.445312 292.566406 251.730469 Z M 292.566406 251.730469 " fill-opacity="1" fill-rule="nonzero"/></g><path fill="#ffffff" d="M 282.511719 231.390625 C 281.019531 237.578125 280.269531 244.769531 279.867188 250.941406 C 279.714844 253.332031 279.273438 255.667969 278.546875 257.949219 C 277.816406 260.230469 276.820312 262.390625 275.554688 264.421875 C 274.292969 266.457031 272.800781 268.308594 271.078125 269.972656 C 269.359375 271.640625 267.460938 273.070312 265.382812 274.265625 C 229.65625 294.859375 192.132812 303.460938 174.320312 306.613281 C 171.003906 307.203125 167.675781 307.304688 164.328125 306.929688 C 160.984375 306.554688 157.757812 305.714844 154.65625 304.40625 L 115.75 288.054688 C 114.117188 287.367188 112.585938 286.5 111.152344 285.453125 C 109.722656 284.40625 108.433594 283.207031 107.285156 281.855469 C 106.136719 280.507812 105.160156 279.042969 104.355469 277.460938 C 103.550781 275.882812 102.941406 274.230469 102.523438 272.507812 L 94.808594 240.542969 L 95.222656 240.605469 L 98.914062 241.3125 L 98.988281 241.121094 L 100.636719 241.34375 C 101.125 244.035156 101.847656 247.828125 102.238281 249.273438 C 102.875 251.601562 103.511719 259.234375 117.925781 261.777344 C 132.339844 264.320312 139.773438 259.972656 139.773438 252.253906 C 139.773438 249.375 139.667969 246.71875 139.523438 244.53125 C 147.84375 244.367188 156 243.125 163.996094 240.8125 L 165.441406 240.390625 L 165.441406 253.523438 C 165.441406 258.832031 175.613281 269.648438 199.996094 267.738281 C 224.378906 265.828125 240.710938 257.132812 240.710938 248.015625 L 240.710938 238.953125 C 245.265625 238.320312 249.824219 237.636719 254.386719 236.902344 L 265.121094 235.175781 L 265.171875 235.28125 L 267.199219 234.847656 L 267.601562 234.785156 L 267.601562 234.757812 L 275.316406 233.074219 C 277.695312 232.550781 280.097656 231.988281 282.511719 231.390625 Z M 282.511719 231.390625 " fill-opacity="1" fill-rule="nonzero"/><path fill="#ffffff" d="M 329.125 479.128906 L 309.203125 488.027344 L 290.113281 485.90625 L 277.789062 450.28125 L 248.527344 412.109375 L 268.910156 454.96875 L 277.8125 490.597656 L 240.5 496.109375 C 240.5 496.109375 231.164062 457.929688 223.960938 440.964844 C 216.753906 424 220.558594 381.578125 220.558594 381.578125 L 205.308594 426.539062 C 205.308594 426.539062 208.710938 453.683594 213.796875 463.863281 C 218.882812 474.042969 230.753906 508.390625 230.753906 508.390625 L 166.707031 500.761719 C 169.507812 495.089844 169.742188 483.390625 168.886719 470.949219 L 178.289062 443.429688 L 223.074219 370.132812 L 219.011719 363.496094 C 217.722656 361.386719 207.710938 345.6875 191.558594 338.382812 C 192.058594 336.46875 193.039062 334.847656 194.507812 333.519531 L 199.710938 328.984375 L 198.757812 322.15625 C 198.683594 321.644531 198.578125 321.140625 198.449219 320.636719 L 236.875 325.625 C 237.796875 325.746094 238.707031 325.9375 239.601562 326.207031 C 240.492188 326.476562 241.359375 326.8125 242.199219 327.222656 C 243.035156 327.632812 243.835938 328.105469 244.597656 328.644531 C 245.359375 329.183594 246.070312 329.78125 246.734375 330.4375 C 247.398438 331.09375 248.003906 331.796875 248.554688 332.550781 C 249.101562 333.304688 249.585938 334.097656 250.007812 334.933594 C 250.425781 335.765625 250.777344 336.625 251.058594 337.515625 C 251.335938 338.40625 251.542969 339.3125 251.675781 340.234375 L 256.183594 371.835938 L 275.695312 417.214844 Z M 329.125 479.128906 " fill-opacity="1" fill-rule="nonzero"/><path fill="#ffffff" d="M 208.160156 370.140625 L 166.699219 437.988281 L 143.804688 505 L 108.183594 508.816406 L 120.472656 463.863281 L 142.105469 424.417969 L 143.378906 386.253906 L 120.472656 426.117188 L 110.300781 466.40625 L 90.132812 516.453125 L 52.59375 510.507812 L 59.40625 486.34375 L 86.972656 460.050781 L 99.695312 408.734375 C 99.695312 408.734375 80.613281 451.988281 75.519531 456.230469 C 70.425781 460.472656 36.933594 494.402344 36.933594 494.402344 L 26.328125 490.585938 C 65.582031 458.695312 96.214844 370.46875 105.667969 340.800781 C 106.144531 339.308594 106.8125 337.90625 107.671875 336.59375 C 108.53125 335.28125 109.554688 334.113281 110.734375 333.082031 C 111.914062 332.046875 113.214844 331.195312 114.628906 330.519531 C 116.042969 329.84375 117.523438 329.367188 119.066406 329.097656 L 153.984375 322.933594 L 153.984375 317.707031 C 157.628906 318.851562 161.359375 319.546875 165.171875 319.792969 C 168.988281 320.039062 172.777344 319.832031 176.539062 319.164062 C 178.308594 318.851562 180.222656 318.492188 182.277344 318.082031 C 185.753906 321.058594 186.160156 323.933594 186.160156 323.933594 C 175.773438 332.957031 178.574219 347.679688 178.574219 347.679688 C 195.96875 350.203125 208.160156 370.140625 208.160156 370.140625 Z M 208.160156 370.140625 " fill-opacity="1" fill-rule="nonzero"/><path fill="#ffffff" d="M 41.941406 206.21875 C 28.570312 196.132812 22.933594 186.519531 22.933594 186.519531 L 67.53125 153.070312 C 77.378906 145.679688 87.625 138.886719 98.265625 132.6875 L 150.902344 102.546875 C 150.902344 102.546875 159.917969 114 186.199219 114 C 212.480469 114 229.898438 102.546875 229.898438 102.546875 L 297.449219 128.714844 C 306.414062 132.191406 315.136719 136.203125 323.605469 140.757812 L 385.117188 173.8125 C 385.117188 173.8125 367.445312 185.242188 340.738281 197.394531 L 272.304688 153.851562 L 316.523438 207.445312 C 302.203125 212.90625 287.5625 217.304688 272.601562 220.644531 L 232.011719 128.828125 L 252.371094 224.339844 C 231.238281 227.753906 209.992188 230.09375 188.625 231.367188 L 194.480469 181.761719 C 194.910156 178.140625 195.023438 174.507812 194.816406 170.863281 L 192.152344 123.742188 L 187.109375 169.222656 C 186.804688 171.980469 186.316406 174.703125 185.648438 177.398438 L 173.933594 224.671875 L 160.488281 228.59375 C 151.625 231.160156 142.585938 232.199219 133.371094 231.714844 C 123.285156 231.152344 113.621094 230.296875 104.511719 229.046875 L 121.320312 173.222656 C 122.480469 169.371094 123.996094 165.664062 125.859375 162.097656 L 142.144531 130.96875 L 121.78125 154.414062 C 116.695312 160.269531 112.816406 166.835938 110.136719 174.113281 L 90.746094 226.777344 C 89.347656 226.507812 87.945312 226.21875 86.589844 225.949219 C 75.316406 223.636719 64.621094 219.742188 54.5 214.269531 L 78.535156 172.933594 L 61.949219 182.6875 Z M 41.941406 206.21875 " fill-opacity="1" fill-rule="nonzero"/><path fill="#ffffff" d="M 150.90625 20.476562 C 150.90625 20.476562 150.0625 65.03125 166.492188 89.492188 C 166.492188 89.492188 194.164062 99.015625 222.792969 86.628906 C 222.792969 86.628906 238.160156 59.277344 254.6875 48.207031 C 254.6875 48.207031 247.601562 39.558594 236.152344 39.558594 C 236.152344 39.558594 216.117188 63.734375 217.066406 79.953125 C 217.066406 79.953125 213.253906 53.550781 225.019531 36.695312 C 225.019531 36.695312 201.488281 38.285156 196.074219 33.832031 C 196.074219 33.832031 183.992188 67.867188 188.125 79 C 188.125 79 179.535156 50.054688 180.488281 31.605469 C 180.488281 31.605469 166.8125 19.515625 150.90625 20.476562 Z M 150.90625 20.476562 " fill-opacity="1" fill-rule="nonzero"/><path fill="#141929" d="M 192.148438 378.832031 C 192.148438 379.527344 192.078125 380.21875 191.945312 380.898438 C 191.808594 381.582031 191.609375 382.246094 191.339844 382.886719 C 191.074219 383.53125 190.75 384.140625 190.363281 384.722656 C 189.976562 385.300781 189.535156 385.835938 189.042969 386.328125 C 188.550781 386.820312 188.015625 387.257812 187.4375 387.644531 C 186.859375 388.03125 186.246094 388.359375 185.605469 388.625 C 184.960938 388.890625 184.296875 389.09375 183.617188 389.226562 C 182.933594 389.363281 182.242188 389.433594 181.546875 389.433594 C 180.851562 389.433594 180.164062 389.363281 179.480469 389.226562 C 178.796875 389.09375 178.132812 388.890625 177.492188 388.625 C 176.847656 388.359375 176.238281 388.03125 175.660156 387.644531 C 175.082031 387.257812 174.542969 386.820312 174.050781 386.328125 C 173.558594 385.835938 173.121094 385.300781 172.734375 384.722656 C 172.347656 384.140625 172.019531 383.53125 171.753906 382.886719 C 171.488281 382.246094 171.289062 381.582031 171.152344 380.898438 C 171.015625 380.21875 170.949219 379.527344 170.949219 378.832031 C 170.949219 378.136719 171.015625 377.445312 171.152344 376.765625 C 171.289062 376.082031 171.488281 375.417969 171.753906 374.773438 C 172.019531 374.132812 172.347656 373.519531 172.734375 372.941406 C 173.121094 372.363281 173.558594 371.828125 174.050781 371.335938 C 174.542969 370.84375 175.082031 370.40625 175.660156 370.019531 C 176.238281 369.632812 176.847656 369.304688 177.492188 369.039062 C 178.132812 368.773438 178.796875 368.570312 179.480469 368.433594 C 180.164062 368.300781 180.851562 368.230469 181.546875 368.230469 C 182.242188 368.230469 182.933594 368.300781 183.617188 368.433594 C 184.296875 368.570312 184.960938 368.773438 185.605469 369.039062 C 186.246094 369.304688 186.859375 369.632812 187.4375 370.019531 C 188.015625 370.40625 188.550781 370.84375 189.042969 371.335938 C 189.535156 371.828125 189.976562 372.363281 190.363281 372.941406 C 190.75 373.519531 191.074219 374.132812 191.339844 374.773438 C 191.609375 375.417969 191.808594 376.082031 191.945312 376.765625 C 192.078125 377.445312 192.148438 378.136719 192.148438 378.832031 Z M 192.148438 378.832031 " fill-opacity="1" fill-rule="nonzero"/></g></g></g></svg>