<svg xmlns="http://www.w3.org/2000/svg" xmlns:xlink="http://www.w3.org/1999/xlink" width="1280" zoomAndPan="magnify" viewBox="0 0 960 540.000001" height="720" preserveAspectRatio="xMidYMid meet" version="1.0"><defs><filter x="0%" y="0%" width="100%" height="100%" id="78e5716231"><feColorMatrix values="0 0 0 0 1 0 0 0 0 1 0 0 0 0 1 0 0 0 1 0" color-interpolation-filters="sRGB"/></filter><g/><clipPath id="91c6617f3e"><path d="M 0.886719 0 L 959.113281 0 L 959.113281 539 L 0.886719 539 Z M 0.886719 0 " clip-rule="nonzero"/></clipPath><mask id="af4653a7c2"><g filter="url(#78e5716231)"><rect x="-96" width="1152" fill="#000000" y="-54" height="648.000001" fill-opacity="0.13"/></g></mask><clipPath id="ca560d9334"><path d="M 0.789062 0 L 410.28125 0 L 410.28125 539 L 0.789062 539 Z M 0.789062 0 " clip-rule="nonzero"/></clipPath><clipPath id="52c019371f"><rect x="0" width="411" y="0" height="539"/></clipPath></defs><g clip-path="url(#91c6617f3e)"><path fill="#ffffff" d="M 0.886719 0 L 959.113281 0 L 959.113281 539 L 0.886719 539 Z M 0.886719 0 " fill-opacity="1" fill-rule="nonzero"/><path fill="#000000" d="M 0.886719 0 L 959.113281 0 L 959.113281 539 L 0.886719 539 Z M 0.886719 0 " fill-opacity="1" fill-rule="nonzero"/></g><g fill="#ff0000" fill-opacity="1"><g transform="translate(330.409263, 262.37834)"><g><path d="M 11.515625 0 L 11.515625 -2.671875 L 4 -2.671875 L 4 -4.5 L 9.84375 -4.5 L 9.84375 -7.171875 L 4 -7.171875 L 4 -9.015625 L 11.515625 -9.015625 L 11.515625 -11.6875 L 0.078125 -11.6875 L 0.078125 -9.015625 L 1.328125 -9.015625 L 1.328125 0 Z M 11.515625 0 "/></g></g></g><g fill="#ff0000" fill-opacity="1"><g transform="translate(344.544402, 262.37834)"><g><path d="M 5.8125 -8.015625 C 4.875 -9.234375 3.96875 -10.46875 3.03125 -11.6875 L -0.25 -11.6875 L 4.140625 -5.84375 L -0.25 0 L 3.03125 0 L 5.78125 -3.65625 L 8.59375 0 L 11.875 0 L 7.46875 -5.859375 C 8.921875 -7.8125 10.375 -9.734375 11.84375 -11.6875 L 8.546875 -11.6875 Z M 5.8125 -8.015625 "/></g></g></g><g fill="#ff0000" fill-opacity="1"><g transform="translate(358.796356, 262.37834)"><g><path d="M 10.171875 -2.84375 L 11.84375 -4.5 L 11.84375 -10.015625 L 10.171875 -11.6875 L 0.078125 -11.6875 L 0.078125 -9.015625 L 9.171875 -9.015625 L 9.171875 -5.5 L 4 -5.5 L 4 -8.171875 L 1.328125 -8.171875 L 1.328125 0 L 4 0 L 4 -2.84375 Z M 10.171875 -2.84375 "/></g></g></g><g fill="#ff0000" fill-opacity="1"><g transform="translate(372.931495, 262.37834)"><g><path d="M 11.515625 0 L 11.515625 -2.671875 L 4 -2.671875 L 4 -11.6875 L 0.078125 -11.6875 L 0.078125 -9.015625 L 1.328125 -9.015625 L 1.328125 0 Z M 11.515625 0 "/></g></g></g><g fill="#ff0000" fill-opacity="1"><g transform="translate(386.399137, 262.37834)"><g><path d="M 11.34375 0 L 13.015625 -1.671875 L 13.015625 -10.015625 L 11.34375 -11.6875 L 2.5 -11.6875 L 0.828125 -10.015625 L 0.828125 -1.671875 L 2.5 0 Z M 10.34375 -2.671875 L 3.5 -2.671875 L 3.5 -9.015625 L 10.34375 -9.015625 Z M 10.34375 -2.671875 "/></g></g></g><g fill="#ff0000" fill-opacity="1"><g transform="translate(402.036158, 262.37834)"><g><path d="M 10.171875 -2.84375 L 11.84375 -4.5 L 11.84375 -10.015625 L 10.171875 -11.6875 L 0.078125 -11.6875 L 0.078125 -9.015625 L 9.171875 -9.015625 L 9.171875 -5.5 L 4 -5.5 L 4 -8.171875 L 1.328125 -8.171875 L 1.328125 0 L 4 0 L 4 -2.84375 L 6.796875 -2.84375 C 7.625 -1.890625 8.4375 -0.9375 9.296875 0 L 12.6875 0 C 11.828125 -0.9375 11.015625 -1.890625 10.171875 -2.84375 Z M 10.171875 -2.84375 "/></g></g></g><g fill="#ff0000" fill-opacity="1"><g transform="translate(416.671924, 262.37834)"><g><path d="M 12.1875 0 L 12.1875 -2.671875 L 3.5 -2.671875 L 3.5 -9.015625 L 9.921875 -9.015625 L 9.921875 -7.015625 L 4.34375 -7.015625 L 4.34375 -4.34375 L 10.9375 -4.34375 L 12.59375 -6 L 12.59375 -10.015625 L 10.9375 -11.6875 L 2.5 -11.6875 L 0.828125 -10.015625 L 0.828125 -1.671875 L 2.5 0 Z M 12.1875 0 "/></g></g></g><g fill="#ff0000" fill-opacity="1"><g transform="translate(431.891759, 262.37834)"><g/></g></g><g fill="#ff0000" fill-opacity="1"><g transform="translate(440.353138, 262.37834)"><g><path d="M 11.34375 0 L 13.015625 -1.671875 L 13.015625 -10.015625 L 11.34375 -11.6875 L 2.5 -11.6875 L 0.828125 -10.015625 L 0.828125 -1.671875 L 2.5 0 Z M 10.34375 -2.671875 L 3.5 -2.671875 L 3.5 -9.015625 L 10.34375 -9.015625 Z M 10.34375 -2.671875 "/></g></g></g><g fill="#ff0000" fill-opacity="1"><g transform="translate(455.990151, 262.37834)"><g/></g></g><g fill="#ff0000" fill-opacity="1"><g transform="translate(464.45153, 262.37834)"><g><path d="M 12.6875 -1.671875 L 12.6875 -11.6875 L 10.015625 -11.6875 L 10.015625 -2.671875 L 4 -2.671875 L 4 -11.6875 L 0.078125 -11.6875 L 0.078125 -9.015625 L 1.328125 -9.015625 L 1.328125 -1.671875 L 3 0 L 11.015625 0 Z M 12.6875 -1.671875 "/></g></g></g><g fill="#ff0000" fill-opacity="1"><g transform="translate(479.754795, 262.37834)"><g><path d="M 11.84375 0 L 11.84375 -11.6875 L 9.171875 -11.6875 L 9.171875 -4.5 L 4 -11.6875 L 0.078125 -11.6875 L 0.078125 -9.015625 L 1.328125 -9.015625 L 1.328125 0 L 4 0 L 4 -7.15625 L 9.171875 0 Z M 11.84375 0 "/></g></g></g><g fill="#ff0000" fill-opacity="1"><g transform="translate(494.223687, 262.37834)"><g><path d="M 3.5 0 L 3.5 -11.6875 L 0.828125 -11.6875 L 0.828125 0 Z M 3.5 0 "/></g></g></g><g fill="#ff0000" fill-opacity="1"><g transform="translate(500.348807, 262.37834)"><g><path d="M 5.78125 0 L 8.78125 0 L 14.234375 -11.6875 L 11.3125 -11.6875 L 8.984375 -6.6875 L 7.28125 -2.5 L 5.578125 -6.6875 L 3.25 -11.6875 L 0.171875 -11.6875 L 0.171875 -9.015625 L 1.5625 -9.015625 Z M 5.78125 0 "/></g></g></g><g fill="#ff0000" fill-opacity="1"><g transform="translate(516.536511, 262.37834)"><g><path d="M 12.1875 0 L 12.1875 -2.671875 L 3.5 -2.671875 L 3.5 -9.015625 L 9.921875 -9.015625 L 9.921875 -7.015625 L 4.34375 -7.015625 L 4.34375 -4.34375 L 10.9375 -4.34375 L 12.59375 -6 L 12.59375 -10.015625 L 10.9375 -11.6875 L 2.5 -11.6875 L 0.828125 -10.015625 L 0.828125 -1.671875 L 2.5 0 Z M 12.1875 0 "/></g></g></g><g fill="#ff0000" fill-opacity="1"><g transform="translate(531.756346, 262.37834)"><g><path d="M 10.171875 -2.84375 L 11.84375 -4.5 L 11.84375 -10.015625 L 10.171875 -11.6875 L 0.078125 -11.6875 L 0.078125 -9.015625 L 9.171875 -9.015625 L 9.171875 -5.5 L 4 -5.5 L 4 -8.171875 L 1.328125 -8.171875 L 1.328125 0 L 4 0 L 4 -2.84375 L 6.796875 -2.84375 C 7.625 -1.890625 8.4375 -0.9375 9.296875 0 L 12.6875 0 C 11.828125 -0.9375 11.015625 -1.890625 10.171875 -2.84375 Z M 10.171875 -2.84375 "/></g></g></g><g fill="#ff0000" fill-opacity="1"><g transform="translate(546.392112, 262.37834)"><g><path d="M 10.265625 0 L 11.9375 -1.671875 L 11.9375 -5.5 L 10.265625 -7.171875 L 3.5 -7.171875 L 3.5 -9.015625 L 11.9375 -9.015625 L 11.9375 -11.6875 L 2.5 -11.6875 L 0.828125 -10.015625 L 0.828125 -6.171875 L 2.5 -4.5 L 9.265625 -4.5 L 9.265625 -2.671875 L 0.828125 -2.671875 L 0.828125 0 Z M 10.265625 0 "/></g></g></g><g fill="#ff0000" fill-opacity="1"><g transform="translate(560.944449, 262.37834)"><g><path d="M 11.34375 0 L 13.015625 -1.671875 L 13.015625 -10.015625 L 11.34375 -11.6875 L 2.5 -11.6875 L 0.828125 -10.015625 L 0.828125 -1.671875 L 2.5 0 Z M 10.34375 -2.671875 L 3.5 -2.671875 L 3.5 -9.015625 L 10.34375 -9.015625 Z M 10.34375 -2.671875 "/></g></g></g><g fill="#ff0000" fill-opacity="1"><g transform="translate(576.581463, 262.37834)"><g/></g></g><g fill="#ff0000" fill-opacity="1"><g transform="translate(585.042827, 262.37834)"><g><path d="M 10.171875 0 L 11.84375 -1.671875 L 11.84375 -10.015625 L 10.171875 -11.6875 L 0.078125 -11.6875 L 0.078125 -9.015625 L 9.171875 -9.015625 L 9.171875 -2.671875 L 4 -2.671875 L 4 -8.171875 L 1.328125 -8.171875 L 1.328125 0 Z M 10.171875 0 "/></g></g></g><g fill="#ff0000" fill-opacity="1"><g transform="translate(599.511733, 262.37834)"><g><path d="M 11.34375 0 L 13.015625 -1.671875 L 13.015625 -10.015625 L 11.34375 -11.6875 L 2.5 -11.6875 L 0.828125 -10.015625 L 0.828125 -1.671875 L 2.5 0 Z M 10.34375 -2.671875 L 3.5 -2.671875 L 3.5 -9.015625 L 10.34375 -9.015625 Z M 10.34375 -2.671875 "/></g></g></g><g fill="#ff0000" fill-opacity="1"><g transform="translate(615.148747, 262.37834)"><g><path d="M 10.265625 0 L 11.9375 -1.671875 L 11.9375 -5.5 L 10.265625 -7.171875 L 3.5 -7.171875 L 3.5 -9.015625 L 11.9375 -9.015625 L 11.9375 -11.6875 L 2.5 -11.6875 L 0.828125 -10.015625 L 0.828125 -6.171875 L 2.5 -4.5 L 9.265625 -4.5 L 9.265625 -2.671875 L 0.828125 -2.671875 L 0.828125 0 Z M 10.265625 0 "/></g></g></g><g fill="#00ffff" fill-opacity="1"><g transform="translate(332.066331, 262.174868)"><g><path d="M 11.515625 0 L 11.515625 -2.671875 L 4 -2.671875 L 4 -4.5 L 9.84375 -4.5 L 9.84375 -7.171875 L 4 -7.171875 L 4 -9.015625 L 11.515625 -9.015625 L 11.515625 -11.6875 L 0.078125 -11.6875 L 0.078125 -9.015625 L 1.328125 -9.015625 L 1.328125 0 Z M 11.515625 0 "/></g></g></g><g fill="#00ffff" fill-opacity="1"><g transform="translate(346.201471, 262.174868)"><g><path d="M 5.8125 -8.015625 C 4.875 -9.234375 3.96875 -10.46875 3.03125 -11.6875 L -0.25 -11.6875 L 4.140625 -5.84375 L -0.25 0 L 3.03125 0 L 5.78125 -3.65625 L 8.59375 0 L 11.875 0 L 7.46875 -5.859375 C 8.921875 -7.8125 10.375 -9.734375 11.84375 -11.6875 L 8.546875 -11.6875 Z M 5.8125 -8.015625 "/></g></g></g><g fill="#00ffff" fill-opacity="1"><g transform="translate(360.453425, 262.174868)"><g><path d="M 10.171875 -2.84375 L 11.84375 -4.5 L 11.84375 -10.015625 L 10.171875 -11.6875 L 0.078125 -11.6875 L 0.078125 -9.015625 L 9.171875 -9.015625 L 9.171875 -5.5 L 4 -5.5 L 4 -8.171875 L 1.328125 -8.171875 L 1.328125 0 L 4 0 L 4 -2.84375 Z M 10.171875 -2.84375 "/></g></g></g><g fill="#00ffff" fill-opacity="1"><g transform="translate(374.588564, 262.174868)"><g><path d="M 11.515625 0 L 11.515625 -2.671875 L 4 -2.671875 L 4 -11.6875 L 0.078125 -11.6875 L 0.078125 -9.015625 L 1.328125 -9.015625 L 1.328125 0 Z M 11.515625 0 "/></g></g></g><g fill="#00ffff" fill-opacity="1"><g transform="translate(388.056205, 262.174868)"><g><path d="M 11.34375 0 L 13.015625 -1.671875 L 13.015625 -10.015625 L 11.34375 -11.6875 L 2.5 -11.6875 L 0.828125 -10.015625 L 0.828125 -1.671875 L 2.5 0 Z M 10.34375 -2.671875 L 3.5 -2.671875 L 3.5 -9.015625 L 10.34375 -9.015625 Z M 10.34375 -2.671875 "/></g></g></g><g fill="#00ffff" fill-opacity="1"><g transform="translate(403.693226, 262.174868)"><g><path d="M 10.171875 -2.84375 L 11.84375 -4.5 L 11.84375 -10.015625 L 10.171875 -11.6875 L 0.078125 -11.6875 L 0.078125 -9.015625 L 9.171875 -9.015625 L 9.171875 -5.5 L 4 -5.5 L 4 -8.171875 L 1.328125 -8.171875 L 1.328125 0 L 4 0 L 4 -2.84375 L 6.796875 -2.84375 C 7.625 -1.890625 8.4375 -0.9375 9.296875 0 L 12.6875 0 C 11.828125 -0.9375 11.015625 -1.890625 10.171875 -2.84375 Z M 10.171875 -2.84375 "/></g></g></g><g fill="#00ffff" fill-opacity="1"><g transform="translate(418.328993, 262.174868)"><g><path d="M 12.1875 0 L 12.1875 -2.671875 L 3.5 -2.671875 L 3.5 -9.015625 L 9.921875 -9.015625 L 9.921875 -7.015625 L 4.34375 -7.015625 L 4.34375 -4.34375 L 10.9375 -4.34375 L 12.59375 -6 L 12.59375 -10.015625 L 10.9375 -11.6875 L 2.5 -11.6875 L 0.828125 -10.015625 L 0.828125 -1.671875 L 2.5 0 Z M 12.1875 0 "/></g></g></g><g fill="#00ffff" fill-opacity="1"><g transform="translate(433.548828, 262.174868)"><g/></g></g><g fill="#00ffff" fill-opacity="1"><g transform="translate(442.010206, 262.174868)"><g><path d="M 11.34375 0 L 13.015625 -1.671875 L 13.015625 -10.015625 L 11.34375 -11.6875 L 2.5 -11.6875 L 0.828125 -10.015625 L 0.828125 -1.671875 L 2.5 0 Z M 10.34375 -2.671875 L 3.5 -2.671875 L 3.5 -9.015625 L 10.34375 -9.015625 Z M 10.34375 -2.671875 "/></g></g></g><g fill="#00ffff" fill-opacity="1"><g transform="translate(457.64722, 262.174868)"><g/></g></g><g fill="#00ffff" fill-opacity="1"><g transform="translate(466.108599, 262.174868)"><g><path d="M 12.6875 -1.671875 L 12.6875 -11.6875 L 10.015625 -11.6875 L 10.015625 -2.671875 L 4 -2.671875 L 4 -11.6875 L 0.078125 -11.6875 L 0.078125 -9.015625 L 1.328125 -9.015625 L 1.328125 -1.671875 L 3 0 L 11.015625 0 Z M 12.6875 -1.671875 "/></g></g></g><g fill="#00ffff" fill-opacity="1"><g transform="translate(481.411864, 262.174868)"><g><path d="M 11.84375 0 L 11.84375 -11.6875 L 9.171875 -11.6875 L 9.171875 -4.5 L 4 -11.6875 L 0.078125 -11.6875 L 0.078125 -9.015625 L 1.328125 -9.015625 L 1.328125 0 L 4 0 L 4 -7.15625 L 9.171875 0 Z M 11.84375 0 "/></g></g></g><g fill="#00ffff" fill-opacity="1"><g transform="translate(495.880756, 262.174868)"><g><path d="M 3.5 0 L 3.5 -11.6875 L 0.828125 -11.6875 L 0.828125 0 Z M 3.5 0 "/></g></g></g><g fill="#00ffff" fill-opacity="1"><g transform="translate(502.005876, 262.174868)"><g><path d="M 5.78125 0 L 8.78125 0 L 14.234375 -11.6875 L 11.3125 -11.6875 L 8.984375 -6.6875 L 7.28125 -2.5 L 5.578125 -6.6875 L 3.25 -11.6875 L 0.171875 -11.6875 L 0.171875 -9.015625 L 1.5625 -9.015625 Z M 5.78125 0 "/></g></g></g><g fill="#00ffff" fill-opacity="1"><g transform="translate(518.19358, 262.174868)"><g><path d="M 12.1875 0 L 12.1875 -2.671875 L 3.5 -2.671875 L 3.5 -9.015625 L 9.921875 -9.015625 L 9.921875 -7.015625 L 4.34375 -7.015625 L 4.34375 -4.34375 L 10.9375 -4.34375 L 12.59375 -6 L 12.59375 -10.015625 L 10.9375 -11.6875 L 2.5 -11.6875 L 0.828125 -10.015625 L 0.828125 -1.671875 L 2.5 0 Z M 12.1875 0 "/></g></g></g><g fill="#00ffff" fill-opacity="1"><g transform="translate(533.413415, 262.174868)"><g><path d="M 10.171875 -2.84375 L 11.84375 -4.5 L 11.84375 -10.015625 L 10.171875 -11.6875 L 0.078125 -11.6875 L 0.078125 -9.015625 L 9.171875 -9.015625 L 9.171875 -5.5 L 4 -5.5 L 4 -8.171875 L 1.328125 -8.171875 L 1.328125 0 L 4 0 L 4 -2.84375 L 6.796875 -2.84375 C 7.625 -1.890625 8.4375 -0.9375 9.296875 0 L 12.6875 0 C 11.828125 -0.9375 11.015625 -1.890625 10.171875 -2.84375 Z M 10.171875 -2.84375 "/></g></g></g><g fill="#00ffff" fill-opacity="1"><g transform="translate(548.049181, 262.174868)"><g><path d="M 10.265625 0 L 11.9375 -1.671875 L 11.9375 -5.5 L 10.265625 -7.171875 L 3.5 -7.171875 L 3.5 -9.015625 L 11.9375 -9.015625 L 11.9375 -11.6875 L 2.5 -11.6875 L 0.828125 -10.015625 L 0.828125 -6.171875 L 2.5 -4.5 L 9.265625 -4.5 L 9.265625 -2.671875 L 0.828125 -2.671875 L 0.828125 0 Z M 10.265625 0 "/></g></g></g><g fill="#00ffff" fill-opacity="1"><g transform="translate(562.601518, 262.174868)"><g><path d="M 11.34375 0 L 13.015625 -1.671875 L 13.015625 -10.015625 L 11.34375 -11.6875 L 2.5 -11.6875 L 0.828125 -10.015625 L 0.828125 -1.671875 L 2.5 0 Z M 10.34375 -2.671875 L 3.5 -2.671875 L 3.5 -9.015625 L 10.34375 -9.015625 Z M 10.34375 -2.671875 "/></g></g></g><g fill="#00ffff" fill-opacity="1"><g transform="translate(578.238531, 262.174868)"><g/></g></g><g fill="#00ffff" fill-opacity="1"><g transform="translate(586.699896, 262.174868)"><g><path d="M 10.171875 0 L 11.84375 -1.671875 L 11.84375 -10.015625 L 10.171875 -11.6875 L 0.078125 -11.6875 L 0.078125 -9.015625 L 9.171875 -9.015625 L 9.171875 -2.671875 L 4 -2.671875 L 4 -8.171875 L 1.328125 -8.171875 L 1.328125 0 Z M 10.171875 0 "/></g></g></g><g fill="#00ffff" fill-opacity="1"><g transform="translate(601.168802, 262.174868)"><g><path d="M 11.34375 0 L 13.015625 -1.671875 L 13.015625 -10.015625 L 11.34375 -11.6875 L 2.5 -11.6875 L 0.828125 -10.015625 L 0.828125 -1.671875 L 2.5 0 Z M 10.34375 -2.671875 L 3.5 -2.671875 L 3.5 -9.015625 L 10.34375 -9.015625 Z M 10.34375 -2.671875 "/></g></g></g><g fill="#00ffff" fill-opacity="1"><g transform="translate(616.805816, 262.174868)"><g><path d="M 10.265625 0 L 11.9375 -1.671875 L 11.9375 -5.5 L 10.265625 -7.171875 L 3.5 -7.171875 L 3.5 -9.015625 L 11.9375 -9.015625 L 11.9375 -11.6875 L 2.5 -11.6875 L 0.828125 -10.015625 L 0.828125 -6.171875 L 2.5 -4.5 L 9.265625 -4.5 L 9.265625 -2.671875 L 0.828125 -2.671875 L 0.828125 0 Z M 10.265625 0 "/></g></g></g><g fill="#ffffff" fill-opacity="1"><g transform="translate(331.237797, 262.276605)"><g><path d="M 11.515625 0 L 11.515625 -2.671875 L 4 -2.671875 L 4 -4.5 L 9.84375 -4.5 L 9.84375 -7.171875 L 4 -7.171875 L 4 -9.015625 L 11.515625 -9.015625 L 11.515625 -11.6875 L 0.078125 -11.6875 L 0.078125 -9.015625 L 1.328125 -9.015625 L 1.328125 0 Z M 11.515625 0 "/></g></g></g><g fill="#ffffff" fill-opacity="1"><g transform="translate(345.372936, 262.276605)"><g><path d="M 5.8125 -8.015625 C 4.875 -9.234375 3.96875 -10.46875 3.03125 -11.6875 L -0.25 -11.6875 L 4.140625 -5.84375 L -0.25 0 L 3.03125 0 L 5.78125 -3.65625 L 8.59375 0 L 11.875 0 L 7.46875 -5.859375 C 8.921875 -7.8125 10.375 -9.734375 11.84375 -11.6875 L 8.546875 -11.6875 Z M 5.8125 -8.015625 "/></g></g></g><g fill="#ffffff" fill-opacity="1"><g transform="translate(359.624891, 262.276605)"><g><path d="M 10.171875 -2.84375 L 11.84375 -4.5 L 11.84375 -10.015625 L 10.171875 -11.6875 L 0.078125 -11.6875 L 0.078125 -9.015625 L 9.171875 -9.015625 L 9.171875 -5.5 L 4 -5.5 L 4 -8.171875 L 1.328125 -8.171875 L 1.328125 0 L 4 0 L 4 -2.84375 Z M 10.171875 -2.84375 "/></g></g></g><g fill="#ffffff" fill-opacity="1"><g transform="translate(373.76003, 262.276605)"><g><path d="M 11.515625 0 L 11.515625 -2.671875 L 4 -2.671875 L 4 -11.6875 L 0.078125 -11.6875 L 0.078125 -9.015625 L 1.328125 -9.015625 L 1.328125 0 Z M 11.515625 0 "/></g></g></g><g fill="#ffffff" fill-opacity="1"><g transform="translate(387.227671, 262.276605)"><g><path d="M 11.34375 0 L 13.015625 -1.671875 L 13.015625 -10.015625 L 11.34375 -11.6875 L 2.5 -11.6875 L 0.828125 -10.015625 L 0.828125 -1.671875 L 2.5 0 Z M 10.34375 -2.671875 L 3.5 -2.671875 L 3.5 -9.015625 L 10.34375 -9.015625 Z M 10.34375 -2.671875 "/></g></g></g><g fill="#ffffff" fill-opacity="1"><g transform="translate(402.864692, 262.276605)"><g><path d="M 10.171875 -2.84375 L 11.84375 -4.5 L 11.84375 -10.015625 L 10.171875 -11.6875 L 0.078125 -11.6875 L 0.078125 -9.015625 L 9.171875 -9.015625 L 9.171875 -5.5 L 4 -5.5 L 4 -8.171875 L 1.328125 -8.171875 L 1.328125 0 L 4 0 L 4 -2.84375 L 6.796875 -2.84375 C 7.625 -1.890625 8.4375 -0.9375 9.296875 0 L 12.6875 0 C 11.828125 -0.9375 11.015625 -1.890625 10.171875 -2.84375 Z M 10.171875 -2.84375 "/></g></g></g><g fill="#ffffff" fill-opacity="1"><g transform="translate(417.500458, 262.276605)"><g><path d="M 12.1875 0 L 12.1875 -2.671875 L 3.5 -2.671875 L 3.5 -9.015625 L 9.921875 -9.015625 L 9.921875 -7.015625 L 4.34375 -7.015625 L 4.34375 -4.34375 L 10.9375 -4.34375 L 12.59375 -6 L 12.59375 -10.015625 L 10.9375 -11.6875 L 2.5 -11.6875 L 0.828125 -10.015625 L 0.828125 -1.671875 L 2.5 0 Z M 12.1875 0 "/></g></g></g><g fill="#ffffff" fill-opacity="1"><g transform="translate(432.720293, 262.276605)"><g/></g></g><g fill="#ffffff" fill-opacity="1"><g transform="translate(441.181672, 262.276605)"><g><path d="M 11.34375 0 L 13.015625 -1.671875 L 13.015625 -10.015625 L 11.34375 -11.6875 L 2.5 -11.6875 L 0.828125 -10.015625 L 0.828125 -1.671875 L 2.5 0 Z M 10.34375 -2.671875 L 3.5 -2.671875 L 3.5 -9.015625 L 10.34375 -9.015625 Z M 10.34375 -2.671875 "/></g></g></g><g fill="#ffffff" fill-opacity="1"><g transform="translate(456.818686, 262.276605)"><g/></g></g><g fill="#ffffff" fill-opacity="1"><g transform="translate(465.280065, 262.276605)"><g><path d="M 12.6875 -1.671875 L 12.6875 -11.6875 L 10.015625 -11.6875 L 10.015625 -2.671875 L 4 -2.671875 L 4 -11.6875 L 0.078125 -11.6875 L 0.078125 -9.015625 L 1.328125 -9.015625 L 1.328125 -1.671875 L 3 0 L 11.015625 0 Z M 12.6875 -1.671875 "/></g></g></g><g fill="#ffffff" fill-opacity="1"><g transform="translate(480.583329, 262.276605)"><g><path d="M 11.84375 0 L 11.84375 -11.6875 L 9.171875 -11.6875 L 9.171875 -4.5 L 4 -11.6875 L 0.078125 -11.6875 L 0.078125 -9.015625 L 1.328125 -9.015625 L 1.328125 0 L 4 0 L 4 -7.15625 L 9.171875 0 Z M 11.84375 0 "/></g></g></g><g fill="#ffffff" fill-opacity="1"><g transform="translate(495.052221, 262.276605)"><g><path d="M 3.5 0 L 3.5 -11.6875 L 0.828125 -11.6875 L 0.828125 0 Z M 3.5 0 "/></g></g></g><g fill="#ffffff" fill-opacity="1"><g transform="translate(501.177342, 262.276605)"><g><path d="M 5.78125 0 L 8.78125 0 L 14.234375 -11.6875 L 11.3125 -11.6875 L 8.984375 -6.6875 L 7.28125 -2.5 L 5.578125 -6.6875 L 3.25 -11.6875 L 0.171875 -11.6875 L 0.171875 -9.015625 L 1.5625 -9.015625 Z M 5.78125 0 "/></g></g></g><g fill="#ffffff" fill-opacity="1"><g transform="translate(517.365046, 262.276605)"><g><path d="M 12.1875 0 L 12.1875 -2.671875 L 3.5 -2.671875 L 3.5 -9.015625 L 9.921875 -9.015625 L 9.921875 -7.015625 L 4.34375 -7.015625 L 4.34375 -4.34375 L 10.9375 -4.34375 L 12.59375 -6 L 12.59375 -10.015625 L 10.9375 -11.6875 L 2.5 -11.6875 L 0.828125 -10.015625 L 0.828125 -1.671875 L 2.5 0 Z M 12.1875 0 "/></g></g></g><g fill="#ffffff" fill-opacity="1"><g transform="translate(532.58488, 262.276605)"><g><path d="M 10.171875 -2.84375 L 11.84375 -4.5 L 11.84375 -10.015625 L 10.171875 -11.6875 L 0.078125 -11.6875 L 0.078125 -9.015625 L 9.171875 -9.015625 L 9.171875 -5.5 L 4 -5.5 L 4 -8.171875 L 1.328125 -8.171875 L 1.328125 0 L 4 0 L 4 -2.84375 L 6.796875 -2.84375 C 7.625 -1.890625 8.4375 -0.9375 9.296875 0 L 12.6875 0 C 11.828125 -0.9375 11.015625 -1.890625 10.171875 -2.84375 Z M 10.171875 -2.84375 "/></g></g></g><g fill="#ffffff" fill-opacity="1"><g transform="translate(547.220647, 262.276605)"><g><path d="M 10.265625 0 L 11.9375 -1.671875 L 11.9375 -5.5 L 10.265625 -7.171875 L 3.5 -7.171875 L 3.5 -9.015625 L 11.9375 -9.015625 L 11.9375 -11.6875 L 2.5 -11.6875 L 0.828125 -10.015625 L 0.828125 -6.171875 L 2.5 -4.5 L 9.265625 -4.5 L 9.265625 -2.671875 L 0.828125 -2.671875 L 0.828125 0 Z M 10.265625 0 "/></g></g></g><g fill="#ffffff" fill-opacity="1"><g transform="translate(561.772983, 262.276605)"><g><path d="M 11.34375 0 L 13.015625 -1.671875 L 13.015625 -10.015625 L 11.34375 -11.6875 L 2.5 -11.6875 L 0.828125 -10.015625 L 0.828125 -1.671875 L 2.5 0 Z M 10.34375 -2.671875 L 3.5 -2.671875 L 3.5 -9.015625 L 10.34375 -9.015625 Z M 10.34375 -2.671875 "/></g></g></g><g fill="#ffffff" fill-opacity="1"><g transform="translate(577.409997, 262.276605)"><g/></g></g><g fill="#ffffff" fill-opacity="1"><g transform="translate(585.871361, 262.276605)"><g><path d="M 10.171875 0 L 11.84375 -1.671875 L 11.84375 -10.015625 L 10.171875 -11.6875 L 0.078125 -11.6875 L 0.078125 -9.015625 L 9.171875 -9.015625 L 9.171875 -2.671875 L 4 -2.671875 L 4 -8.171875 L 1.328125 -8.171875 L 1.328125 0 Z M 10.171875 0 "/></g></g></g><g fill="#ffffff" fill-opacity="1"><g transform="translate(600.340267, 262.276605)"><g><path d="M 11.34375 0 L 13.015625 -1.671875 L 13.015625 -10.015625 L 11.34375 -11.6875 L 2.5 -11.6875 L 0.828125 -10.015625 L 0.828125 -1.671875 L 2.5 0 Z M 10.34375 -2.671875 L 3.5 -2.671875 L 3.5 -9.015625 L 10.34375 -9.015625 Z M 10.34375 -2.671875 "/></g></g></g><g fill="#ffffff" fill-opacity="1"><g transform="translate(615.977281, 262.276605)"><g><path d="M 10.265625 0 L 11.9375 -1.671875 L 11.9375 -5.5 L 10.265625 -7.171875 L 3.5 -7.171875 L 3.5 -9.015625 L 11.9375 -9.015625 L 11.9375 -11.6875 L 2.5 -11.6875 L 0.828125 -10.015625 L 0.828125 -6.171875 L 2.5 -4.5 L 9.265625 -4.5 L 9.265625 -2.671875 L 0.828125 -2.671875 L 0.828125 0 Z M 10.265625 0 "/></g></g></g><g fill="#ff0000" fill-opacity="1"><g transform="translate(320.658753, 279.527328)"><g><path d="M 10.9375 0 L 12.59375 -1.671875 L 12.59375 -11.6875 L 4.171875 -11.6875 L 4.171875 -9.015625 L 9.921875 -9.015625 L 9.921875 -2.671875 L 3.5 -2.671875 L 3.5 -4.34375 L 0.828125 -4.34375 L 0.828125 -1.671875 L 2.5 0 Z M 10.9375 0 "/></g></g></g><g fill="#ff0000" fill-opacity="1"><g transform="translate(335.878584, 279.527328)"><g><path d="M 11.34375 0 L 13.015625 -1.671875 L 13.015625 -10.015625 L 11.34375 -11.6875 L 2.5 -11.6875 L 0.828125 -10.015625 L 0.828125 -1.671875 L 2.5 0 Z M 10.34375 -2.671875 L 3.5 -2.671875 L 3.5 -9.015625 L 10.34375 -9.015625 Z M 10.34375 -2.671875 "/></g></g></g><g fill="#ff0000" fill-opacity="1"><g transform="translate(351.515601, 279.527328)"><g><path d="M 10.9375 0 L 12.59375 -1.671875 L 12.59375 -7.171875 L 7.09375 -7.171875 L 7.09375 -4.5 L 9.921875 -4.5 L 9.921875 -2.671875 L 3.5 -2.671875 L 3.5 -9.015625 L 11.34375 -9.015625 L 11.34375 -11.6875 L 2.5 -11.6875 L 0.828125 -10.015625 L 0.828125 -1.671875 L 2.5 0 Z M 10.9375 0 "/></g></g></g><g fill="#ff0000" fill-opacity="1"><g transform="translate(366.735432, 279.527328)"><g><path d="M 11.34375 0 L 13.015625 -1.671875 L 13.015625 -10.015625 L 11.34375 -11.6875 L 2.5 -11.6875 L 0.828125 -10.015625 L 0.828125 -1.671875 L 2.5 0 Z M 10.34375 -2.671875 L 3.5 -2.671875 L 3.5 -9.015625 L 10.34375 -9.015625 Z M 10.34375 -2.671875 "/></g></g></g><g fill="#ff0000" fill-opacity="1"><g transform="translate(382.372449, 279.527328)"><g><path d="M 10.265625 0 L 11.9375 -1.671875 L 11.9375 -5.5 L 10.265625 -7.171875 L 3.5 -7.171875 L 3.5 -9.015625 L 11.9375 -9.015625 L 11.9375 -11.6875 L 2.5 -11.6875 L 0.828125 -10.015625 L 0.828125 -6.171875 L 2.5 -4.5 L 9.265625 -4.5 L 9.265625 -2.671875 L 0.828125 -2.671875 L 0.828125 0 Z M 10.265625 0 "/></g></g></g><g fill="#ff0000" fill-opacity="1"><g transform="translate(396.924785, 279.527328)"><g/></g></g><g fill="#ff0000" fill-opacity="1"><g transform="translate(405.386164, 279.527328)"><g><path d="M 12.1875 0 L 12.1875 -2.671875 L 3.5 -2.671875 L 3.5 -9.015625 L 9.921875 -9.015625 L 9.921875 -7.34375 L 12.59375 -7.34375 L 12.59375 -10.015625 L 10.9375 -11.6875 L 2.5 -11.6875 L 0.828125 -10.015625 L 0.828125 -1.671875 L 2.5 0 Z M 12.1875 0 "/></g></g></g><g fill="#ff0000" fill-opacity="1"><g transform="translate(420.605999, 279.527328)"><g><path d="M 11.34375 0 L 13.015625 -1.671875 L 13.015625 -10.015625 L 11.34375 -11.6875 L 2.5 -11.6875 L 0.828125 -10.015625 L 0.828125 -1.671875 L 2.5 0 Z M 10.34375 -2.671875 L 3.5 -2.671875 L 3.5 -9.015625 L 10.34375 -9.015625 Z M 10.34375 -2.671875 "/></g></g></g><g fill="#ff0000" fill-opacity="1"><g transform="translate(436.243013, 279.527328)"><g><path d="M 3.921875 -11.6875 L 0.078125 -11.6875 L 0.078125 -9.015625 L 1.328125 -9.015625 L 1.328125 0 L 4 0 L 4 -7.125 C 5.203125 -5.484375 6.40625 -3.859375 7.625 -2.21875 C 8.828125 -3.859375 10.046875 -5.484375 11.265625 -7.125 L 11.265625 0 L 13.9375 0 L 13.9375 -11.6875 L 11.34375 -11.6875 C 10.09375 -10.015625 8.859375 -8.328125 7.625 -6.65625 Z M 3.921875 -11.6875 "/></g></g></g><g fill="#ff0000" fill-opacity="1"><g transform="translate(452.797844, 279.527328)"><g><path d="M 11.34375 0 L 13.015625 -1.671875 L 13.015625 -10.015625 L 11.34375 -11.6875 L 2.5 -11.6875 L 0.828125 -10.015625 L 0.828125 -1.671875 L 2.5 0 Z M 10.34375 -2.671875 L 3.5 -2.671875 L 3.5 -9.015625 L 10.34375 -9.015625 Z M 10.34375 -2.671875 "/></g></g></g><g fill="#ff0000" fill-opacity="1"><g transform="translate(468.434858, 279.527328)"><g/></g></g><g fill="#ff0000" fill-opacity="1"><g transform="translate(476.896237, 279.527328)"><g><path d="M 11.84375 0 L 11.84375 -11.6875 L 9.171875 -11.6875 L 9.171875 -4.5 L 4 -11.6875 L 0.078125 -11.6875 L 0.078125 -9.015625 L 1.328125 -9.015625 L 1.328125 0 L 4 0 L 4 -7.15625 L 9.171875 0 Z M 11.84375 0 "/></g></g></g><g fill="#ff0000" fill-opacity="1"><g transform="translate(491.365129, 279.527328)"><g><path d="M 12.6875 -1.671875 L 12.6875 -11.6875 L 10.015625 -11.6875 L 10.015625 -2.671875 L 4 -2.671875 L 4 -11.6875 L 0.078125 -11.6875 L 0.078125 -9.015625 L 1.328125 -9.015625 L 1.328125 -1.671875 L 3 0 L 11.015625 0 Z M 12.6875 -1.671875 "/></g></g></g><g fill="#ff0000" fill-opacity="1"><g transform="translate(506.668393, 279.527328)"><g><path d="M 11.84375 0 L 11.84375 -11.6875 L 9.171875 -11.6875 L 9.171875 -4.5 L 4 -11.6875 L 0.078125 -11.6875 L 0.078125 -9.015625 L 1.328125 -9.015625 L 1.328125 0 L 4 0 L 4 -7.15625 L 9.171875 0 Z M 11.84375 0 "/></g></g></g><g fill="#ff0000" fill-opacity="1"><g transform="translate(521.137285, 279.527328)"><g><path d="M 12.1875 0 L 12.1875 -2.671875 L 3.5 -2.671875 L 3.5 -9.015625 L 9.921875 -9.015625 L 9.921875 -7.34375 L 12.59375 -7.34375 L 12.59375 -10.015625 L 10.9375 -11.6875 L 2.5 -11.6875 L 0.828125 -10.015625 L 0.828125 -1.671875 L 2.5 0 Z M 12.1875 0 "/></g></g></g><g fill="#ff0000" fill-opacity="1"><g transform="translate(536.35712, 279.527328)"><g><path d="M 12.59375 0 L 12.59375 -10.015625 L 10.9375 -11.6875 L 1.25 -11.6875 L 1.25 -9.015625 L 9.921875 -9.015625 L 9.921875 -7.171875 L 2.5 -7.171875 L 0.828125 -5.5 L 0.828125 -1.671875 L 2.5 0 L 9.09375 0 L 9.09375 -2.671875 L 3.5 -2.671875 L 3.5 -4.5 L 9.921875 -4.5 L 9.921875 -1.671875 L 11.59375 0 Z M 12.59375 0 "/></g></g></g><g fill="#ff0000" fill-opacity="1"><g transform="translate(551.576954, 279.527328)"><g/></g></g><g fill="#ff0000" fill-opacity="1"><g transform="translate(560.038333, 279.527328)"><g><path d="M 12.59375 0 L 12.59375 -10.015625 L 10.9375 -11.6875 L 1.25 -11.6875 L 1.25 -9.015625 L 9.921875 -9.015625 L 9.921875 -7.171875 L 2.5 -7.171875 L 0.828125 -5.5 L 0.828125 -1.671875 L 2.5 0 L 9.09375 0 L 9.09375 -2.671875 L 3.5 -2.671875 L 3.5 -4.5 L 9.921875 -4.5 L 9.921875 -1.671875 L 11.59375 0 Z M 12.59375 0 "/></g></g></g><g fill="#ff0000" fill-opacity="1"><g transform="translate(575.258153, 279.527328)"><g><path d="M 11.84375 0 L 11.84375 -11.6875 L 9.171875 -11.6875 L 9.171875 -4.5 L 4 -11.6875 L 0.078125 -11.6875 L 0.078125 -9.015625 L 1.328125 -9.015625 L 1.328125 0 L 4 0 L 4 -7.15625 L 9.171875 0 Z M 11.84375 0 "/></g></g></g><g fill="#ff0000" fill-opacity="1"><g transform="translate(589.727059, 279.527328)"><g><path d="M 7.359375 0 L 7.359375 -9.015625 L 11.96875 -9.015625 L 11.96875 -11.6875 L 0.078125 -11.6875 L 0.078125 -9.015625 L 4.6875 -9.015625 L 4.6875 0 Z M 7.359375 0 "/></g></g></g><g fill="#ff0000" fill-opacity="1"><g transform="translate(603.561816, 279.527328)"><g><path d="M 12.1875 0 L 12.1875 -2.671875 L 3.5 -2.671875 L 3.5 -9.015625 L 9.921875 -9.015625 L 9.921875 -7.015625 L 4.34375 -7.015625 L 4.34375 -4.34375 L 10.9375 -4.34375 L 12.59375 -6 L 12.59375 -10.015625 L 10.9375 -11.6875 L 2.5 -11.6875 L 0.828125 -10.015625 L 0.828125 -1.671875 L 2.5 0 Z M 12.1875 0 "/></g></g></g><g fill="#ff0000" fill-opacity="1"><g transform="translate(618.781636, 279.527328)"><g><path d="M 10.265625 0 L 11.9375 -1.671875 L 11.9375 -5.5 L 10.265625 -7.171875 L 3.5 -7.171875 L 3.5 -9.015625 L 11.9375 -9.015625 L 11.9375 -11.6875 L 2.5 -11.6875 L 0.828125 -10.015625 L 0.828125 -6.171875 L 2.5 -4.5 L 9.265625 -4.5 L 9.265625 -2.671875 L 0.828125 -2.671875 L 0.828125 0 Z M 10.265625 0 "/></g></g></g><g fill="#ff0000" fill-opacity="1"><g transform="translate(633.333958, 279.527328)"><g><path d="M 3.171875 -4.171875 L 3.671875 -11.6875 L 0.671875 -11.6875 L 1.171875 -4.171875 Z M 3.5 0 L 3.5 -3 L 0.828125 -3 L 0.828125 0 Z M 3.5 0 "/></g></g></g><g fill="#00ffff" fill-opacity="1"><g transform="translate(322.315822, 279.323856)"><g><path d="M 10.9375 0 L 12.59375 -1.671875 L 12.59375 -11.6875 L 4.171875 -11.6875 L 4.171875 -9.015625 L 9.921875 -9.015625 L 9.921875 -2.671875 L 3.5 -2.671875 L 3.5 -4.34375 L 0.828125 -4.34375 L 0.828125 -1.671875 L 2.5 0 Z M 10.9375 0 "/></g></g></g><g fill="#00ffff" fill-opacity="1"><g transform="translate(337.535653, 279.323856)"><g><path d="M 11.34375 0 L 13.015625 -1.671875 L 13.015625 -10.015625 L 11.34375 -11.6875 L 2.5 -11.6875 L 0.828125 -10.015625 L 0.828125 -1.671875 L 2.5 0 Z M 10.34375 -2.671875 L 3.5 -2.671875 L 3.5 -9.015625 L 10.34375 -9.015625 Z M 10.34375 -2.671875 "/></g></g></g><g fill="#00ffff" fill-opacity="1"><g transform="translate(353.17267, 279.323856)"><g><path d="M 10.9375 0 L 12.59375 -1.671875 L 12.59375 -7.171875 L 7.09375 -7.171875 L 7.09375 -4.5 L 9.921875 -4.5 L 9.921875 -2.671875 L 3.5 -2.671875 L 3.5 -9.015625 L 11.34375 -9.015625 L 11.34375 -11.6875 L 2.5 -11.6875 L 0.828125 -10.015625 L 0.828125 -1.671875 L 2.5 0 Z M 10.9375 0 "/></g></g></g><g fill="#00ffff" fill-opacity="1"><g transform="translate(368.392501, 279.323856)"><g><path d="M 11.34375 0 L 13.015625 -1.671875 L 13.015625 -10.015625 L 11.34375 -11.6875 L 2.5 -11.6875 L 0.828125 -10.015625 L 0.828125 -1.671875 L 2.5 0 Z M 10.34375 -2.671875 L 3.5 -2.671875 L 3.5 -9.015625 L 10.34375 -9.015625 Z M 10.34375 -2.671875 "/></g></g></g><g fill="#00ffff" fill-opacity="1"><g transform="translate(384.029518, 279.323856)"><g><path d="M 10.265625 0 L 11.9375 -1.671875 L 11.9375 -5.5 L 10.265625 -7.171875 L 3.5 -7.171875 L 3.5 -9.015625 L 11.9375 -9.015625 L 11.9375 -11.6875 L 2.5 -11.6875 L 0.828125 -10.015625 L 0.828125 -6.171875 L 2.5 -4.5 L 9.265625 -4.5 L 9.265625 -2.671875 L 0.828125 -2.671875 L 0.828125 0 Z M 10.265625 0 "/></g></g></g><g fill="#00ffff" fill-opacity="1"><g transform="translate(398.581854, 279.323856)"><g/></g></g><g fill="#00ffff" fill-opacity="1"><g transform="translate(407.043233, 279.323856)"><g><path d="M 12.1875 0 L 12.1875 -2.671875 L 3.5 -2.671875 L 3.5 -9.015625 L 9.921875 -9.015625 L 9.921875 -7.34375 L 12.59375 -7.34375 L 12.59375 -10.015625 L 10.9375 -11.6875 L 2.5 -11.6875 L 0.828125 -10.015625 L 0.828125 -1.671875 L 2.5 0 Z M 12.1875 0 "/></g></g></g><g fill="#00ffff" fill-opacity="1"><g transform="translate(422.263068, 279.323856)"><g><path d="M 11.34375 0 L 13.015625 -1.671875 L 13.015625 -10.015625 L 11.34375 -11.6875 L 2.5 -11.6875 L 0.828125 -10.015625 L 0.828125 -1.671875 L 2.5 0 Z M 10.34375 -2.671875 L 3.5 -2.671875 L 3.5 -9.015625 L 10.34375 -9.015625 Z M 10.34375 -2.671875 "/></g></g></g><g fill="#00ffff" fill-opacity="1"><g transform="translate(437.900082, 279.323856)"><g><path d="M 3.921875 -11.6875 L 0.078125 -11.6875 L 0.078125 -9.015625 L 1.328125 -9.015625 L 1.328125 0 L 4 0 L 4 -7.125 C 5.203125 -5.484375 6.40625 -3.859375 7.625 -2.21875 C 8.828125 -3.859375 10.046875 -5.484375 11.265625 -7.125 L 11.265625 0 L 13.9375 0 L 13.9375 -11.6875 L 11.34375 -11.6875 C 10.09375 -10.015625 8.859375 -8.328125 7.625 -6.65625 Z M 3.921875 -11.6875 "/></g></g></g><g fill="#00ffff" fill-opacity="1"><g transform="translate(454.454913, 279.323856)"><g><path d="M 11.34375 0 L 13.015625 -1.671875 L 13.015625 -10.015625 L 11.34375 -11.6875 L 2.5 -11.6875 L 0.828125 -10.015625 L 0.828125 -1.671875 L 2.5 0 Z M 10.34375 -2.671875 L 3.5 -2.671875 L 3.5 -9.015625 L 10.34375 -9.015625 Z M 10.34375 -2.671875 "/></g></g></g><g fill="#00ffff" fill-opacity="1"><g transform="translate(470.091927, 279.323856)"><g/></g></g><g fill="#00ffff" fill-opacity="1"><g transform="translate(478.553305, 279.323856)"><g><path d="M 11.84375 0 L 11.84375 -11.6875 L 9.171875 -11.6875 L 9.171875 -4.5 L 4 -11.6875 L 0.078125 -11.6875 L 0.078125 -9.015625 L 1.328125 -9.015625 L 1.328125 0 L 4 0 L 4 -7.15625 L 9.171875 0 Z M 11.84375 0 "/></g></g></g><g fill="#00ffff" fill-opacity="1"><g transform="translate(493.022197, 279.323856)"><g><path d="M 12.6875 -1.671875 L 12.6875 -11.6875 L 10.015625 -11.6875 L 10.015625 -2.671875 L 4 -2.671875 L 4 -11.6875 L 0.078125 -11.6875 L 0.078125 -9.015625 L 1.328125 -9.015625 L 1.328125 -1.671875 L 3 0 L 11.015625 0 Z M 12.6875 -1.671875 "/></g></g></g><g fill="#00ffff" fill-opacity="1"><g transform="translate(508.325462, 279.323856)"><g><path d="M 11.84375 0 L 11.84375 -11.6875 L 9.171875 -11.6875 L 9.171875 -4.5 L 4 -11.6875 L 0.078125 -11.6875 L 0.078125 -9.015625 L 1.328125 -9.015625 L 1.328125 0 L 4 0 L 4 -7.15625 L 9.171875 0 Z M 11.84375 0 "/></g></g></g><g fill="#00ffff" fill-opacity="1"><g transform="translate(522.794354, 279.323856)"><g><path d="M 12.1875 0 L 12.1875 -2.671875 L 3.5 -2.671875 L 3.5 -9.015625 L 9.921875 -9.015625 L 9.921875 -7.34375 L 12.59375 -7.34375 L 12.59375 -10.015625 L 10.9375 -11.6875 L 2.5 -11.6875 L 0.828125 -10.015625 L 0.828125 -1.671875 L 2.5 0 Z M 12.1875 0 "/></g></g></g><g fill="#00ffff" fill-opacity="1"><g transform="translate(538.014189, 279.323856)"><g><path d="M 12.59375 0 L 12.59375 -10.015625 L 10.9375 -11.6875 L 1.25 -11.6875 L 1.25 -9.015625 L 9.921875 -9.015625 L 9.921875 -7.171875 L 2.5 -7.171875 L 0.828125 -5.5 L 0.828125 -1.671875 L 2.5 0 L 9.09375 0 L 9.09375 -2.671875 L 3.5 -2.671875 L 3.5 -4.5 L 9.921875 -4.5 L 9.921875 -1.671875 L 11.59375 0 Z M 12.59375 0 "/></g></g></g><g fill="#00ffff" fill-opacity="1"><g transform="translate(553.234023, 279.323856)"><g/></g></g><g fill="#00ffff" fill-opacity="1"><g transform="translate(561.695402, 279.323856)"><g><path d="M 12.59375 0 L 12.59375 -10.015625 L 10.9375 -11.6875 L 1.25 -11.6875 L 1.25 -9.015625 L 9.921875 -9.015625 L 9.921875 -7.171875 L 2.5 -7.171875 L 0.828125 -5.5 L 0.828125 -1.671875 L 2.5 0 L 9.09375 0 L 9.09375 -2.671875 L 3.5 -2.671875 L 3.5 -4.5 L 9.921875 -4.5 L 9.921875 -1.671875 L 11.59375 0 Z M 12.59375 0 "/></g></g></g><g fill="#00ffff" fill-opacity="1"><g transform="translate(576.915222, 279.323856)"><g><path d="M 11.84375 0 L 11.84375 -11.6875 L 9.171875 -11.6875 L 9.171875 -4.5 L 4 -11.6875 L 0.078125 -11.6875 L 0.078125 -9.015625 L 1.328125 -9.015625 L 1.328125 0 L 4 0 L 4 -7.15625 L 9.171875 0 Z M 11.84375 0 "/></g></g></g><g fill="#00ffff" fill-opacity="1"><g transform="translate(591.384128, 279.323856)"><g><path d="M 7.359375 0 L 7.359375 -9.015625 L 11.96875 -9.015625 L 11.96875 -11.6875 L 0.078125 -11.6875 L 0.078125 -9.015625 L 4.6875 -9.015625 L 4.6875 0 Z M 7.359375 0 "/></g></g></g><g fill="#00ffff" fill-opacity="1"><g transform="translate(605.218885, 279.323856)"><g><path d="M 12.1875 0 L 12.1875 -2.671875 L 3.5 -2.671875 L 3.5 -9.015625 L 9.921875 -9.015625 L 9.921875 -7.015625 L 4.34375 -7.015625 L 4.34375 -4.34375 L 10.9375 -4.34375 L 12.59375 -6 L 12.59375 -10.015625 L 10.9375 -11.6875 L 2.5 -11.6875 L 0.828125 -10.015625 L 0.828125 -1.671875 L 2.5 0 Z M 12.1875 0 "/></g></g></g><g fill="#00ffff" fill-opacity="1"><g transform="translate(620.438705, 279.323856)"><g><path d="M 10.265625 0 L 11.9375 -1.671875 L 11.9375 -5.5 L 10.265625 -7.171875 L 3.5 -7.171875 L 3.5 -9.015625 L 11.9375 -9.015625 L 11.9375 -11.6875 L 2.5 -11.6875 L 0.828125 -10.015625 L 0.828125 -6.171875 L 2.5 -4.5 L 9.265625 -4.5 L 9.265625 -2.671875 L 0.828125 -2.671875 L 0.828125 0 Z M 10.265625 0 "/></g></g></g><g fill="#00ffff" fill-opacity="1"><g transform="translate(634.991027, 279.323856)"><g><path d="M 3.171875 -4.171875 L 3.671875 -11.6875 L 0.671875 -11.6875 L 1.171875 -4.171875 Z M 3.5 0 L 3.5 -3 L 0.828125 -3 L 0.828125 0 Z M 3.5 0 "/></g></g></g><g fill="#ffffff" fill-opacity="1"><g transform="translate(321.487287, 279.425593)"><g><path d="M 10.9375 0 L 12.59375 -1.671875 L 12.59375 -11.6875 L 4.171875 -11.6875 L 4.171875 -9.015625 L 9.921875 -9.015625 L 9.921875 -2.671875 L 3.5 -2.671875 L 3.5 -4.34375 L 0.828125 -4.34375 L 0.828125 -1.671875 L 2.5 0 Z M 10.9375 0 "/></g></g></g><g fill="#ffffff" fill-opacity="1"><g transform="translate(336.707118, 279.425593)"><g><path d="M 11.34375 0 L 13.015625 -1.671875 L 13.015625 -10.015625 L 11.34375 -11.6875 L 2.5 -11.6875 L 0.828125 -10.015625 L 0.828125 -1.671875 L 2.5 0 Z M 10.34375 -2.671875 L 3.5 -2.671875 L 3.5 -9.015625 L 10.34375 -9.015625 Z M 10.34375 -2.671875 "/></g></g></g><g fill="#ffffff" fill-opacity="1"><g transform="translate(352.344135, 279.425593)"><g><path d="M 10.9375 0 L 12.59375 -1.671875 L 12.59375 -7.171875 L 7.09375 -7.171875 L 7.09375 -4.5 L 9.921875 -4.5 L 9.921875 -2.671875 L 3.5 -2.671875 L 3.5 -9.015625 L 11.34375 -9.015625 L 11.34375 -11.6875 L 2.5 -11.6875 L 0.828125 -10.015625 L 0.828125 -1.671875 L 2.5 0 Z M 10.9375 0 "/></g></g></g><g fill="#ffffff" fill-opacity="1"><g transform="translate(367.563966, 279.425593)"><g><path d="M 11.34375 0 L 13.015625 -1.671875 L 13.015625 -10.015625 L 11.34375 -11.6875 L 2.5 -11.6875 L 0.828125 -10.015625 L 0.828125 -1.671875 L 2.5 0 Z M 10.34375 -2.671875 L 3.5 -2.671875 L 3.5 -9.015625 L 10.34375 -9.015625 Z M 10.34375 -2.671875 "/></g></g></g><g fill="#ffffff" fill-opacity="1"><g transform="translate(383.200983, 279.425593)"><g><path d="M 10.265625 0 L 11.9375 -1.671875 L 11.9375 -5.5 L 10.265625 -7.171875 L 3.5 -7.171875 L 3.5 -9.015625 L 11.9375 -9.015625 L 11.9375 -11.6875 L 2.5 -11.6875 L 0.828125 -10.015625 L 0.828125 -6.171875 L 2.5 -4.5 L 9.265625 -4.5 L 9.265625 -2.671875 L 0.828125 -2.671875 L 0.828125 0 Z M 10.265625 0 "/></g></g></g><g fill="#ffffff" fill-opacity="1"><g transform="translate(397.75332, 279.425593)"><g/></g></g><g fill="#ffffff" fill-opacity="1"><g transform="translate(406.214699, 279.425593)"><g><path d="M 12.1875 0 L 12.1875 -2.671875 L 3.5 -2.671875 L 3.5 -9.015625 L 9.921875 -9.015625 L 9.921875 -7.34375 L 12.59375 -7.34375 L 12.59375 -10.015625 L 10.9375 -11.6875 L 2.5 -11.6875 L 0.828125 -10.015625 L 0.828125 -1.671875 L 2.5 0 Z M 12.1875 0 "/></g></g></g><g fill="#ffffff" fill-opacity="1"><g transform="translate(421.434533, 279.425593)"><g><path d="M 11.34375 0 L 13.015625 -1.671875 L 13.015625 -10.015625 L 11.34375 -11.6875 L 2.5 -11.6875 L 0.828125 -10.015625 L 0.828125 -1.671875 L 2.5 0 Z M 10.34375 -2.671875 L 3.5 -2.671875 L 3.5 -9.015625 L 10.34375 -9.015625 Z M 10.34375 -2.671875 "/></g></g></g><g fill="#ffffff" fill-opacity="1"><g transform="translate(437.071547, 279.425593)"><g><path d="M 3.921875 -11.6875 L 0.078125 -11.6875 L 0.078125 -9.015625 L 1.328125 -9.015625 L 1.328125 0 L 4 0 L 4 -7.125 C 5.203125 -5.484375 6.40625 -3.859375 7.625 -2.21875 C 8.828125 -3.859375 10.046875 -5.484375 11.265625 -7.125 L 11.265625 0 L 13.9375 0 L 13.9375 -11.6875 L 11.34375 -11.6875 C 10.09375 -10.015625 8.859375 -8.328125 7.625 -6.65625 Z M 3.921875 -11.6875 "/></g></g></g><g fill="#ffffff" fill-opacity="1"><g transform="translate(453.626378, 279.425593)"><g><path d="M 11.34375 0 L 13.015625 -1.671875 L 13.015625 -10.015625 L 11.34375 -11.6875 L 2.5 -11.6875 L 0.828125 -10.015625 L 0.828125 -1.671875 L 2.5 0 Z M 10.34375 -2.671875 L 3.5 -2.671875 L 3.5 -9.015625 L 10.34375 -9.015625 Z M 10.34375 -2.671875 "/></g></g></g><g fill="#ffffff" fill-opacity="1"><g transform="translate(469.263392, 279.425593)"><g/></g></g><g fill="#ffffff" fill-opacity="1"><g transform="translate(477.724771, 279.425593)"><g><path d="M 11.84375 0 L 11.84375 -11.6875 L 9.171875 -11.6875 L 9.171875 -4.5 L 4 -11.6875 L 0.078125 -11.6875 L 0.078125 -9.015625 L 1.328125 -9.015625 L 1.328125 0 L 4 0 L 4 -7.15625 L 9.171875 0 Z M 11.84375 0 "/></g></g></g><g fill="#ffffff" fill-opacity="1"><g transform="translate(492.193663, 279.425593)"><g><path d="M 12.6875 -1.671875 L 12.6875 -11.6875 L 10.015625 -11.6875 L 10.015625 -2.671875 L 4 -2.671875 L 4 -11.6875 L 0.078125 -11.6875 L 0.078125 -9.015625 L 1.328125 -9.015625 L 1.328125 -1.671875 L 3 0 L 11.015625 0 Z M 12.6875 -1.671875 "/></g></g></g><g fill="#ffffff" fill-opacity="1"><g transform="translate(507.496927, 279.425593)"><g><path d="M 11.84375 0 L 11.84375 -11.6875 L 9.171875 -11.6875 L 9.171875 -4.5 L 4 -11.6875 L 0.078125 -11.6875 L 0.078125 -9.015625 L 1.328125 -9.015625 L 1.328125 0 L 4 0 L 4 -7.15625 L 9.171875 0 Z M 11.84375 0 "/></g></g></g><g fill="#ffffff" fill-opacity="1"><g transform="translate(521.965819, 279.425593)"><g><path d="M 12.1875 0 L 12.1875 -2.671875 L 3.5 -2.671875 L 3.5 -9.015625 L 9.921875 -9.015625 L 9.921875 -7.34375 L 12.59375 -7.34375 L 12.59375 -10.015625 L 10.9375 -11.6875 L 2.5 -11.6875 L 0.828125 -10.015625 L 0.828125 -1.671875 L 2.5 0 Z M 12.1875 0 "/></g></g></g><g fill="#ffffff" fill-opacity="1"><g transform="translate(537.185654, 279.425593)"><g><path d="M 12.59375 0 L 12.59375 -10.015625 L 10.9375 -11.6875 L 1.25 -11.6875 L 1.25 -9.015625 L 9.921875 -9.015625 L 9.921875 -7.171875 L 2.5 -7.171875 L 0.828125 -5.5 L 0.828125 -1.671875 L 2.5 0 L 9.09375 0 L 9.09375 -2.671875 L 3.5 -2.671875 L 3.5 -4.5 L 9.921875 -4.5 L 9.921875 -1.671875 L 11.59375 0 Z M 12.59375 0 "/></g></g></g><g fill="#ffffff" fill-opacity="1"><g transform="translate(552.405489, 279.425593)"><g/></g></g><g fill="#ffffff" fill-opacity="1"><g transform="translate(560.866868, 279.425593)"><g><path d="M 12.59375 0 L 12.59375 -10.015625 L 10.9375 -11.6875 L 1.25 -11.6875 L 1.25 -9.015625 L 9.921875 -9.015625 L 9.921875 -7.171875 L 2.5 -7.171875 L 0.828125 -5.5 L 0.828125 -1.671875 L 2.5 0 L 9.09375 0 L 9.09375 -2.671875 L 3.5 -2.671875 L 3.5 -4.5 L 9.921875 -4.5 L 9.921875 -1.671875 L 11.59375 0 Z M 12.59375 0 "/></g></g></g><g fill="#ffffff" fill-opacity="1"><g transform="translate(576.086688, 279.425593)"><g><path d="M 11.84375 0 L 11.84375 -11.6875 L 9.171875 -11.6875 L 9.171875 -4.5 L 4 -11.6875 L 0.078125 -11.6875 L 0.078125 -9.015625 L 1.328125 -9.015625 L 1.328125 0 L 4 0 L 4 -7.15625 L 9.171875 0 Z M 11.84375 0 "/></g></g></g><g fill="#ffffff" fill-opacity="1"><g transform="translate(590.555594, 279.425593)"><g><path d="M 7.359375 0 L 7.359375 -9.015625 L 11.96875 -9.015625 L 11.96875 -11.6875 L 0.078125 -11.6875 L 0.078125 -9.015625 L 4.6875 -9.015625 L 4.6875 0 Z M 7.359375 0 "/></g></g></g><g fill="#ffffff" fill-opacity="1"><g transform="translate(604.390351, 279.425593)"><g><path d="M 12.1875 0 L 12.1875 -2.671875 L 3.5 -2.671875 L 3.5 -9.015625 L 9.921875 -9.015625 L 9.921875 -7.015625 L 4.34375 -7.015625 L 4.34375 -4.34375 L 10.9375 -4.34375 L 12.59375 -6 L 12.59375 -10.015625 L 10.9375 -11.6875 L 2.5 -11.6875 L 0.828125 -10.015625 L 0.828125 -1.671875 L 2.5 0 Z M 12.1875 0 "/></g></g></g><g fill="#ffffff" fill-opacity="1"><g transform="translate(619.610171, 279.425593)"><g><path d="M 10.265625 0 L 11.9375 -1.671875 L 11.9375 -5.5 L 10.265625 -7.171875 L 3.5 -7.171875 L 3.5 -9.015625 L 11.9375 -9.015625 L 11.9375 -11.6875 L 2.5 -11.6875 L 0.828125 -10.015625 L 0.828125 -6.171875 L 2.5 -4.5 L 9.265625 -4.5 L 9.265625 -2.671875 L 0.828125 -2.671875 L 0.828125 0 Z M 10.265625 0 "/></g></g></g><g fill="#ffffff" fill-opacity="1"><g transform="translate(634.162493, 279.425593)"><g><path d="M 3.171875 -4.171875 L 3.671875 -11.6875 L 0.671875 -11.6875 L 1.171875 -4.171875 Z M 3.5 0 L 3.5 -3 L 0.828125 -3 L 0.828125 0 Z M 3.5 0 "/></g></g></g><g fill="#ff0000" fill-opacity="1"><g transform="translate(440.736745, 290.014228)"><g><path d="M 3.984375 -1.109375 L 4.640625 -1.765625 L 4.640625 -3.921875 L 3.984375 -4.578125 L 0.03125 -4.578125 L 0.03125 -3.53125 L 3.59375 -3.53125 L 3.59375 -2.15625 L 1.5625 -2.15625 L 1.5625 -3.203125 L 0.515625 -3.203125 L 0.515625 0 L 1.5625 0 L 1.5625 -1.109375 Z M 3.984375 -1.109375 "/></g></g></g><g fill="#ff0000" fill-opacity="1"><g transform="translate(446.266199, 290.014228)"><g><path d="M 4.9375 0 L 4.9375 -3.921875 L 4.28125 -4.578125 L 0.484375 -4.578125 L 0.484375 -3.53125 L 3.890625 -3.53125 L 3.890625 -2.8125 L 0.984375 -2.8125 L 0.328125 -2.15625 L 0.328125 -0.65625 L 0.984375 0 L 3.5625 0 L 3.5625 -1.046875 L 1.375 -1.046875 L 1.375 -1.765625 L 3.890625 -1.765625 L 3.890625 -0.65625 L 4.546875 0 Z M 4.9375 0 "/></g></g></g><g fill="#ff0000" fill-opacity="1"><g transform="translate(452.219948, 290.014228)"><g><path d="M 3.984375 -1.109375 L 4.640625 -1.765625 L 4.640625 -3.921875 L 3.984375 -4.578125 L 0.03125 -4.578125 L 0.03125 -3.53125 L 3.59375 -3.53125 L 3.59375 -2.15625 L 1.5625 -2.15625 L 1.5625 -3.203125 L 0.515625 -3.203125 L 0.515625 0 L 1.5625 0 L 1.5625 -1.109375 L 2.65625 -1.109375 C 2.984375 -0.734375 3.3125 -0.359375 3.640625 0 L 4.96875 0 C 4.625 -0.359375 4.3125 -0.734375 3.984375 -1.109375 Z M 3.984375 -1.109375 "/></g></g></g><g fill="#ff0000" fill-opacity="1"><g transform="translate(457.945227, 290.014228)"><g><path d="M 4.9375 0 L 4.9375 -3.921875 L 4.28125 -4.578125 L 0.484375 -4.578125 L 0.484375 -3.53125 L 3.890625 -3.53125 L 3.890625 -2.8125 L 0.984375 -2.8125 L 0.328125 -2.15625 L 0.328125 -0.65625 L 0.984375 0 L 3.5625 0 L 3.5625 -1.046875 L 1.375 -1.046875 L 1.375 -1.765625 L 3.890625 -1.765625 L 3.890625 -0.65625 L 4.546875 0 Z M 4.9375 0 "/></g></g></g><g fill="#ff0000" fill-opacity="1"><g transform="translate(463.898978, 290.014228)"><g><path d="M 4.5 0 L 4.5 -1.046875 L 1.5625 -1.046875 L 1.5625 -4.578125 L 0.03125 -4.578125 L 0.03125 -3.53125 L 0.515625 -3.53125 L 0.515625 0 Z M 4.5 0 "/></g></g></g><g fill="#ff0000" fill-opacity="1"><g transform="translate(469.167327, 290.014228)"><g><path d="M 4.5 0 L 4.5 -1.046875 L 1.5625 -1.046875 L 1.5625 -4.578125 L 0.03125 -4.578125 L 0.03125 -3.53125 L 0.515625 -3.53125 L 0.515625 0 Z M 4.5 0 "/></g></g></g><g fill="#ff0000" fill-opacity="1"><g transform="translate(474.435676, 290.014228)"><g><path d="M 4.9375 0 L 4.9375 -3.921875 L 4.28125 -4.578125 L 0.484375 -4.578125 L 0.484375 -3.53125 L 3.890625 -3.53125 L 3.890625 -2.8125 L 0.984375 -2.8125 L 0.328125 -2.15625 L 0.328125 -0.65625 L 0.984375 0 L 3.5625 0 L 3.5625 -1.046875 L 1.375 -1.046875 L 1.375 -1.765625 L 3.890625 -1.765625 L 3.890625 -0.65625 L 4.546875 0 Z M 4.9375 0 "/></g></g></g><g fill="#ff0000" fill-opacity="1"><g transform="translate(480.389426, 290.014228)"><g><path d="M 2.265625 -3.140625 C 1.90625 -3.609375 1.546875 -4.09375 1.1875 -4.578125 L -0.09375 -4.578125 L 1.625 -2.28125 L -0.09375 0 L 1.1875 0 L 2.265625 -1.4375 L 3.359375 0 L 4.65625 0 L 2.921875 -2.296875 C 3.5 -3.0625 4.0625 -3.8125 4.640625 -4.578125 L 3.34375 -4.578125 Z M 2.265625 -3.140625 "/></g></g></g><g fill="#ff0000" fill-opacity="1"><g transform="translate(485.964572, 290.014228)"><g/></g></g><g fill="#ff0000" fill-opacity="1"><g transform="translate(489.274635, 290.014228)"><g><path d="M 4.28125 0 L 4.9375 -0.65625 L 4.9375 -2.8125 L 2.78125 -2.8125 L 2.78125 -1.765625 L 3.890625 -1.765625 L 3.890625 -1.046875 L 1.375 -1.046875 L 1.375 -3.53125 L 4.4375 -3.53125 L 4.4375 -4.578125 L 0.984375 -4.578125 L 0.328125 -3.921875 L 0.328125 -0.65625 L 0.984375 0 Z M 4.28125 0 "/></g></g></g><g fill="#ff0000" fill-opacity="1"><g transform="translate(495.228385, 290.014228)"><g><path d="M 4.9375 0 L 4.9375 -3.921875 L 4.28125 -4.578125 L 0.484375 -4.578125 L 0.484375 -3.53125 L 3.890625 -3.53125 L 3.890625 -2.8125 L 0.984375 -2.8125 L 0.328125 -2.15625 L 0.328125 -0.65625 L 0.984375 0 L 3.5625 0 L 3.5625 -1.046875 L 1.375 -1.046875 L 1.375 -1.765625 L 3.890625 -1.765625 L 3.890625 -0.65625 L 4.546875 0 Z M 4.9375 0 "/></g></g></g><g fill="#ff0000" fill-opacity="1"><g transform="translate(501.182135, 290.014228)"><g><path d="M 1.53125 -4.578125 L 0.03125 -4.578125 L 0.03125 -3.53125 L 0.515625 -3.53125 L 0.515625 0 L 1.5625 0 L 1.5625 -2.78125 C 2.03125 -2.15625 2.515625 -1.515625 2.984375 -0.875 C 3.453125 -1.515625 3.9375 -2.15625 4.40625 -2.78125 L 4.40625 0 L 5.453125 0 L 5.453125 -4.578125 L 4.4375 -4.578125 C 3.953125 -3.921875 3.46875 -3.265625 2.984375 -2.609375 Z M 1.53125 -4.578125 "/></g></g></g><g fill="#ff0000" fill-opacity="1"><g transform="translate(507.658086, 290.014228)"><g><path d="M 4.765625 0 L 4.765625 -1.046875 L 1.375 -1.046875 L 1.375 -3.53125 L 3.890625 -3.53125 L 3.890625 -2.75 L 1.703125 -2.75 L 1.703125 -1.703125 L 4.28125 -1.703125 L 4.9375 -2.34375 L 4.9375 -3.921875 L 4.28125 -4.578125 L 0.984375 -4.578125 L 0.328125 -3.921875 L 0.328125 -0.65625 L 0.984375 0 Z M 4.765625 0 "/></g></g></g><g fill="#ff0000" fill-opacity="1"><g transform="translate(513.611833, 290.014228)"><g><path d="M 4.015625 0 L 4.671875 -0.65625 L 4.671875 -2.15625 L 4.015625 -2.8125 L 1.375 -2.8125 L 1.375 -3.53125 L 4.671875 -3.53125 L 4.671875 -4.578125 L 0.984375 -4.578125 L 0.328125 -3.921875 L 0.328125 -2.421875 L 0.984375 -1.765625 L 3.625 -1.765625 L 3.625 -1.046875 L 0.328125 -1.046875 L 0.328125 0 Z M 4.015625 0 "/></g></g></g><g fill="#00ffff" fill-opacity="1"><g transform="translate(441.385171, 289.934631)"><g><path d="M 3.984375 -1.109375 L 4.640625 -1.765625 L 4.640625 -3.921875 L 3.984375 -4.578125 L 0.03125 -4.578125 L 0.03125 -3.53125 L 3.59375 -3.53125 L 3.59375 -2.15625 L 1.5625 -2.15625 L 1.5625 -3.203125 L 0.515625 -3.203125 L 0.515625 0 L 1.5625 0 L 1.5625 -1.109375 Z M 3.984375 -1.109375 "/></g></g></g><g fill="#00ffff" fill-opacity="1"><g transform="translate(446.914625, 289.934631)"><g><path d="M 4.9375 0 L 4.9375 -3.921875 L 4.28125 -4.578125 L 0.484375 -4.578125 L 0.484375 -3.53125 L 3.890625 -3.53125 L 3.890625 -2.8125 L 0.984375 -2.8125 L 0.328125 -2.15625 L 0.328125 -0.65625 L 0.984375 0 L 3.5625 0 L 3.5625 -1.046875 L 1.375 -1.046875 L 1.375 -1.765625 L 3.890625 -1.765625 L 3.890625 -0.65625 L 4.546875 0 Z M 4.9375 0 "/></g></g></g><g fill="#00ffff" fill-opacity="1"><g transform="translate(452.868375, 289.934631)"><g><path d="M 3.984375 -1.109375 L 4.640625 -1.765625 L 4.640625 -3.921875 L 3.984375 -4.578125 L 0.03125 -4.578125 L 0.03125 -3.53125 L 3.59375 -3.53125 L 3.59375 -2.15625 L 1.5625 -2.15625 L 1.5625 -3.203125 L 0.515625 -3.203125 L 0.515625 0 L 1.5625 0 L 1.5625 -1.109375 L 2.65625 -1.109375 C 2.984375 -0.734375 3.3125 -0.359375 3.640625 0 L 4.96875 0 C 4.625 -0.359375 4.3125 -0.734375 3.984375 -1.109375 Z M 3.984375 -1.109375 "/></g></g></g><g fill="#00ffff" fill-opacity="1"><g transform="translate(458.593654, 289.934631)"><g><path d="M 4.9375 0 L 4.9375 -3.921875 L 4.28125 -4.578125 L 0.484375 -4.578125 L 0.484375 -3.53125 L 3.890625 -3.53125 L 3.890625 -2.8125 L 0.984375 -2.8125 L 0.328125 -2.15625 L 0.328125 -0.65625 L 0.984375 0 L 3.5625 0 L 3.5625 -1.046875 L 1.375 -1.046875 L 1.375 -1.765625 L 3.890625 -1.765625 L 3.890625 -0.65625 L 4.546875 0 Z M 4.9375 0 "/></g></g></g><g fill="#00ffff" fill-opacity="1"><g transform="translate(464.547404, 289.934631)"><g><path d="M 4.5 0 L 4.5 -1.046875 L 1.5625 -1.046875 L 1.5625 -4.578125 L 0.03125 -4.578125 L 0.03125 -3.53125 L 0.515625 -3.53125 L 0.515625 0 Z M 4.5 0 "/></g></g></g><g fill="#00ffff" fill-opacity="1"><g transform="translate(469.815753, 289.934631)"><g><path d="M 4.5 0 L 4.5 -1.046875 L 1.5625 -1.046875 L 1.5625 -4.578125 L 0.03125 -4.578125 L 0.03125 -3.53125 L 0.515625 -3.53125 L 0.515625 0 Z M 4.5 0 "/></g></g></g><g fill="#00ffff" fill-opacity="1"><g transform="translate(475.084102, 289.934631)"><g><path d="M 4.9375 0 L 4.9375 -3.921875 L 4.28125 -4.578125 L 0.484375 -4.578125 L 0.484375 -3.53125 L 3.890625 -3.53125 L 3.890625 -2.8125 L 0.984375 -2.8125 L 0.328125 -2.15625 L 0.328125 -0.65625 L 0.984375 0 L 3.5625 0 L 3.5625 -1.046875 L 1.375 -1.046875 L 1.375 -1.765625 L 3.890625 -1.765625 L 3.890625 -0.65625 L 4.546875 0 Z M 4.9375 0 "/></g></g></g><g fill="#00ffff" fill-opacity="1"><g transform="translate(481.037853, 289.934631)"><g><path d="M 2.265625 -3.140625 C 1.90625 -3.609375 1.546875 -4.09375 1.1875 -4.578125 L -0.09375 -4.578125 L 1.625 -2.28125 L -0.09375 0 L 1.1875 0 L 2.265625 -1.4375 L 3.359375 0 L 4.65625 0 L 2.921875 -2.296875 C 3.5 -3.0625 4.0625 -3.8125 4.640625 -4.578125 L 3.34375 -4.578125 Z M 2.265625 -3.140625 "/></g></g></g><g fill="#00ffff" fill-opacity="1"><g transform="translate(486.612999, 289.934631)"><g/></g></g><g fill="#00ffff" fill-opacity="1"><g transform="translate(489.923061, 289.934631)"><g><path d="M 4.28125 0 L 4.9375 -0.65625 L 4.9375 -2.8125 L 2.78125 -2.8125 L 2.78125 -1.765625 L 3.890625 -1.765625 L 3.890625 -1.046875 L 1.375 -1.046875 L 1.375 -3.53125 L 4.4375 -3.53125 L 4.4375 -4.578125 L 0.984375 -4.578125 L 0.328125 -3.921875 L 0.328125 -0.65625 L 0.984375 0 Z M 4.28125 0 "/></g></g></g><g fill="#00ffff" fill-opacity="1"><g transform="translate(495.876811, 289.934631)"><g><path d="M 4.9375 0 L 4.9375 -3.921875 L 4.28125 -4.578125 L 0.484375 -4.578125 L 0.484375 -3.53125 L 3.890625 -3.53125 L 3.890625 -2.8125 L 0.984375 -2.8125 L 0.328125 -2.15625 L 0.328125 -0.65625 L 0.984375 0 L 3.5625 0 L 3.5625 -1.046875 L 1.375 -1.046875 L 1.375 -1.765625 L 3.890625 -1.765625 L 3.890625 -0.65625 L 4.546875 0 Z M 4.9375 0 "/></g></g></g><g fill="#00ffff" fill-opacity="1"><g transform="translate(501.830562, 289.934631)"><g><path d="M 1.53125 -4.578125 L 0.03125 -4.578125 L 0.03125 -3.53125 L 0.515625 -3.53125 L 0.515625 0 L 1.5625 0 L 1.5625 -2.78125 C 2.03125 -2.15625 2.515625 -1.515625 2.984375 -0.875 C 3.453125 -1.515625 3.9375 -2.15625 4.40625 -2.78125 L 4.40625 0 L 5.453125 0 L 5.453125 -4.578125 L 4.4375 -4.578125 C 3.953125 -3.921875 3.46875 -3.265625 2.984375 -2.609375 Z M 1.53125 -4.578125 "/></g></g></g><g fill="#00ffff" fill-opacity="1"><g transform="translate(508.306513, 289.934631)"><g><path d="M 4.765625 0 L 4.765625 -1.046875 L 1.375 -1.046875 L 1.375 -3.53125 L 3.890625 -3.53125 L 3.890625 -2.75 L 1.703125 -2.75 L 1.703125 -1.703125 L 4.28125 -1.703125 L 4.9375 -2.34375 L 4.9375 -3.921875 L 4.28125 -4.578125 L 0.984375 -4.578125 L 0.328125 -3.921875 L 0.328125 -0.65625 L 0.984375 0 Z M 4.765625 0 "/></g></g></g><g fill="#00ffff" fill-opacity="1"><g transform="translate(514.260259, 289.934631)"><g><path d="M 4.015625 0 L 4.671875 -0.65625 L 4.671875 -2.15625 L 4.015625 -2.8125 L 1.375 -2.8125 L 1.375 -3.53125 L 4.671875 -3.53125 L 4.671875 -4.578125 L 0.984375 -4.578125 L 0.328125 -3.921875 L 0.328125 -2.421875 L 0.984375 -1.765625 L 3.625 -1.765625 L 3.625 -1.046875 L 0.328125 -1.046875 L 0.328125 0 Z M 4.015625 0 "/></g></g></g><g fill="#ffffff" fill-opacity="1"><g transform="translate(441.060958, 289.97443)"><g><path d="M 3.984375 -1.109375 L 4.640625 -1.765625 L 4.640625 -3.921875 L 3.984375 -4.578125 L 0.03125 -4.578125 L 0.03125 -3.53125 L 3.59375 -3.53125 L 3.59375 -2.15625 L 1.5625 -2.15625 L 1.5625 -3.203125 L 0.515625 -3.203125 L 0.515625 0 L 1.5625 0 L 1.5625 -1.109375 Z M 3.984375 -1.109375 "/></g></g></g><g fill="#ffffff" fill-opacity="1"><g transform="translate(446.590412, 289.97443)"><g><path d="M 4.9375 0 L 4.9375 -3.921875 L 4.28125 -4.578125 L 0.484375 -4.578125 L 0.484375 -3.53125 L 3.890625 -3.53125 L 3.890625 -2.8125 L 0.984375 -2.8125 L 0.328125 -2.15625 L 0.328125 -0.65625 L 0.984375 0 L 3.5625 0 L 3.5625 -1.046875 L 1.375 -1.046875 L 1.375 -1.765625 L 3.890625 -1.765625 L 3.890625 -0.65625 L 4.546875 0 Z M 4.9375 0 "/></g></g></g><g fill="#ffffff" fill-opacity="1"><g transform="translate(452.544161, 289.97443)"><g><path d="M 3.984375 -1.109375 L 4.640625 -1.765625 L 4.640625 -3.921875 L 3.984375 -4.578125 L 0.03125 -4.578125 L 0.03125 -3.53125 L 3.59375 -3.53125 L 3.59375 -2.15625 L 1.5625 -2.15625 L 1.5625 -3.203125 L 0.515625 -3.203125 L 0.515625 0 L 1.5625 0 L 1.5625 -1.109375 L 2.65625 -1.109375 C 2.984375 -0.734375 3.3125 -0.359375 3.640625 0 L 4.96875 0 C 4.625 -0.359375 4.3125 -0.734375 3.984375 -1.109375 Z M 3.984375 -1.109375 "/></g></g></g><g fill="#ffffff" fill-opacity="1"><g transform="translate(458.26944, 289.97443)"><g><path d="M 4.9375 0 L 4.9375 -3.921875 L 4.28125 -4.578125 L 0.484375 -4.578125 L 0.484375 -3.53125 L 3.890625 -3.53125 L 3.890625 -2.8125 L 0.984375 -2.8125 L 0.328125 -2.15625 L 0.328125 -0.65625 L 0.984375 0 L 3.5625 0 L 3.5625 -1.046875 L 1.375 -1.046875 L 1.375 -1.765625 L 3.890625 -1.765625 L 3.890625 -0.65625 L 4.546875 0 Z M 4.9375 0 "/></g></g></g><g fill="#ffffff" fill-opacity="1"><g transform="translate(464.223191, 289.97443)"><g><path d="M 4.5 0 L 4.5 -1.046875 L 1.5625 -1.046875 L 1.5625 -4.578125 L 0.03125 -4.578125 L 0.03125 -3.53125 L 0.515625 -3.53125 L 0.515625 0 Z M 4.5 0 "/></g></g></g><g fill="#ffffff" fill-opacity="1"><g transform="translate(469.49154, 289.97443)"><g><path d="M 4.5 0 L 4.5 -1.046875 L 1.5625 -1.046875 L 1.5625 -4.578125 L 0.03125 -4.578125 L 0.03125 -3.53125 L 0.515625 -3.53125 L 0.515625 0 Z M 4.5 0 "/></g></g></g><g fill="#ffffff" fill-opacity="1"><g transform="translate(474.759889, 289.97443)"><g><path d="M 4.9375 0 L 4.9375 -3.921875 L 4.28125 -4.578125 L 0.484375 -4.578125 L 0.484375 -3.53125 L 3.890625 -3.53125 L 3.890625 -2.8125 L 0.984375 -2.8125 L 0.328125 -2.15625 L 0.328125 -0.65625 L 0.984375 0 L 3.5625 0 L 3.5625 -1.046875 L 1.375 -1.046875 L 1.375 -1.765625 L 3.890625 -1.765625 L 3.890625 -0.65625 L 4.546875 0 Z M 4.9375 0 "/></g></g></g><g fill="#ffffff" fill-opacity="1"><g transform="translate(480.713639, 289.97443)"><g><path d="M 2.265625 -3.140625 C 1.90625 -3.609375 1.546875 -4.09375 1.1875 -4.578125 L -0.09375 -4.578125 L 1.625 -2.28125 L -0.09375 0 L 1.1875 0 L 2.265625 -1.4375 L 3.359375 0 L 4.65625 0 L 2.921875 -2.296875 C 3.5 -3.0625 4.0625 -3.8125 4.640625 -4.578125 L 3.34375 -4.578125 Z M 2.265625 -3.140625 "/></g></g></g><g fill="#ffffff" fill-opacity="1"><g transform="translate(486.288785, 289.97443)"><g/></g></g><g fill="#ffffff" fill-opacity="1"><g transform="translate(489.598848, 289.97443)"><g><path d="M 4.28125 0 L 4.9375 -0.65625 L 4.9375 -2.8125 L 2.78125 -2.8125 L 2.78125 -1.765625 L 3.890625 -1.765625 L 3.890625 -1.046875 L 1.375 -1.046875 L 1.375 -3.53125 L 4.4375 -3.53125 L 4.4375 -4.578125 L 0.984375 -4.578125 L 0.328125 -3.921875 L 0.328125 -0.65625 L 0.984375 0 Z M 4.28125 0 "/></g></g></g><g fill="#ffffff" fill-opacity="1"><g transform="translate(495.552598, 289.97443)"><g><path d="M 4.9375 0 L 4.9375 -3.921875 L 4.28125 -4.578125 L 0.484375 -4.578125 L 0.484375 -3.53125 L 3.890625 -3.53125 L 3.890625 -2.8125 L 0.984375 -2.8125 L 0.328125 -2.15625 L 0.328125 -0.65625 L 0.984375 0 L 3.5625 0 L 3.5625 -1.046875 L 1.375 -1.046875 L 1.375 -1.765625 L 3.890625 -1.765625 L 3.890625 -0.65625 L 4.546875 0 Z M 4.9375 0 "/></g></g></g><g fill="#ffffff" fill-opacity="1"><g transform="translate(501.506349, 289.97443)"><g><path d="M 1.53125 -4.578125 L 0.03125 -4.578125 L 0.03125 -3.53125 L 0.515625 -3.53125 L 0.515625 0 L 1.5625 0 L 1.5625 -2.78125 C 2.03125 -2.15625 2.515625 -1.515625 2.984375 -0.875 C 3.453125 -1.515625 3.9375 -2.15625 4.40625 -2.78125 L 4.40625 0 L 5.453125 0 L 5.453125 -4.578125 L 4.4375 -4.578125 C 3.953125 -3.921875 3.46875 -3.265625 2.984375 -2.609375 Z M 1.53125 -4.578125 "/></g></g></g><g fill="#ffffff" fill-opacity="1"><g transform="translate(507.982299, 289.97443)"><g><path d="M 4.765625 0 L 4.765625 -1.046875 L 1.375 -1.046875 L 1.375 -3.53125 L 3.890625 -3.53125 L 3.890625 -2.75 L 1.703125 -2.75 L 1.703125 -1.703125 L 4.28125 -1.703125 L 4.9375 -2.34375 L 4.9375 -3.921875 L 4.28125 -4.578125 L 0.984375 -4.578125 L 0.328125 -3.921875 L 0.328125 -0.65625 L 0.984375 0 Z M 4.765625 0 "/></g></g></g><g fill="#ffffff" fill-opacity="1"><g transform="translate(513.936046, 289.97443)"><g><path d="M 4.015625 0 L 4.671875 -0.65625 L 4.671875 -2.15625 L 4.015625 -2.8125 L 1.375 -2.8125 L 1.375 -3.53125 L 4.671875 -3.53125 L 4.671875 -4.578125 L 0.984375 -4.578125 L 0.328125 -3.921875 L 0.328125 -2.421875 L 0.984375 -1.765625 L 3.625 -1.765625 L 3.625 -1.046875 L 0.328125 -1.046875 L 0.328125 0 Z M 4.015625 0 "/></g></g></g><g mask="url(#af4653a7c2)"><g transform="matrix(1, 0, 0, 1, 35, 0.000000000000017795)"><g clip-path="url(#52c019371f)"><g clip-path="url(#ca560d9334)"><path fill="#000000" d="M 292.566406 251.730469 C 293.734375 233.042969 297 228.230469 297.242188 227.898438 C 297.453125 227.675781 297.65625 227.445312 297.847656 227.210938 C 305.464844 224.917969 313.191406 222.300781 321.019531 219.367188 L 346.003906 208.960938 C 373.25 196.5625 391.269531 184.972656 392.019531 184.484375 L 410.105469 172.78125 L 329.625 129.535156 C 320.6875 124.738281 311.492188 120.507812 302.035156 116.84375 L 235.179688 90.9375 C 241.757812 81.191406 275.375 47.507812 275.375 47.507812 C 275.375 47.507812 254.050781 14.609375 208.160156 4.25 C 162.992188 -5.929688 138.398438 8.414062 138.414062 8.480469 L 138.191406 20.246094 C 135.742188 53.246094 150.351562 86.558594 150.351562 86.558594 L 91.863281 121.695312 C 80.808594 128.144531 70.164062 135.210938 59.925781 142.890625 L 6.214844 183.140625 L 11.957031 192.9375 C 12.667969 194.148438 19.304688 205.097656 34.285156 216.363281 L 47.757812 225.042969 C 48.15625 225.300781 48.566406 225.546875 48.984375 225.769531 C 59.140625 231.191406 69.828125 235.1875 81.050781 237.753906 L 90.160156 275.492188 C 90.808594 278.183594 91.761719 280.765625 93.019531 283.230469 C 94.277344 285.699219 95.800781 287.988281 97.597656 290.097656 C 99.390625 292.207031 101.40625 294.078125 103.640625 295.714844 C 105.875 297.351562 108.269531 298.707031 110.820312 299.78125 L 140.753906 312.355469 L 116.871094 316.585938 C 115.53125 316.820312 114.214844 317.140625 112.921875 317.554688 C 111.625 317.964844 110.367188 318.464844 109.140625 319.050781 C 107.914062 319.636719 106.730469 320.300781 105.597656 321.046875 C 104.460938 321.792969 103.382812 322.613281 102.359375 323.507812 C 101.335938 324.402344 100.375 325.359375 99.484375 326.386719 C 98.59375 327.410156 97.773438 328.492188 97.027344 329.628906 C 96.285156 330.765625 95.621094 331.945312 95.039062 333.175781 C 94.457031 334.402344 93.957031 335.664062 93.546875 336.957031 C 85.210938 363.089844 55.160156 450.761719 18.304688 480.703125 L 0.816406 494.917969 L 39.84375 508.96875 L 36.507812 520.84375 L 98.175781 530.605469 L 101.503906 522.332031 L 133.890625 518.839844 C 136.527344 527.085938 142.972656 544.941406 152.285156 555.445312 C 164.691406 569.453125 168.1875 552.585938 168.1875 545.585938 C 168.1875 540.78125 169.238281 527.261719 173.097656 514.320312 L 194.261719 516.839844 C 195.632812 523.921875 196.5 530.722656 196.816406 533.820312 C 197.765625 543.042969 201.253906 574.34375 219.078125 548.136719 C 224.394531 540.292969 227.484375 530.679688 229.242188 521.007812 L 249.410156 523.410156 L 244.21875 508.390625 L 293.578125 501.109375 L 293.054688 499.035156 L 311.242188 501.058594 L 349.949219 483.761719 L 286.640625 410.367188 L 268.578125 368.347656 L 264.269531 338.4375 C 264.035156 336.832031 263.675781 335.253906 263.1875 333.707031 C 262.695312 332.160156 262.085938 330.660156 261.351562 329.214844 C 260.621094 327.765625 259.777344 326.386719 258.820312 325.074219 C 257.863281 323.761719 256.808594 322.535156 255.652344 321.398438 C 254.496094 320.257812 253.257812 319.21875 251.933594 318.277344 C 250.609375 317.339844 249.21875 316.515625 247.761719 315.800781 C 246.300781 315.085938 244.796875 314.496094 243.242188 314.027344 C 241.6875 313.558594 240.105469 313.21875 238.496094 313.007812 L 214.507812 309.890625 C 231.972656 304.484375 252.046875 296.625 271.730469 285.292969 C 273.222656 284.4375 274.652344 283.492188 276.023438 282.460938 C 277.398438 281.429688 278.699219 280.316406 279.933594 279.125 C 281.171875 277.929688 282.328125 276.667969 283.40625 275.332031 C 284.484375 273.996094 285.476562 272.597656 286.382812 271.136719 C 287.285156 269.679688 288.097656 268.171875 288.820312 266.613281 C 289.539062 265.050781 290.15625 263.457031 290.679688 261.820312 C 291.199219 260.183594 291.621094 258.523438 291.9375 256.835938 C 292.25 255.144531 292.460938 253.445312 292.566406 251.730469 Z M 292.566406 251.730469 " fill-opacity="1" fill-rule="nonzero"/></g><path fill="#ffffff" d="M 282.511719 231.390625 C 281.019531 237.578125 280.269531 244.769531 279.867188 250.941406 C 279.714844 253.332031 279.273438 255.667969 278.546875 257.949219 C 277.816406 260.230469 276.820312 262.390625 275.554688 264.421875 C 274.292969 266.457031 272.800781 268.308594 271.078125 269.972656 C 269.359375 271.640625 267.460938 273.070312 265.382812 274.265625 C 229.65625 294.859375 192.132812 303.460938 174.320312 306.613281 C 171.003906 307.203125 167.675781 307.304688 164.328125 306.929688 C 160.984375 306.554688 157.757812 305.714844 154.65625 304.40625 L 115.75 288.054688 C 114.117188 287.367188 112.585938 286.5 111.152344 285.453125 C 109.722656 284.40625 108.433594 283.207031 107.285156 281.855469 C 106.136719 280.507812 105.160156 279.042969 104.355469 277.460938 C 103.550781 275.882812 102.941406 274.230469 102.523438 272.507812 L 94.808594 240.542969 L 95.222656 240.605469 L 98.914062 241.3125 L 98.988281 241.121094 L 100.636719 241.34375 C 101.125 244.035156 101.847656 247.828125 102.238281 249.273438 C 102.875 251.601562 103.511719 259.234375 117.925781 261.777344 C 132.339844 264.320312 139.773438 259.972656 139.773438 252.253906 C 139.773438 249.375 139.667969 246.71875 139.523438 244.53125 C 147.84375 244.367188 156 243.125 163.996094 240.8125 L 165.441406 240.390625 L 165.441406 253.523438 C 165.441406 258.832031 175.613281 269.648438 199.996094 267.738281 C 224.378906 265.828125 240.710938 257.132812 240.710938 248.015625 L 240.710938 238.953125 C 245.265625 238.320312 249.824219 237.636719 254.386719 236.902344 L 265.121094 235.175781 L 265.171875 235.28125 L 267.199219 234.847656 L 267.601562 234.785156 L 267.601562 234.757812 L 275.316406 233.074219 C 277.695312 232.550781 280.097656 231.988281 282.511719 231.390625 Z M 282.511719 231.390625 " fill-opacity="1" fill-rule="nonzero"/><path fill="#ffffff" d="M 329.125 479.128906 L 309.203125 488.027344 L 290.113281 485.90625 L 277.789062 450.28125 L 248.527344 412.109375 L 268.910156 454.96875 L 277.8125 490.597656 L 240.5 496.109375 C 240.5 496.109375 231.164062 457.929688 223.960938 440.964844 C 216.753906 424 220.558594 381.578125 220.558594 381.578125 L 205.308594 426.539062 C 205.308594 426.539062 208.710938 453.683594 213.796875 463.863281 C 218.882812 474.042969 230.753906 508.390625 230.753906 508.390625 L 166.707031 500.761719 C 169.507812 495.089844 169.742188 483.390625 168.886719 470.949219 L 178.289062 443.429688 L 223.074219 370.132812 L 219.011719 363.496094 C 217.722656 361.386719 207.710938 345.6875 191.558594 338.382812 C 192.058594 336.46875 193.039062 334.847656 194.507812 333.519531 L 199.710938 328.984375 L 198.757812 322.15625 C 198.683594 321.644531 198.578125 321.140625 198.449219 320.636719 L 236.875 325.625 C 237.796875 325.746094 238.707031 325.9375 239.601562 326.207031 C 240.492188 326.476562 241.359375 326.8125 242.199219 327.222656 C 243.035156 327.632812 243.835938 328.105469 244.597656 328.644531 C 245.359375 329.183594 246.070312 329.78125 246.734375 330.4375 C 247.398438 331.09375 248.003906 331.796875 248.554688 332.550781 C 249.101562 333.304688 249.585938 334.097656 250.007812 334.933594 C 250.425781 335.765625 250.777344 336.625 251.058594 337.515625 C 251.335938 338.40625 251.542969 339.3125 251.675781 340.234375 L 256.183594 371.835938 L 275.695312 417.214844 Z M 329.125 479.128906 " fill-opacity="1" fill-rule="nonzero"/><path fill="#ffffff" d="M 208.160156 370.140625 L 166.699219 437.988281 L 143.804688 505 L 108.183594 508.816406 L 120.472656 463.863281 L 142.105469 424.417969 L 143.378906 386.253906 L 120.472656 426.117188 L 110.300781 466.40625 L 90.132812 516.453125 L 52.59375 510.507812 L 59.40625 486.34375 L 86.972656 460.050781 L 99.695312 408.734375 C 99.695312 408.734375 80.613281 451.988281 75.519531 456.230469 C 70.425781 460.472656 36.933594 494.402344 36.933594 494.402344 L 26.328125 490.585938 C 65.582031 458.695312 96.214844 370.46875 105.667969 340.800781 C 106.144531 339.308594 106.8125 337.90625 107.671875 336.59375 C 108.53125 335.28125 109.554688 334.113281 110.734375 333.082031 C 111.914062 332.046875 113.214844 331.195312 114.628906 330.519531 C 116.042969 329.84375 117.523438 329.367188 119.066406 329.097656 L 153.984375 322.933594 L 153.984375 317.707031 C 157.628906 318.851562 161.359375 319.546875 165.171875 319.792969 C 168.988281 320.039062 172.777344 319.832031 176.539062 319.164062 C 178.308594 318.851562 180.222656 318.492188 182.277344 318.082031 C 185.753906 321.058594 186.160156 323.933594 186.160156 323.933594 C 175.773438 332.957031 178.574219 347.679688 178.574219 347.679688 C 195.96875 350.203125 208.160156 370.140625 208.160156 370.140625 Z M 208.160156 370.140625 " fill-opacity="1" fill-rule="nonzero"/><path fill="#ffffff" d="M 41.941406 206.21875 C 28.570312 196.132812 22.933594 186.519531 22.933594 186.519531 L 67.53125 153.070312 C 77.378906 145.679688 87.625 138.886719 98.265625 132.6875 L 150.902344 102.546875 C 150.902344 102.546875 159.917969 114 186.199219 114 C 212.480469 114 229.898438 102.546875 229.898438 102.546875 L 297.449219 128.714844 C 306.414062 132.191406 315.136719 136.203125 323.605469 140.757812 L 385.117188 173.8125 C 385.117188 173.8125 367.445312 185.242188 340.738281 197.394531 L 272.304688 153.851562 L 316.523438 207.445312 C 302.203125 212.90625 287.5625 217.304688 272.601562 220.644531 L 232.011719 128.828125 L 252.371094 224.339844 C 231.238281 227.753906 209.992188 230.09375 188.625 231.367188 L 194.480469 181.761719 C 194.910156 178.140625 195.023438 174.507812 194.816406 170.863281 L 192.152344 123.742188 L 187.109375 169.222656 C 186.804688 171.980469 186.316406 174.703125 185.648438 177.398438 L 173.933594 224.671875 L 160.488281 228.59375 C 151.625 231.160156 142.585938 232.199219 133.371094 231.714844 C 123.285156 231.152344 113.621094 230.296875 104.511719 229.046875 L 121.320312 173.222656 C 122.480469 169.371094 123.996094 165.664062 125.859375 162.097656 L 142.144531 130.96875 L 121.78125 154.414062 C 116.695312 160.269531 112.816406 166.835938 110.136719 174.113281 L 90.746094 226.777344 C 89.347656 226.507812 87.945312 226.21875 86.589844 225.949219 C 75.316406 223.636719 64.621094 219.742188 54.5 214.269531 L 78.535156 172.933594 L 61.949219 182.6875 Z M 41.941406 206.21875 " fill-opacity="1" fill-rule="nonzero"/><path fill="#ffffff" d="M 150.90625 20.476562 C 150.90625 20.476562 150.0625 65.03125 166.492188 89.492188 C 166.492188 89.492188 194.164062 99.015625 222.792969 86.628906 C 222.792969 86.628906 238.160156 59.277344 254.6875 48.207031 C 254.6875 48.207031 247.601562 39.558594 236.152344 39.558594 C 236.152344 39.558594 216.117188 63.734375 217.066406 79.953125 C 217.066406 79.953125 213.253906 53.550781 225.019531 36.695312 C 225.019531 36.695312 201.488281 38.285156 196.074219 33.832031 C 196.074219 33.832031 183.992188 67.867188 188.125 79 C 188.125 79 179.535156 50.054688 180.488281 31.605469 C 180.488281 31.605469 166.8125 19.515625 150.90625 20.476562 Z M 150.90625 20.476562 " fill-opacity="1" fill-rule="nonzero"/><path fill="#141929" d="M 192.148438 378.832031 C 192.148438 379.527344 192.078125 380.21875 191.945312 380.898438 C 191.808594 381.582031 191.609375 382.246094 191.339844 382.886719 C 191.074219 383.53125 190.75 384.140625 190.363281 384.722656 C 189.976562 385.300781 189.535156 385.835938 189.042969 386.328125 C 188.550781 386.820312 188.015625 387.257812 187.4375 387.644531 C 186.859375 388.03125 186.246094 388.359375 185.605469 388.625 C 184.960938 388.890625 184.296875 389.09375 183.617188 389.226562 C 182.933594 389.363281 182.242188 389.433594 181.546875 389.433594 C 180.851562 389.433594 180.164062 389.363281 179.480469 389.226562 C 178.796875 389.09375 178.132812 388.890625 177.492188 388.625 C 176.847656 388.359375 176.238281 388.03125 175.660156 387.644531 C 175.082031 387.257812 174.542969 386.820312 174.050781 386.328125 C 173.558594 385.835938 173.121094 385.300781 172.734375 384.722656 C 172.347656 384.140625 172.019531 383.53125 171.753906 382.886719 C 171.488281 382.246094 171.289062 381.582031 171.152344 380.898438 C 171.015625 380.21875 170.949219 379.527344 170.949219 378.832031 C 170.949219 378.136719 171.015625 377.445312 171.152344 376.765625 C 171.289062 376.082031 171.488281 375.417969 171.753906 374.773438 C 172.019531 374.132812 172.347656 373.519531 172.734375 372.941406 C 173.121094 372.363281 173.558594 371.828125 174.050781 371.335938 C 174.542969 370.84375 175.082031 370.40625 175.660156 370.019531 C 176.238281 369.632812 176.847656 369.304688 177.492188 369.039062 C 178.132812 368.773438 178.796875 368.570312 179.480469 368.433594 C 180.164062 368.300781 180.851562 368.230469 181.546875 368.230469 C 182.242188 368.230469 182.933594 368.300781 183.617188 368.433594 C 184.296875 368.570312 184.960938 368.773438 185.605469 369.039062 C 186.246094 369.304688 186.859375 369.632812 187.4375 370.019531 C 188.015625 370.40625 188.550781 370.84375 189.042969 371.335938 C 189.535156 371.828125 189.976562 372.363281 190.363281 372.941406 C 190.75 373.519531 191.074219 374.132812 191.339844 374.773438 C 191.609375 375.417969 191.808594 376.082031 191.945312 376.765625 C 192.078125 377.445312 192.148438 378.136719 192.148438 378.832031 Z M 192.148438 378.832031 " fill-opacity="1" fill-rule="nonzero"/></g></g></g></svg>